<?xml version="1.0" encoding="utf-8"?>
<!-- Generator: Adobe Illustrator 24.1.0, SVG Export Plug-In . SVG Version: 6.00 Build 0)  -->
<svg version="1.1" id="Capa_1" xmlns="http://www.w3.org/2000/svg" xmlns:xlink="http://www.w3.org/1999/xlink" x="0px" y="0px"
	 viewBox="0 0 2249.9 2063" style="enable-background:new 0 0 2249.9 2063;" xml:space="preserve">
<style type="text/css">
	.st0{opacity:0.49;fill:#FFF3F8;enable-background:new    ;}
</style>
<path class="st0" d="M1089.9,277.1c-6.8,0-13.6,0.4-20.3,1.2c-15.8-81.6-87.6-143.2-173.7-143.2c-33.4,0-64.7,9.3-91.4,25.4
	C777.9,96.3,714.7,51.1,640.9,51.1c-79.8,0-147.3,52.9-169.4,125.5c-93.7,19.7-171.3,83-210.7,167.7c-9.1-1.4-18.4-2.2-28-2.2
	c-97.8,0-177,79.3-177,177s79.3,177,177,177c29.2,0,56.7-7.1,81-19.6c54.9,58.8,133.2,95.6,220,95.6c77.3,0,147.7-29.1,201-77
	c31.4,28.6,73.2,46,119,46c79,0,145.9-51.8,168.7-123.3c20.8,8.5,43.5,13.3,67.3,13.3c97.8,0,177-79.3,177-177
	S1187.6,277.1,1089.9,277.1z"/>
<path class="st0" d="M1063.7,1697.2c4.8,88.8,80.6,156.9,169.4,152.1c21.7-1.2,42.1-6.6,60.5-15.3c24.2,63.8,87.4,107.6,159.2,103.7
	c41.6-2.2,78.7-20.1,105.8-47.6c50.7,40.9,116.1,63.9,186.3,60.1c78.9-4.2,148.1-41.5,195.1-97.5c22.7,10.2,48,15.3,74.5,13.8
	c88.8-4.8,156.9-80.6,152.1-169.4c-4.8-88.8-80.6-156.9-169.4-152.1c-8.6,0.5-17.1,1.6-25.3,3.4c-39.9-75-113.5-128.7-199.5-142
	c-23.6-64.9-87.4-109.6-160-105.7c-67,3.6-122.3,47.7-143.3,107.3c-25-13.3-53.9-20.2-84.2-18.6c-78.3,4.2-140.5,63.7-150.8,138.5
	c-6.1-0.4-12.2-0.4-18.4-0.1C1127,1532.6,1058.9,1608.4,1063.7,1697.2z"/>
<path class="st0" d="M1812.2,817.8c-4.3-0.1-8.4,0.1-12.6,0.5c-8.8-50.8-52.5-90-106-91.1c-20.8-0.4-40.3,4.9-57,14.6
	c-15.7-40.2-54.4-69-100.2-70c-49.6-1-92.1,30.9-106.7,75.8c-58.4,11.1-107.4,49.4-132.9,101.4c-5.6-1-11.4-1.6-17.3-1.7
	c-60.7-1.2-110.9,47-112.1,107.6c-1.2,60.7,47,110.9,107.6,112.1c18.1,0.4,35.3-3.7,50.5-11.1c33.4,37.2,81.5,61,135.4,62.1
	c48,1,92.1-16.2,125.8-45.2c19.1,18.1,44.8,29.5,73.3,30c49.1,1,91.2-30.3,106.3-74.4c12.8,5.6,26.8,8.8,41.6,9.1
	c60.7,1.2,110.9-47,112.1-107.6C1921.1,869.3,1872.9,819.1,1812.2,817.8z"/>
<path class="st0" d="M235.9,1248.6c1.2,60.7,51.4,108.9,112.1,107.6c14.8-0.3,28.9-3.5,41.6-9.1c15,44.1,57.2,75.4,106.3,74.4
	c28.4-0.6,54.1-11.9,73.3-30c33.7,29,77.8,46.2,125.8,45.2c53.9-1.1,102-24.9,135.4-62.1c15.2,7.5,32.4,11.5,50.5,11.1
	c60.7-1.2,108.9-51.4,107.6-112.1c-1.2-60.7-51.4-108.9-112.1-107.6c-5.9,0.1-11.7,0.7-17.3,1.7c-25.5-52.1-74.5-90.4-132.9-101.4
	c-14.6-44.8-57.2-76.8-106.7-75.8c-45.8,0.9-84.5,29.8-100.2,70c-16.8-9.7-36.3-15-57-14.6c-53.5,1.1-97.3,40.2-106,91.1
	c-4.1-0.4-8.3-0.6-12.6-0.5C282.8,1137.7,234.6,1187.9,235.9,1248.6z"/>
</svg>
