<?xml version="1.0" encoding="utf-8"?>
<!-- Generator: Adobe Illustrator 24.1.0, SVG Export Plug-In . SVG Version: 6.00 Build 0)  -->
<svg version="1.1" id="Capa_1" xmlns="http://www.w3.org/2000/svg" xmlns:xlink="http://www.w3.org/1999/xlink" x="0px" y="0px"
	 viewBox="0 0 505 504" style="enable-background:new 0 0 505 504;" xml:space="preserve">
<style type="text/css">
	.st0{fill:#C29DC5;}
	.st1{fill:#F6F6F6;}
	.st2{fill:#262B5E;}
	.st3{fill:#B1DFF6;}
	.st4{fill:#ABD7ED;}
	.st5{fill:#C6ADD4;}
	.st6{fill:#F5F2B4;}
	.st7{fill:#F1ED92;}
	.st8{fill:#E6E463;}
	.st9{fill:#272D49;}
	.st10{fill:#F5DAE8;}
	.st11{fill:#E3CCD6;}
	.st12{fill:#FBDDEB;}
	.st13{fill:#F9E7EE;}
	.st14{fill:#28295D;}
	.st15{fill:#9F77B3;}
	.st16{fill:#FFFFFF;}
	.st17{fill:#F1ED91;}
	.st18{fill:#EE91A9;}
	.st19{fill:#85C1EB;}
	.st20{fill:#639DBA;}
	.st21{fill:#272952;}
	.st22{fill:#94A6B9;}
	.st23{fill:#2C326E;}
	.st24{fill:#C6ADD4;stroke:#FFFFFF;stroke-width:12.4395;}
	.st25{fill:#C6ADD4;stroke:#FFFFFF;stroke-width:9.7212;}
</style>
<circle class="st0" cx="250.2" cy="250.6" r="246.2"/>
<g>
	<path class="st1" d="M347.9,287.1c0-29.6-24-53.5-53.5-53.5c-1.8,0-3.7,0.1-5.5,0.3c0.1-1,0.2-2.1,0.2-3.2c0-16.6-13.4-30-30-30
		c-3.8,0-7.4,0.7-10.8,2c-3.9-12.7-15.7-21.9-29.7-21.9c-17.2,0-31.1,13.9-31.1,31.1c0,0.4,0,0.9,0,1.3c-4.4-4.4-10.4-7.2-17.2-7.2
		c-13.3,0-24.1,10.8-24.1,24.1c0,0.8,0,1.6,0.1,2.4c-2.9-0.5-5.8-0.7-8.9-0.7c-30.7,0-55.6,24.9-55.6,55.6s24.9,55.6,55.6,55.6
		c3.6,0,7.2-0.4,10.7-1c1.5,16.6,15.5,29.6,32.5,29.6c12.4,0,23.2-6.9,28.7-17.2c3.1,1.4,6.6,2.2,10.2,2.2c6.5,0,12.4-2.4,16.8-6.5
		c6.2,7.7,15.7,12.7,26.4,12.7c14.6,0,27.1-9.3,31.8-22.3C324.1,340.5,347.9,316.6,347.9,287.1"/>
	<path class="st2" d="M148.2,338.9c0.7,0,1.3,0.2,1.8,0.6c0.7,0.5,1.1,1.3,1.2,2.2c1.4,15.3,14.1,26.8,29.5,26.8
		c10.9,0,20.9-6,26.1-15.5c0.8-1.4,2.5-2,3.9-1.3c2.8,1.3,5.9,1.9,9,1.9c5.5,0,10.7-2,14.8-5.7c0.6-0.6,1.5-0.8,2.3-0.8
		c0.8,0.1,1.6,0.5,2.1,1.1c5.9,7.4,14.6,11.6,24,11.6c12.9,0,24.5-8.1,28.9-20.2c0.4-1.2,1.6-2,2.9-2c27.7-0.1,50.2-22.8,50.2-50.4
		c0-27.8-22.6-50.5-50.4-50.5c-1.7,0-3.5,0.1-5.1,0.3c-0.9,0.1-1.8-0.2-2.5-0.9c-0.7-0.7-1-1.6-0.9-2.5c0.1-1,0.1-1.9,0.1-2.9
		c0-14.8-12.1-26.9-26.9-26.9c-3.3,0-6.6,0.6-9.7,1.8c-0.8,0.3-1.7,0.3-2.4-0.1c-0.8-0.4-1.3-1-1.6-1.9
		c-3.7-11.8-14.4-19.7-26.8-19.7c-15.4,0-28,12.6-28,28c0,0.4,0,0.8,0,1.2c0,1.3-0.7,2.4-1.8,2.9c-1.2,0.5-2.5,0.2-3.4-0.7
		c-4-4-9.3-6.3-15-6.3c-11.6,0-21,9.4-21,21c0,0.7,0,1.4,0.1,2.1c0.1,0.9-0.3,1.9-0.9,2.5c-0.7,0.7-1.6,0.9-2.6,0.8
		c-2.8-0.4-5.6-0.7-8.4-0.7c-29,0-52.5,23.6-52.5,52.5c0,29,23.6,52.5,52.5,52.5c3.3,0,6.7-0.3,10.1-1
		C147.8,338.9,148,338.9,148.2,338.9 M180.7,374.7c-17.5,0-32-12.3-35.1-29.1c-2.7,0.4-5.4,0.6-8.1,0.6c-32.4,0-58.7-26.3-58.7-58.7
		s26.3-58.7,58.7-58.7c1.9,0,3.8,0.1,5.7,0.3c0.6-14.5,12.5-26.1,27.2-26.1c5.2,0,10.1,1.4,14.4,4.1c2.4-16.5,16.6-29.3,33.8-29.3
		c14,0,26.3,8.4,31.6,21.1c2.9-0.8,5.9-1.2,8.9-1.2c18.2,0,33,14.8,33.1,32.9c0.7,0,1.5,0,2.2,0c31.2,0,56.6,25.4,56.6,56.6
		c0,30.3-24.1,55.3-54.2,56.5c-5.8,13.4-19.1,22.3-33.9,22.3c-10.2,0-19.8-4.2-26.8-11.5c-4.8,3.4-10.5,5.3-16.4,5.3
		c-3.1,0-6-0.5-8.9-1.4C204.2,368.4,192.9,374.7,180.7,374.7"/>
	<path class="st3" d="M180.7,374.7c-10.5,0-20-4.5-26.5-11.7C160.7,370.2,170.2,374.7,180.7,374.7c12.2,0,23.5-6.2,30-16.4
		C204.2,368.5,192.9,374.7,180.7,374.7"/>
	<path class="st4" d="M180.7,368.5c-15.4,0-28-11.5-29.5-26.8c-0.1-0.9-0.5-1.6-1.2-2.2c-0.5-0.4-1.2-0.6-1.8-0.6
		c-0.2,0-0.4,0-0.6,0.1c-3.3,0.6-6.7,1-10.1,1c-24.2,0-44.7-16.5-50.7-38.8c0.1,0.1,0.1,0.2,0.2,0.3c7.4,9.8,17.5,13.5,29.4,14.9
		c12.3,1.4,27.3,0.1,36.9,9.4c5.8,5.6,8,13.9,13.8,19.5c2.6,2.6,5.7,3.6,8.9,3.6c4.1,0,8.4-1.6,12.2-3.6c4.9-2.5,9.3-5.6,14.9-5.6
		c0.4,0,0.8,0,1.3,0.1c5.5,0.5,10.3,2.3,15.6,2.3c1,0,2-0.1,3.1-0.2c4.8-0.7,8.9-2.5,13.3-2.5c0.5,0,1,0,1.5,0.1
		c0,0.9-0.1,1.7-0.1,2.6c0,0.1,0,0.3,0,0.4c-0.4,0-1.2-0.3-1,0c4,7.7-2.4,11.2-15,11.1c-0.7,0-1.3,0.1-2,0.1c-3.1,0-6.1-0.6-9-1.9
		c-0.4-0.2-0.8-0.3-1.2-0.3c-1.1,0-2.1,0.6-2.7,1.6C201.6,362.6,191.6,368.5,180.7,368.5 M271.4,358.6c-2.5-3.9-6.1-6.1-10.4-6.3
		c0.2-0.7,0.5-1.3,0.7-2c2.1,1,4.5,1.1,6.4,1.1c1.6,0,3.7-0.3,5.7-0.7c1.1,1.7,1.9,3.9,2,6.3C274.5,357.6,273,358.1,271.4,358.6
		 M246.1,354.8c-0.8-0.5-1.6-1.1-2.4-1.7c0.8-1.1,1.3-2.5,1.3-4c0-0.2,0-0.5,0-0.7c2-0.2,3.7-1.4,4.7-3
		C248.7,348.7,247.5,352,246.1,354.8 M287.1,348c-0.5-1.3-1.1-2.5-1.8-3.7c4.3-4.4,6.9-10.2,7-15.9c0.1-3.9-0.8-7.6-2.6-10.8
		c3.2-1.3,6.8-2,10.1-2.8c7-1.6,13.9-3.7,16.5-11.2c2.3-6.5,0.8-14.1-2.3-20.6l8.8-37.6c13.3,9.1,22,24.4,22,41.7
		c0,19.4-11.1,36.3-27.2,44.8c-2.2-2.2-5.3-3.5-9-3.6h-0.1c-3.9,0-9.5,1.7-14.6,9.4c-1,0.3-1.7,1-2.1,1.9
		C290.7,342.6,289.1,345.5,287.1,348"/>
	<path class="st3" d="M260.7,365.9c-0.1,0-0.1,0-0.2,0l0,0C260.5,365.9,260.6,365.9,260.7,365.9L260.7,365.9 M273.5,364.4
		L273.5,364.4c0.3-0.1,0.5-0.2,0.8-0.2l0,0C274,364.2,273.7,364.3,273.5,364.4 M242.8,360c-2-1.3-3.9-2.8-5.6-4.5l0,0
		C239,357.2,240.8,358.7,242.8,360L242.8,360 M137.4,346.1L137.4,346.1L137.4,346.1 M137.4,346.1
		C137.4,346.1,137.4,346.1,137.4,346.1C137.4,346.1,137.4,346.1,137.4,346.1 M137.3,346.1L137.3,346.1L137.3,346.1 M137.2,346.1
		L137.2,346.1L137.2,346.1 M137.2,346.1C137.2,346.1,137.2,346.1,137.2,346.1C137.2,346.1,137.2,346.1,137.2,346.1 M137.1,346.1
		C137.1,346.1,137.1,346.1,137.1,346.1C137.1,346.1,137.1,346.1,137.1,346.1 M137.1,346.1C137.1,346.1,137.1,346.1,137.1,346.1
		C137.1,346.1,137.1,346.1,137.1,346.1 M137.1,346.1C137,346.1,137,346.1,137.1,346.1C137,346.1,137,346.1,137.1,346.1 M137,346.1
		C137,346.1,137,346.1,137,346.1C137,346.1,137,346.1,137,346.1 M137,346.1C137,346.1,136.9,346.1,137,346.1
		C136.9,346.1,136.9,346.1,137,346.1 M136.9,346.1C136.9,346.1,136.9,346.1,136.9,346.1C136.9,346.1,136.9,346.1,136.9,346.1
		 M136.9,346.1C136.9,346.1,136.8,346.1,136.9,346.1C136.8,346.1,136.9,346.1,136.9,346.1 M136.8,346.1
		C136.8,346.1,136.8,346.1,136.8,346.1C136.8,346.1,136.8,346.1,136.8,346.1 M136.8,346.1C136.8,346.1,136.7,346.1,136.8,346.1
		C136.7,346.1,136.8,346.1,136.8,346.1 M136.7,346.1C136.7,346.1,136.7,346.1,136.7,346.1C136.7,346.1,136.7,346.1,136.7,346.1
		 M136.7,346.1C136.7,346.1,136.7,346.1,136.7,346.1C136.7,346.1,136.7,346.1,136.7,346.1 M136.6,346.1
		C136.6,346.1,136.6,346.1,136.6,346.1C136.6,346.1,136.6,346.1,136.6,346.1 M136.6,346.1C136.6,346.1,136.6,346.1,136.6,346.1
		C136.6,346.1,136.6,346.1,136.6,346.1 M136.5,346.1C136.5,346.1,136.5,346.1,136.5,346.1C136.5,346.1,136.5,346.1,136.5,346.1
		 M136.5,346.1C136.5,346.1,136.5,346.1,136.5,346.1C136.5,346.1,136.5,346.1,136.5,346.1 M136.4,346.1
		C136.4,346.1,136.4,346.1,136.4,346.1C136.4,346.1,136.4,346.1,136.4,346.1 M136.4,346.1C136.4,346.1,136.4,346.1,136.4,346.1
		C136.4,346.1,136.4,346.1,136.4,346.1 M136.3,346.1C136.3,346.1,136.3,346.1,136.3,346.1C136.3,346.1,136.3,346.1,136.3,346.1
		 M136.3,346.1C136.3,346.1,136.3,346.1,136.3,346.1C136.3,346.1,136.3,346.1,136.3,346.1 M136.2,346.1
		C136.2,346.1,136.2,346.1,136.2,346.1C136.2,346.1,136.2,346.1,136.2,346.1 M136.2,346.1L136.2,346.1L136.2,346.1 M136.1,346.1
		L136.1,346.1L136.1,346.1 M136.1,346.1C136.1,346.1,136.1,346.1,136.1,346.1C136.1,346.1,136.1,346.1,136.1,346.1 M136,346.1
		L136,346.1C136,346.1,136,346.1,136,346.1 M136,346.1C136,346.1,136,346.1,136,346.1C136,346.1,136,346.1,136,346.1 M136,346.1
		C135.9,346.1,135.9,346.1,136,346.1C135.9,346.1,135.9,346.1,136,346.1 M135.9,346.1C135.9,346.1,135.9,346.1,135.9,346.1
		C135.9,346.1,135.9,346.1,135.9,346.1 M135.9,346.1L135.9,346.1C135.9,346.1,135.9,346.1,135.9,346.1 M135.8,346.1L135.8,346.1
		L135.8,346.1 M135.8,346.1L135.8,346.1L135.8,346.1 M135.7,346.1L135.7,346.1L135.7,346.1 M135.7,346.1L135.7,346.1L135.7,346.1
		 M135.5,346.1L135.5,346.1L135.5,346.1 M135.4,346.1L135.4,346.1L135.4,346.1 M135.4,346.1L135.4,346.1L135.4,346.1 M306.7,342.3
		L306.7,342.3c0.6-0.1,1.1-0.3,1.7-0.4l0,0C307.9,342.1,307.3,342.2,306.7,342.3 M320.8,337.1L320.8,337.1c17.8-9.4,30-28,30.2-49.4
		C350.7,309.1,338.5,327.7,320.8,337.1"/>
	<path class="st3" d="M350.9,284.8c-0.5-11.6-4.4-22.3-10.9-31.1C346.5,262.5,350.5,273.2,350.9,284.8"/>
	<path class="st2" d="M148.2,338.9c0.7,0,1.3,0.2,1.8,0.6c0.7,0.5,1.1,1.3,1.2,2.2c1.4,15.3,14.1,26.8,29.5,26.8
		c10.9,0,20.9-6,26.1-15.5c0.8-1.4,2.5-2,3.9-1.3c2.8,1.3,5.9,1.9,9,1.9c5.5,0,10.7-2,14.8-5.7c0.6-0.6,1.5-0.8,2.3-0.8
		c0.8,0.1,1.6,0.5,2.1,1.1c5.9,7.4,14.6,11.6,24,11.6c12.9,0,24.5-8.1,28.9-20.2c0.4-1.2,1.6-2,2.9-2c27.7-0.1,50.2-22.8,50.2-50.4
		c0-27.8-22.6-50.5-50.4-50.5c-1.7,0-3.5,0.1-5.1,0.3c-0.9,0.1-1.8-0.2-2.5-0.9c-0.7-0.7-1-1.6-0.9-2.5c0.1-1,0.1-1.9,0.1-2.9
		c0-14.8-12.1-26.9-26.9-26.9c-3.3,0-6.6,0.6-9.7,1.8c-0.8,0.3-1.7,0.3-2.4-0.1c-0.8-0.4-1.3-1-1.6-1.9
		c-3.7-11.8-14.4-19.7-26.8-19.7c-15.4,0-28,12.6-28,28c0,0.4,0,0.8,0,1.2c0,1.3-0.7,2.4-1.8,2.9c-1.2,0.5-2.5,0.2-3.4-0.7
		c-4-4-9.3-6.3-15-6.3c-11.6,0-21,9.4-21,21c0,0.7,0,1.4,0.1,2.1c0.1,0.9-0.3,1.9-0.9,2.5c-0.7,0.7-1.6,0.9-2.6,0.8
		c-2.8-0.4-5.6-0.7-8.4-0.7c-29,0-52.5,23.6-52.5,52.5c0,29,23.6,52.5,52.5,52.5c3.3,0,6.7-0.3,10.1-1
		C147.8,338.9,148,338.9,148.2,338.9 M180.7,374.7c-17.5,0-32-12.3-35.1-29.1c-2.7,0.4-5.4,0.6-8.1,0.6c-32.4,0-58.7-26.3-58.7-58.7
		s26.3-58.7,58.7-58.7c1.9,0,3.8,0.1,5.7,0.3c0.6-14.5,12.5-26.1,27.2-26.1c5.2,0,10.1,1.4,14.4,4.1c2.4-16.5,16.6-29.3,33.8-29.3
		c14,0,26.3,8.4,31.6,21.1c2.9-0.8,5.9-1.2,8.9-1.2c18.2,0,33,14.8,33.1,32.9c0.7,0,1.5,0,2.2,0c31.2,0,57.5,26,57.5,57.2
		c0,30.3-25,54.6-55.1,55.9c-5.8,13.4-19.1,22.3-33.9,22.3c-10.2,0-19.8-4.2-26.8-11.5c-4.8,3.4-10.5,5.3-16.4,5.3
		c-3.1,0-7.4-4.1-8.9-1.4C203.9,370.6,192.9,374.7,180.7,374.7"/>
	<path class="st2" d="M327.5,269.3c3.3,10.8,5.4,22.3,2.2,33.4c-0.6,2.1,2.7,3,3.3,0.9c3.3-11.7,1.2-23.8-2.2-35.2
		C330.1,266.4,326.9,267.3,327.5,269.3L327.5,269.3z"/>
	<path class="st2" d="M326.1,320.9c1.6-2.2,3.3-4.3,4.5-6.7c1-1.9-1.9-3.6-2.9-1.7c-1.2,2.4-2.9,4.6-4.5,6.7
		C321.9,320.9,324.8,322.6,326.1,320.9L326.1,320.9z"/>
	<path class="st2" d="M97,302.7c-5-12.4-4.3-28.7,3.8-39.7c1.3-1.8-1.6-3.4-2.9-1.7c-8.5,11.6-9.4,29.2-4.1,42.3
		C94.6,305.6,97.8,304.7,97,302.7L97,302.7z"/>
	<path class="st2" d="M229.6,192c0.9,0.9,1.9,1.8,2.5,3c0.4,0.8,1.5,1.1,2.3,0.6c0.8-0.5,1-1.5,0.6-2.3c-0.8-1.4-1.9-2.6-3.1-3.7
		C230.5,188.1,228.1,190.4,229.6,192L229.6,192z"/>
	<path class="st2" d="M179.7,361.6c3.6,0,6.9-0.8,9.6-3.3c1.6-1.5-0.8-3.9-2.4-2.4c-2,1.9-4.6,2.3-7.2,2.3
		C177.5,358.3,177.5,361.6,179.7,361.6L179.7,361.6z"/>
	<path class="st5" d="M224.1,117.7c-0.1,0-0.2-0.1-0.2-0.1l-1.2-0.8l-0.1-0.1l-2.8-3.4c-0.1-0.2-0.2-0.4-0.1-0.6
		c0-0.2,0.2-0.4,0.4-0.5c0.1,0,0.1-0.1,0.2-0.1c0.2-0.1,0.4-0.2,0.6-0.3c0.4-0.1,0.7-0.2,1.1-0.2l0.1,0c0.4,0,0.8-0.1,1.2,0
		c0.2,0,0.4,0.2,0.5,0.3l0.8,1.4l0.1,0.1c0.8,2.2,0.4,3.7,0.4,3.8c-0.1,0.2-0.2,0.4-0.5,0.5C224.3,117.7,224.2,117.7,224.1,117.7
		L224.1,117.7z"/>
	<path class="st2" d="M223.3,110.8c-0.5-0.1-1-0.1-1.4-0.1l-0.1,0c-0.4,0-0.8,0-1.3,0.2c-0.3,0.1-0.6,0.3-0.8,0.4l-0.2,0.1
		c-0.4,0.2-0.7,0.6-0.8,1c-0.1,0.4,0,0.9,0.3,1.2l2.8,3.4c0.1,0.1,0.2,0.2,0.3,0.3l1.2,0.8c0.2,0.1,0.3,0.2,0.5,0.2
		c0.3,0.1,0.6,0,0.8,0c0.4-0.2,0.8-0.5,0.9-1c0-0.2,0.4-1.8-0.4-4.2c0-0.1-0.1-0.2-0.1-0.3l-0.8-1.4
		C224.1,111.1,223.7,110.9,223.3,110.8 M223,112.2l0.8,1.4c0.7,2.1,0.4,3.4,0.4,3.4l-1.2-0.8l-2.8-3.4c0.2-0.1,0.5-0.3,0.8-0.4
		c0.3-0.1,0.6-0.1,0.9-0.1C222.3,112.2,222.7,112.1,223,112.2"/>
	<path class="st6" d="M203.4,271.2c-3.9-0.9-6.3-4.8-5.4-8.7l0.3-1.4c0.9-3.9,4.8-6.3,8.7-5.4l22.2,5.2c3.9,0.9,6.3,4.8,5.4,8.7
		l-0.3,1.4c-0.9,3.9-4.8,6.3-8.7,5.4L203.4,271.2"/>
	<path class="st2" d="M229.6,259.5l-22.2-5.2c-4.7-1.1-9.3,1.8-10.4,6.5l-0.3,1.4c-1.1,4.7,1.8,9.3,6.5,10.4l22.2,5.2
		c4.7,1.1,9.3-1.8,10.4-6.5l0.3-1.4C237.1,265.3,234.2,260.6,229.6,259.5 M228.9,262.4c3.1,0.7,5,3.8,4.3,6.9l-0.3,1.4
		c-0.7,3.1-3.8,5-6.9,4.3l-22.2-5.2c-3.1-0.7-5-3.8-4.3-6.9l0.3-1.4c0.7-3.1,3.8-5,6.9-4.3L228.9,262.4"/>
	<path class="st7" d="M122.5,245.6c-0.8-0.2-1.3-1-1.1-1.7L151,117.4c0.2-0.8,1-1.3,1.7-1.1l92.1,21.6c0.8,0.2,1.3,1,1.1,1.7
		l-29.6,126.4c-0.2,0.8-1,1.3-1.7,1.1L122.5,245.6"/>
	<path class="st2" d="M245.2,136.5l-92.1-21.6c-1.6-0.4-3.1,0.6-3.5,2.2L120,243.5c-0.4,1.6,0.6,3.1,2.2,3.5l92.1,21.6
		c1.6,0.4,3.1-0.6,3.5-2.2L247.3,140C247.7,138.4,246.7,136.9,245.2,136.5 M244.5,139.3l-29.6,126.4l-92.1-21.6l29.6-126.4
		L244.5,139.3"/>
	<path class="st7" d="M217.5,267.8c-0.8-0.2-1.3-1-1.1-1.7L246,139.7c0.2-0.8,1-1.3,1.7-1.1l92.1,21.6c0.8,0.2,1.3,1,1.1,1.7
		l-29.6,126.4c-0.2,0.8-1,1.3-1.7,1.1L217.5,267.8"/>
	<path class="st2" d="M340.2,158.8l-92.1-21.6c-1.6-0.4-3.1,0.6-3.5,2.2L215,265.8c-0.4,1.6,0.6,3.1,2.2,3.5l92.1,21.6
		c1.6,0.4,3.1-0.6,3.5-2.2l29.6-126.4C342.7,160.7,341.7,159.1,340.2,158.8 M339.5,161.6L309.9,288l-92.1-21.6L247.4,140
		L339.5,161.6"/>
	<path class="st6" d="M340.2,158.8l-5.6-1.3l0,0L340.2,158.8 M160.6,116.7l-7.5-1.8L160.6,116.7L160.6,116.7"/>
	<path class="st8" d="M206,263.7l-83.2-19.5l29.6-126.4l6.8,1.6c-2.7,5.3-5.2,10.8-7.4,16.4c-1.6,4.1-2.9,8.1-3.8,12.5
		c-0.8,3.9-1.3,7.8-2.2,11.7c-1.7,7.4-4.4,14.6-6,22.1c-1.5,7-2.1,14.3-2.7,21.4c-0.6,6.6-0.5,13.2,1.2,19.7c0.5,2,1.3,3.8,2.2,5.4
		l-1,4.4c-0.2,0.9,0.3,1.8,1.1,2.2l20.4,9c3.5,2.1,7.1,4.1,10.7,6c3.3,1.7,6.6,3.2,10,4.5c1.4,0.6,2.7,1.1,4.1,1.6
		c-0.5-0.2-0.7-0.3-0.7-0.3c0,0,3,1.1,3.7,1.4l-0.1,0c0.2,0.1,0.3,0.1,0.3,0.1s-0.1,0-0.2-0.1c2,0.7,4,1.4,6,2.1
		c1.5,0.5,3,0.9,4.5,1.4L206,263.7 M186.3,256.3c-0.1,0-0.2-0.1-0.3-0.1C186,256.2,186.1,256.2,186.3,256.3"/>
	<path class="st9" d="M207.7,267l-8.3-1.9l-3-0.7L122.1,247c-1.3-0.3-2.2-1.5-2.2-2.8c0-0.2,0-0.4,0.1-0.7l29.6-126.4
		c0.3-1.3,1.5-2.2,2.8-2.2c0.2,0,0.4,0,0.7,0.1l0,0l7.5,1.8c-0.5,0.9-0.9,1.8-1.4,2.6l-6.8-1.6l-29.6,126.4l83.2,19.5l4.5,2
		C209.6,266.1,208.6,266.5,207.7,267"/>
	<path class="st8" d="M309.9,288l-51.1-12c0,0-0.1-0.1-0.1-0.1c-0.8-0.9-1.6-1.8-2.4-2.6c2,0.3,3.9,0.7,5.9,1.2
		c6.1,1.5,12.4,3.1,18.7,3.1c1.3,0,2.6-0.1,3.9-0.2c7.4-0.9,14-3.9,19.3-9.1c4.5-4.3,7-10.1,9.1-15.8c1.7-4.6,2.6-9.5,3.7-14.3
		c0.5-2.3,1.1-4.6,1.8-6.8c0.2-0.8,0.5-1.6,0.8-2.4c0.3-0.8,0.9-2.5,1.2-3.1c0.5-1.2,0.9-2.4,1.3-3.6c5.4-14.9,8.5-30.1,10.5-45.8
		c0.7-5.4,1.4-10.7,1.9-16.1l5.2,1.2L309.9,288"/>
	<path class="st9" d="M309.9,290.9c-0.2,0-0.4,0-0.7-0.1L261,279.6c-0.7-1.3-1.5-2.5-2.3-3.5l51.1,12l29.6-126.4l-5.2-1.2
		c0.1-1,0.2-1.9,0.3-2.9l5.6,1.3c1.3,0.3,2.2,1.5,2.2,2.8c0,0.2,0,0.4-0.1,0.7l-18,76.8l-1.5,6.4L314,283l-1.3,5.6
		C312.4,290,311.2,290.9,309.9,290.9"/>
	<path class="st10" d="M216.1,267l-0.2-0.1l-74.8-32.8c-0.4-0.2-0.7-0.7-0.6-1.1l29.6-126.4c0.1-0.3,0.2-0.5,0.5-0.6
		c0.2-0.1,0.4-0.1,0.7-0.1l0.2,0.1l74.8,32.8c0.4,0.2,0.7,0.7,0.6,1.1l-29.6,126.4c-0.1,0.3-0.2,0.5-0.5,0.6
		C216.6,267.1,216.3,267.1,216.1,267"/>
	<path class="st2" d="M171.6,105c-0.4-0.1-0.9,0-1.3,0.2c-0.5,0.3-0.9,0.7-1,1.3l-29.6,126.4c-0.2,0.9,0.3,1.8,1.1,2.2l74.8,32.8
		c0.1,0,0.2,0.1,0.3,0.1c0.4,0.1,0.9,0,1.3-0.2c0.5-0.3,0.9-0.7,1-1.3l29.6-126.4c0.2-0.9-0.3-1.8-1.1-2.2l-74.8-32.8
		C171.8,105.1,171.7,105,171.6,105 M171.1,106.9l74.8,32.8l-29.6,126.4l-74.8-32.8L171.1,106.9"/>
	<path class="st10" d="M216.1,267c-0.2,0-0.4-0.2-0.5-0.4c-0.2-0.2-0.2-0.5-0.2-0.8L245,139.4c0.1-0.5,0.5-0.8,1-0.7l81.6,3.9l0.2,0
		c0.2,0,0.4,0.2,0.6,0.4c0.2,0.2,0.2,0.5,0.2,0.8l-29.6,126.4c-0.1,0.5-0.5,0.8-1,0.7l-81.6-3.9L216.1,267L216.1,267z"/>
	<path class="st2" d="M328,141.7c-0.1,0-0.2,0-0.3,0l-81.6-3.9c-0.9,0-1.8,0.6-2,1.5l-29.6,126.4c-0.1,0.6,0,1.1,0.3,1.6
		c0.3,0.4,0.7,0.6,1.1,0.7c0.1,0,0.2,0,0.3,0l81.6,3.9c0.9,0,1.8-0.6,2-1.5L329.5,144c0.1-0.6,0-1.1-0.3-1.6
		C328.9,142,328.5,141.8,328,141.7L328,141.7z M327.6,143.6L297.9,270l-81.6-3.9L246,139.7L327.6,143.6"/>
	<path class="st11" d="M215.4,266.9c-0.2,0-0.4-0.2-0.5-0.3c-0.2-0.2-0.3-0.5-0.2-0.8l29.6-126.4c0.1-0.4,0.5-0.7,0.9-0.7l76.5-5.1
		c0.1,0,0.2,0,0.3,0c0.2,0,0.4,0.2,0.5,0.3c0.2,0.2,0.3,0.5,0.2,0.8L293.1,261c-0.1,0.4-0.5,0.7-0.9,0.7l-76.5,5.1
		C215.6,266.9,215.5,266.9,215.4,266.9L215.4,266.9z"/>
	<path class="st2" d="M322.2,132.5c-0.2,0-0.4-0.1-0.6,0l-76.5,5.1c-0.8,0.1-1.6,0.7-1.7,1.5l-29.6,126.4c-0.1,0.6,0,1.2,0.4,1.7
		c0.3,0.3,0.6,0.5,1,0.6c0.2,0,0.4,0.1,0.6,0l76.5-5.1c0.8-0.1,1.6-0.7,1.7-1.5l29.7-126.4c0.1-0.6,0-1.2-0.4-1.7
		C323,132.8,322.6,132.6,322.2,132.5L322.2,132.5z M321.8,134.4l-29.6,126.4l-76.5,5.1l29.6-126.4L321.8,134.4"/>
	<path class="st11" d="M216.8,267.2c-0.1,0-0.2-0.1-0.3-0.1l-66.3-38.6c-0.4-0.2-0.6-0.6-0.5-1.1L179.5,101c0.1-0.3,0.3-0.5,0.6-0.7
		c0.2-0.1,0.4-0.1,0.6,0c0.1,0,0.2,0.1,0.3,0.1l66.3,38.6c0.4,0.2,0.6,0.6,0.5,1.1L218,266.5c-0.1,0.3-0.3,0.5-0.6,0.7
		C217.3,267.2,217,267.2,216.8,267.2"/>
	<path class="st2" d="M180.9,99.3c-0.4-0.1-0.8-0.1-1.2,0.1c-0.6,0.2-1,0.7-1.1,1.3l-29.6,126.4c-0.2,0.8,0.2,1.7,0.9,2.1l66.3,38.6
		c0.2,0.1,0.3,0.2,0.5,0.2c0.4,0.1,0.8,0.1,1.2-0.1c0.6-0.2,1-0.7,1.1-1.3l29.6-126.4c0.2-0.8-0.2-1.7-0.9-2.1l-66.3-38.6
		C181.2,99.4,181.1,99.4,180.9,99.3 M180.4,101.2l66.3,38.6l-29.6,126.4l-66.3-38.6L180.4,101.2"/>
	<path class="st12" d="M216,267c-0.2,0-0.3-0.1-0.5-0.3c-0.2-0.2-0.3-0.6-0.2-0.9l29.6-126.4c0.1-0.4,0.4-0.7,0.8-0.7l69.8-12.3
		c0.1,0,0.3,0,0.4,0c0.2,0,0.3,0.1,0.5,0.3c0.2,0.2,0.3,0.6,0.2,0.9l-29.6,126.4c-0.1,0.4-0.4,0.7-0.8,0.7L216.4,267
		C216.2,267,216.1,267,216,267L216,267z"/>
	<path class="st2" d="M316,125.4c-0.2-0.1-0.5-0.1-0.8,0l-69.8,12.3c-0.8,0.1-1.4,0.7-1.5,1.5l-29.6,126.4c-0.1,0.6,0,1.3,0.5,1.8
		c0.3,0.3,0.6,0.5,1,0.6c0.2,0.1,0.5,0.1,0.8,0l69.8-12.3c0.8-0.1,1.4-0.7,1.5-1.5l29.6-126.4c0.1-0.6,0-1.3-0.5-1.8
		C316.7,125.7,316.4,125.5,316,125.4L316,125.4z M315.6,127.3L286,253.7l-69.8,12.3l29.6-126.4L315.6,127.3"/>
	<path class="st12" d="M216.2,267.1c-0.1,0-0.2-0.1-0.4-0.2l-57-42.1c-0.3-0.2-0.5-0.6-0.4-1l29.6-126.4c0.1-0.3,0.3-0.6,0.6-0.7
		c0.2-0.1,0.4-0.1,0.6,0c0.1,0,0.2,0.1,0.4,0.2l57,42.1c0.3,0.2,0.5,0.6,0.4,1l-29.7,126.4c-0.1,0.3-0.3,0.6-0.6,0.7
		C216.6,267.1,216.4,267.1,216.2,267.1"/>
	<path class="st2" d="M189.5,95.8c-0.4-0.1-0.7-0.1-1.1,0.1c-0.6,0.2-1.1,0.7-1.2,1.4l-29.6,126.4c-0.2,0.8,0.1,1.5,0.7,2l57,42.1
		c0.2,0.2,0.5,0.3,0.7,0.3c0.4,0.1,0.7,0.1,1.1-0.1c0.6-0.2,1.1-0.7,1.2-1.4L248,140.1c0.2-0.8-0.1-1.5-0.7-2l-57-42.1
		C190,95.9,189.8,95.8,189.5,95.8 M189.1,97.6l57,42.1l-29.6,126.4l-57-42.1L189.1,97.6"/>
	<path class="st13" d="M216.4,267.1c-0.2,0-0.3-0.1-0.4-0.2c-0.3-0.2-0.4-0.6-0.3-0.9l29.6-126.4c0.1-0.3,0.3-0.6,0.6-0.7l63.2-20.8
		c0.2-0.1,0.4-0.1,0.5,0c0.2,0,0.3,0.1,0.4,0.2c0.3,0.2,0.4,0.6,0.3,0.9l-29.6,126.4c-0.1,0.3-0.3,0.6-0.6,0.7l-63.2,20.8
		C216.8,267.1,216.6,267.1,216.4,267.1L216.4,267.1z"/>
	<path class="st2" d="M309.9,117.1c-0.3-0.1-0.7-0.1-1,0l-63.2,20.8c-0.6,0.2-1.1,0.7-1.3,1.4l-29.6,126.4c-0.2,0.7,0.1,1.4,0.6,1.9
		c0.2,0.2,0.5,0.4,0.9,0.5c0.3,0.1,0.7,0.1,1,0l63.2-20.8c0.6-0.2,1.1-0.7,1.3-1.4l29.6-126.4c0.2-0.7-0.1-1.4-0.6-1.9
		C310.5,117.3,310.2,117.1,309.9,117.1L309.9,117.1z M309.5,118.9l-29.6,126.4l-63.2,20.8l29.6-126.4L309.5,118.9"/>
	<path class="st13" d="M215.8,267c-0.2,0-0.3-0.1-0.5-0.3L168,220c-0.2-0.2-0.3-0.6-0.3-0.9l29.6-126.4c0.1-0.3,0.3-0.6,0.7-0.7
		c0.2,0,0.3,0,0.5,0c0.2,0,0.3,0.1,0.5,0.3l47.4,46.7c0.2,0.2,0.3,0.6,0.3,0.9L217,266.2c-0.1,0.3-0.3,0.6-0.7,0.7
		C216.1,267,216,267,215.8,267"/>
	<path class="st2" d="M198.8,91c-0.3-0.1-0.7-0.1-1,0c-0.7,0.2-1.2,0.7-1.3,1.4l-29.6,126.4c-0.1,0.7,0,1.3,0.5,1.8l47.4,46.7
		c0.3,0.3,0.6,0.4,0.9,0.5c0.3,0.1,0.7,0.1,1,0c0.7-0.2,1.2-0.7,1.3-1.4L247.5,140c0.2-0.7,0-1.3-0.5-1.8l-47.4-46.7
		C199.4,91.2,199.1,91.1,198.8,91 M198.3,92.9l47.4,46.7L216,266l-47.4-46.7L198.3,92.9"/>
	<path class="st2" d="M239.3,144.3c-0.2,0-0.3-0.1-0.4-0.2l-39-36.4c-0.4-0.4-0.4-1,0-1.4c0.4-0.4,1-0.4,1.4,0l39,36.4
		c0.4,0.4,0.4,1,0,1.4C239.9,144.3,239.6,144.4,239.3,144.3"/>
	<path class="st2" d="M237.8,150.7c-0.2,0-0.3-0.1-0.4-0.2l-39-36.4c-0.4-0.4-0.4-1,0-1.4c0.4-0.4,1-0.4,1.4,0l39,36.4
		c0.4,0.4,0.4,1,0,1.4C238.4,150.7,238.1,150.8,237.8,150.7"/>
	<path class="st2" d="M236.2,157.2c-0.2,0-0.3-0.1-0.4-0.2l-39-36.4c-0.4-0.4-0.4-1,0-1.4c0.4-0.4,1-0.4,1.4,0l39,36.4
		c0.4,0.4,0.4,1,0,1.4C236.9,157.2,236.6,157.3,236.2,157.2"/>
	<path class="st2" d="M234.7,163.6c-0.2,0-0.3-0.1-0.4-0.2l-39-36.4c-0.4-0.4-0.4-1,0-1.4c0.4-0.4,1-0.4,1.4,0l39,36.4
		c0.4,0.4,0.4,1,0,1.4C235.4,163.6,235,163.7,234.7,163.6"/>
	<path class="st2" d="M233.2,170.1c-0.2,0-0.3-0.1-0.4-0.2l-39-36.4c-0.4-0.4-0.4-1,0-1.4s1-0.4,1.4,0l39,36.4c0.4,0.4,0.4,1,0,1.4
		C233.9,170.1,233.5,170.2,233.2,170.1"/>
	<path class="st2" d="M231.7,176.6c-0.2,0-0.3-0.1-0.4-0.2l-39-36.4c-0.4-0.4-0.4-1,0-1.4c0.4-0.4,1-0.4,1.4,0l39,36.4
		c0.4,0.4,0.4,1,0,1.4C232.4,176.5,232,176.6,231.7,176.6"/>
	<path class="st2" d="M230.2,183c-0.2,0-0.3-0.1-0.4-0.2l-39-36.4c-0.4-0.4-0.4-1,0-1.4c0.4-0.4,1-0.4,1.4,0l39,36.4
		c0.4,0.4,0.4,1,0,1.4C230.9,183,230.5,183.1,230.2,183"/>
	<path class="st2" d="M228.7,189.5c-0.2,0-0.3-0.1-0.4-0.2l-39-36.4c-0.4-0.4-0.4-1,0-1.4c0.4-0.4,1-0.4,1.4,0l39,36.4
		c0.4,0.4,0.4,1,0,1.4C229.3,189.5,229,189.5,228.7,189.5"/>
	<path class="st2" d="M227.2,195.9c-0.2,0-0.3-0.1-0.4-0.2l-39-36.4c-0.4-0.4-0.4-1,0-1.4c0.4-0.4,1-0.4,1.4,0l39,36.4
		c0.4,0.4,0.4,1,0,1.4C227.8,195.9,227.5,196,227.2,195.9"/>
	<path class="st2" d="M225.6,202.4c-0.2,0-0.3-0.1-0.4-0.2l-39-36.4c-0.4-0.4-0.4-1,0-1.4c0.4-0.4,1-0.4,1.4,0l39,36.4
		c0.4,0.4,0.4,1,0,1.4C226.3,202.4,226,202.5,225.6,202.4"/>
	<path class="st2" d="M224.1,208.8c-0.2,0-0.3-0.1-0.4-0.2l-39-36.4c-0.4-0.4-0.4-1,0-1.4c0.4-0.4,1-0.4,1.4,0l39,36.4
		c0.4,0.4,0.4,1,0,1.4C224.8,208.8,224.4,208.9,224.1,208.8"/>
	<path class="st2" d="M222.6,215.3c-0.2,0-0.3-0.1-0.4-0.2l-39-36.4c-0.4-0.4-0.4-1,0-1.4s1-0.4,1.4,0l39,36.4c0.4,0.4,0.4,1,0,1.4
		C223.3,215.3,222.9,215.4,222.6,215.3"/>
	<path class="st2" d="M221.1,221.7c-0.2,0-0.3-0.1-0.4-0.2l-39-36.4c-0.4-0.4-0.4-1,0-1.4c0.4-0.4,1-0.4,1.4,0l39,36.4
		c0.4,0.4,0.4,1,0,1.4C221.8,221.7,221.4,221.8,221.1,221.7"/>
	<path class="st2" d="M219.6,228.2c-0.2,0-0.3-0.1-0.4-0.2l-39-36.4c-0.4-0.4-0.4-1,0-1.4s1-0.4,1.4,0l39,36.4c0.4,0.4,0.4,1,0,1.4
		C220.3,228.2,219.9,228.3,219.6,228.2"/>
	<path class="st2" d="M218.1,234.7c-0.2,0-0.3-0.1-0.4-0.2l-39-36.4c-0.4-0.4-0.4-1,0-1.4c0.4-0.4,1-0.4,1.4,0l39,36.4
		c0.4,0.4,0.4,1,0,1.4C218.8,234.6,218.4,234.7,218.1,234.7L218.1,234.7z"/>
	<path class="st2" d="M216.6,241.1c-0.2,0-0.3-0.1-0.4-0.2l-39-36.4c-0.4-0.4-0.4-1,0-1.4c0.4-0.4,1-0.4,1.4,0l39,36.4
		c0.4,0.4,0.4,1,0,1.4C217.2,241.1,216.9,241.2,216.6,241.1L216.6,241.1z"/>
	<path class="st2" d="M215,247.6c-0.2,0-0.3-0.1-0.4-0.2l-39-36.4c-0.4-0.4-0.4-1,0-1.4c0.4-0.4,1-0.4,1.4,0l39,36.4
		c0.4,0.4,0.4,1,0,1.4C215.7,247.5,215.4,247.6,215,247.6L215,247.6z"/>
	<path class="st2" d="M213.5,254c-0.2,0-0.3-0.1-0.4-0.2l-39-36.4c-0.4-0.4-0.4-1,0-1.4c0.4-0.4,1-0.4,1.4,0l39,36.4
		c0.4,0.4,0.4,1,0,1.4C214.2,254,213.9,254.1,213.5,254L213.5,254z"/>
	<path class="st2" d="M250.4,145.1c-0.3-0.1-0.6-0.3-0.7-0.7c-0.1-0.5,0.1-1,0.6-1.2l51.1-15.3c0.5-0.1,1,0.1,1.2,0.6
		c0.2,0.5-0.1,1-0.6,1.2L250.9,145C250.8,145.1,250.6,145.1,250.4,145.1L250.4,145.1z"/>
	<path class="st2" d="M248.9,151.5c-0.3-0.1-0.6-0.3-0.7-0.7c-0.2-0.5,0.1-1,0.6-1.2l51.1-15.3c0.5-0.2,1,0.1,1.2,0.6
		c0.1,0.5-0.1,1-0.6,1.2l-51.1,15.3C249.2,151.6,249.1,151.6,248.9,151.5L248.9,151.5z"/>
	<path class="st2" d="M247.4,158c-0.3-0.1-0.6-0.3-0.7-0.7c-0.2-0.5,0.1-1,0.6-1.2l51.1-15.3c0.5-0.1,1,0.1,1.2,0.6
		c0.2,0.5-0.1,1-0.6,1.2L247.9,158C247.7,158,247.6,158,247.4,158L247.4,158z"/>
	<path class="st2" d="M245.9,164.4c-0.3-0.1-0.6-0.3-0.7-0.7c-0.2-0.5,0.1-1,0.6-1.2l51.1-15.3c0.5-0.1,1,0.1,1.2,0.6
		c0.1,0.5-0.1,1-0.7,1.2l-51.1,15.3C246.2,164.5,246,164.5,245.9,164.4L245.9,164.4z"/>
	<path class="st2" d="M244.4,170.9c-0.3-0.1-0.6-0.3-0.7-0.7c-0.2-0.5,0.1-1,0.6-1.2l51.1-15.3c0.5-0.1,1,0.1,1.2,0.6
		c0.1,0.5-0.1,1-0.6,1.2l-51.1,15.3C244.7,170.9,244.5,170.9,244.4,170.9L244.4,170.9z"/>
	<path class="st2" d="M242.9,177.3c-0.3-0.1-0.6-0.3-0.7-0.7c-0.1-0.5,0.1-1,0.6-1.2l51.1-15.3c0.5-0.1,1,0.1,1.2,0.6
		c0.2,0.5-0.1,1-0.6,1.2l-51.1,15.3C243.2,177.4,243,177.4,242.9,177.3L242.9,177.3z"/>
	<path class="st2" d="M241.3,183.8c-0.3-0.1-0.6-0.3-0.7-0.7c-0.1-0.5,0.1-1,0.6-1.2l51.1-15.3c0.5-0.1,1,0.1,1.2,0.6
		c0.2,0.5-0.1,1-0.6,1.2l-51.1,15.3C241.7,183.8,241.5,183.8,241.3,183.8L241.3,183.8z"/>
	<path class="st2" d="M239.8,190.3c-0.3-0.1-0.6-0.3-0.7-0.7c-0.1-0.5,0.1-1,0.7-1.2l51.1-15.3c0.5-0.1,1,0.1,1.2,0.7
		c0.2,0.5-0.1,1-0.6,1.2l-51.1,15.3C240.2,190.3,240,190.3,239.8,190.3L239.8,190.3z"/>
	<path class="st2" d="M238.3,196.7c-0.3-0.1-0.6-0.3-0.7-0.7c-0.1-0.5,0.1-1,0.6-1.2l51.1-15.3c0.5-0.1,1,0.1,1.2,0.7
		c0.1,0.5-0.1,1-0.6,1.2l-51.1,15.3C238.6,196.7,238.5,196.7,238.3,196.7L238.3,196.7z"/>
	<path class="st2" d="M236.8,203.2c-0.3-0.1-0.6-0.3-0.7-0.7c-0.1-0.5,0.1-1,0.7-1.2l51.1-15.3c0.5-0.1,1,0.1,1.2,0.6
		c0.2,0.5-0.1,1-0.6,1.2l-51.1,15.3C237.1,203.2,237,203.2,236.8,203.2L236.8,203.2z"/>
	<path class="st2" d="M235.3,209.6c-0.3-0.1-0.6-0.3-0.7-0.7c-0.1-0.5,0.1-1,0.6-1.2l51.1-15.3c0.5-0.2,1,0.1,1.2,0.6
		c0.1,0.5-0.1,1-0.6,1.2l-51.1,15.3C235.6,209.7,235.4,209.7,235.3,209.6L235.3,209.6z"/>
	<path class="st2" d="M233.8,216.1c-0.3-0.1-0.6-0.3-0.7-0.7c-0.1-0.5,0.1-1,0.7-1.2l51.1-15.3c0.5-0.1,1,0.1,1.2,0.6
		c0.1,0.5-0.1,1-0.6,1.2l-51.1,15.3C234.1,216.1,233.9,216.1,233.8,216.1L233.8,216.1z"/>
	<path class="st2" d="M232.3,222.5c-0.3-0.1-0.6-0.3-0.7-0.7c-0.2-0.5,0.1-1,0.6-1.2l51.1-15.3c0.5-0.1,1,0.1,1.2,0.6
		c0.2,0.5-0.1,1-0.6,1.2l-51.1,15.3C232.6,222.6,232.4,222.6,232.3,222.5L232.3,222.5z"/>
	<path class="st2" d="M230.7,229c-0.3-0.1-0.6-0.3-0.7-0.7c-0.2-0.5,0.1-1,0.6-1.2l51.1-15.3c0.5-0.1,1,0.1,1.2,0.7
		c0.2,0.5-0.1,1-0.6,1.2L231.2,229C231.1,229,230.9,229,230.7,229L230.7,229z"/>
	<path class="st2" d="M229.2,235.4c-0.3-0.1-0.6-0.3-0.7-0.7c-0.1-0.5,0.1-1,0.7-1.2l51.1-15.3c0.5-0.1,1,0.1,1.2,0.6
		c0.2,0.5-0.1,1-0.6,1.2l-51.1,15.3C229.6,235.5,229.4,235.5,229.2,235.4L229.2,235.4z"/>
	<path class="st2" d="M227.7,241.9c-0.3-0.1-0.6-0.3-0.7-0.7c-0.2-0.5,0.1-1,0.6-1.2l51.1-15.3c0.5-0.2,1,0.1,1.2,0.6
		c0.1,0.5-0.1,1-0.6,1.2l-51.1,15.3C228,241.9,227.9,241.9,227.7,241.9L227.7,241.9z"/>
	<path class="st2" d="M226.2,248.4c-0.3-0.1-0.6-0.3-0.7-0.7c-0.2-0.5,0.1-1,0.6-1.2l51.1-15.3c0.5-0.2,1,0.1,1.2,0.6
		c0.1,0.5-0.1,1-0.6,1.2l-51.1,15.3C226.5,248.4,226.4,248.4,226.2,248.4L226.2,248.4z"/>
	<path class="st2" d="M224.7,254.8c-0.3-0.1-0.6-0.3-0.7-0.7c-0.2-0.5,0.1-1,0.6-1.2l51.1-15.3c0.5-0.1,1,0.1,1.2,0.6
		c0.1,0.5-0.1,1-0.7,1.2l-51.1,15.3C225,254.8,224.9,254.8,224.7,254.8L224.7,254.8z"/>
	<path class="st5" d="M200.9,209.6l-0.2-0.1c-0.3-0.1-0.4-0.5-0.4-0.8c0.4-1.9,1.2-4.4,2.1-7.2c0.8-2.3,1.5-4.7,1.9-6.5l0.1-0.7l0,0
		c1.2-5.6,2.2-11.5,3.1-17.1c1.8-11.4,3.6-23.1,8.2-33.8c0.6-1.4,1.2-2.9,1.8-4.2c2.4-5.7,4.7-11.1,5.8-17.3c1.1-7.4,0.7-9,0.5-9.3
		c-0.1-0.3-0.1-0.6,0.1-0.8c0.2-0.2,0.5-0.3,0.7-0.3l0,0c0.4,0.1,10.2,2.8,12.2,8.8c2.3,6.9-1,16.3-3.6,23.9c-0.5,1.5-1,3-1.5,4.3
		c-1,3.2-2,6.5-3,9.6c-4.3,13.6-8.8,27.7-11.4,42c-0.2,0.9-0.3,1.7-0.5,2.6c-0.5,2.6-0.9,5.3-1.7,7.9c-0.1,0.3-0.3,0.5-0.6,0.5
		c-0.1,0-0.2,0-0.3,0c-0.2,0-0.3-0.1-0.4-0.3c-1.2-1.5-1.9-3.6-2.5-5.6c-0.2-0.7-0.5-1.5-0.7-2.1c-1.4,1.4-3.1,2.4-4.8,3.4
		c-1.6,0.9-3,1.8-4.3,2.9C201.4,209.6,201.2,209.7,200.9,209.6"/>
	<path class="st2" d="M224.7,110.8c-0.5-0.1-1.1,0.1-1.5,0.5c-0.4,0.5-0.4,1.1-0.1,1.6c0.1,0.1,0.6,1.5-0.6,8.9
		c-1,6.1-3.3,11.5-5.7,17.2c-0.6,1.4-1.2,2.8-1.8,4.2c-4.5,10.8-6.4,22.6-8.2,34c-0.9,5.6-1.8,11.5-3,17.1l0,0.1l-0.1,0.6
		c-0.4,1.8-1.2,4.1-1.9,6.4c-0.9,2.7-1.7,5.3-2.1,7.3c-0.1,0.6,0.2,1.2,0.7,1.5c0.1,0.1,0.2,0.1,0.4,0.1c0.5,0.1,1,0,1.3-0.4
		c1.2-1.1,2.6-1.9,4.1-2.8c1.4-0.8,2.8-1.6,4.1-2.7c0.1,0.3,0.2,0.7,0.3,1.1c0.7,2.1,1.4,4.2,2.7,5.8c0.2,0.3,0.5,0.4,0.8,0.5
		c0.2,0,0.4,0,0.6,0c0.5-0.1,1-0.5,1.1-1c0.7-2.6,1.2-5.3,1.7-7.9c0.1-0.9,0.3-1.7,0.5-2.6c2.6-14.3,7-28.4,11.4-42
		c1-3.1,2-6.4,3-9.6c0.4-1.3,0.9-2.7,1.5-4.2c2.7-7.7,6.1-17.2,3.6-24.4C235.3,113.7,225.2,110.9,224.7,110.8L224.7,110.8
		 M224.4,112.2c0,0,9.8,2.6,11.7,8.4c2.7,8.1-2.6,20-5.1,27.7c-5.4,17.2-11.3,34-14.4,51.7c-0.7,3.5-1.1,7-2.1,10.4
		c-1.8-2.2-2.4-6-3.6-8.6c-2.6,3.2-6.8,4.3-9.8,7.1c0.7-3.5,3.1-9.8,4-13.7l0.1-0.7c3.7-16.9,4.5-34.8,11.2-50.8
		c2.9-7.2,6.2-13.9,7.6-21.7C224.3,119.5,225.2,113.6,224.4,112.2"/>
	<path class="st0" d="M214.4,211.8c-0.1,0-0.2,0-0.3,0h0h0C214.2,211.8,214.3,211.8,214.4,211.8c0.1,0,0.2,0,0.3,0
		c0.5-0.1,1-0.5,1.1-1c0.1-0.4,0.2-0.9,0.4-1.3l0,0c-0.1,0.4-0.2,0.9-0.4,1.3c-0.1,0.5-0.6,0.9-1.1,1
		C214.6,211.8,214.5,211.8,214.4,211.8 M216.7,207.3L216.7,207.3c0.3-1.5,0.6-3,0.8-4.4c0,0,0,0,0,0l0,0c0,0,0,0,0,0
		C217.2,204.3,217,205.8,216.7,207.3 M217.9,200.6L217.9,200.6c0-0.1,0-0.2,0.1-0.3c0.2-1.4,0.5-2.8,0.8-4.1l0,0
		c-0.3,1.4-0.5,2.8-0.8,4.1C217.9,200.4,217.9,200.5,217.9,200.6"/>
	<path class="st14" d="M217.5,202.8L217.5,202.8c0.1-0.8,0.3-1.5,0.4-2.3l0,0C217.8,201.3,217.6,202.1,217.5,202.8"/>
	<path class="st0" d="M213.3,211.3L213.3,211.3c-1.3-1.6-2-3.8-2.7-5.8c-0.1-0.4-0.2-0.7-0.3-1.1c-0.9,0.8-1.9,1.4-2.9,2.1l0,0
		c1-0.6,2-1.3,2.9-2.1c0.1,0.3,0.2,0.7,0.3,1.1C211.3,207.5,212,209.7,213.3,211.3L213.3,211.3"/>
	<path class="st15" d="M214.4,210.4c-1.8-2.2-2.4-6-3.6-8.6c-2.6,3.2-6.8,4.3-9.8,7.1c0.2-1.2,0.6-2.7,1.1-4.3
		c2.4-1.2,5.8-4.1,8.5-4.1c1.1,0,2.1,0.5,2.8,1.8c0.1,0.2,0.3,0.3,0.5,0.3c0.3,0,0.5-0.1,0.6-0.4c1.6-9.8,3.1-19.4,5.8-29
		c2.7-9.8,6.1-19.5,9.2-29.2c2.1-6.5,5.4-14,3.2-20.9c-0.9-3-3-5.3-5-7.6c-0.9-1-1.7-2-2.4-3c2.7,0.9,9,3.5,10.5,8
		c2.7,8.1-2.6,20-5.1,27.7c-5.4,17.2-11.3,34-14.4,51.7C215.9,203.5,215.4,207,214.4,210.4"/>
	<path class="st14" d="M201.1,210.4c-0.1,0-0.2,0-0.3,0c-0.1,0-0.2-0.1-0.4-0.1c-0.5-0.3-0.8-0.7-0.8-1.3c0,0.5,0.3,1,0.8,1.3
		c0.1,0.1,0.2,0.1,0.4,0.1C200.9,210.3,201,210.4,201.1,210.4c0.2,0,0.5-0.1,0.7-0.2C201.6,210.3,201.3,210.4,201.1,210.4
		 M201.8,210.2L201.8,210.2L201.8,210.2 M199.7,208.6L199.7,208.6L199.7,208.6 M199.7,208.6L199.7,208.6L199.7,208.6"/>
	<path class="st0" d="M200.2,206.6c0.1-0.4,0.2-0.9,0.4-1.3l0,0C200.4,205.7,200.3,206.2,200.2,206.6"/>
	<path class="st5" d="M237.2,119.5c-2.6-5.9-12.1-8.6-12.5-8.7l0,0l0,0C225.2,110.9,234.6,113.5,237.2,119.5"/>
	<path class="st14" d="M214.4,211.8c-0.1,0-0.2,0-0.3,0h0c-0.3-0.1-0.6-0.2-0.8-0.5l0,0c-1.3-1.6-2-3.8-2.7-5.8
		c-0.1-0.4-0.2-0.7-0.3-1.1c-0.9,0.8-1.9,1.4-2.9,2.1c-0.4,0.2-0.8,0.5-1.1,0.7c-0.2,0.1-0.4,0.2-0.6,0.3c-1.3,0.8-2.5,1.5-3.5,2.5
		l0,0c-0.1,0.1-0.2,0.1-0.3,0.2c0,0,0,0,0,0l0,0c-0.2,0.1-0.5,0.2-0.7,0.2c-0.1,0-0.2,0-0.3,0c-0.1,0-0.2-0.1-0.4-0.1
		c-0.5-0.3-0.8-0.7-0.8-1.3c0-0.1,0-0.2,0-0.3c0,0,0,0,0,0c0,0,0,0,0,0c0,0,0,0,0,0l0,0c0.1-0.6,0.3-1.3,0.5-2
		c0.1-0.4,0.2-0.9,0.4-1.3c0.3-0.1,0.6-0.2,1-0.3c0.2-0.1,0.5-0.2,0.7-0.3c-0.5,1.6-0.9,3.1-1.1,4.3c3-2.8,7.2-3.9,9.8-7.1
		c1.2,2.6,1.8,6.4,3.6,8.6c1-3.4,1.5-6.9,2.1-10.4c3.2-17.7,9.1-34.5,14.4-51.7c2.5-7.7,7.8-19.7,5.1-27.7c-1.5-4.5-7.9-7.1-10.5-8
		c-0.4-0.6-0.7-1.2-1-1.8l0.1,0l0,0c0.4,0.1,9.9,2.7,12.5,8.7c0.1,0.2,0.2,0.4,0.2,0.6c0.6,1.7,0.8,3.6,0.8,5.6
		c0,1.2-0.1,2.4-0.3,3.7c-0.1,0.8-0.2,1.6-0.4,2.3c-0.5,2.3-1.1,4.7-1.8,6.9c-0.2,0.7-0.4,1.4-0.7,2c-0.4,1.3-0.9,2.6-1.3,3.9
		c0,0,0,0.1,0,0.1c-0.2,0.7-0.5,1.3-0.7,2c-0.3,0.8-0.5,1.5-0.7,2.2c-0.2,0.6-0.4,1.2-0.6,1.9c-0.2,0.7-0.4,1.4-0.6,2
		c-0.4,1.4-0.9,2.7-1.3,4c-0.2,0.6-0.4,1.1-0.5,1.7c0,0.1-0.1,0.2-0.1,0.4c-0.4,1.3-0.9,2.7-1.3,4c-0.2,0.7-0.4,1.4-0.6,2
		c-0.4,1.3-0.8,2.7-1.3,4.1c-0.2,0.7-0.4,1.4-0.6,2c-0.4,1.4-0.8,2.7-1.2,4.1c-0.2,0.7-0.4,1.4-0.6,2.1c-0.4,1.4-0.8,2.8-1.2,4.1
		c-0.2,0.7-0.4,1.4-0.6,2.1c-0.4,1.4-0.7,2.8-1.1,4.2c-0.2,0.7-0.4,1.4-0.5,2.1c-0.3,1.4-0.7,2.9-1,4.3c-0.2,0.7-0.3,1.5-0.5,2.2
		c-0.3,1.4-0.5,2.8-0.8,4.1c0,0.1,0,0.2-0.1,0.3c-0.1,0.8-0.3,1.5-0.4,2.3c0,0,0,0,0,0c-0.3,1.5-0.5,2.9-0.8,4.4
		c-0.1,0.7-0.3,1.5-0.5,2.2c-0.1,0.4-0.2,0.9-0.4,1.3c-0.1,0.5-0.6,0.9-1.1,1C214.6,211.8,214.5,211.8,214.4,211.8"/>
	<path class="st16" d="M304.8,155.7c-11.9-2.5-12.1-2.3-16.1,13.7c3.5-16.1,3.4-16.3-8.3-19.4c11.9,2.5,12.1,2.3,16.1-13.7
		C293,152.3,293.1,152.6,304.8,155.7L304.8,155.7z"/>
	<path class="st16" d="M313.4,274.2c-9-1.9-9.2-1.7-12.2,10.4c2.7-12.2,2.6-12.4-6.3-14.7c9,1.9,9.2,1.7,12.2-10.4
		C304.4,271.7,304.5,271.9,313.4,274.2L313.4,274.2z"/>
	<path class="st16" d="M327,162c-9-1.9-9.2-1.7-12.2,10.4c2.7-12.2,2.6-12.4-6.3-14.7c9,1.9,9.2,1.7,12.2-10.4
		C318,159.5,318.1,159.7,327,162L327,162z"/>
	<path class="st16" d="M147.9,230.8c-9-1.9-9.2-1.7-12.2,10.4c2.7-12.2,2.6-12.4-6.3-14.7c9,1.9,9.2,1.7,12.2-10.4
		C138.9,228.3,139,228.5,147.9,230.8L147.9,230.8z"/>
	<path class="st1" d="M104.9,262.6c0,0,7.1-33.3,44-22.8c36.9,10.5,26.4,34,26.4,34"/>
	<path class="st1" d="M157.6,278.7c3.4-24.1,36.4-32.2,51.9-13.7c4.4,5.3,6.9,18.5,4.2,25"/>
	<path class="st1" d="M239.4,291.3c4.6-33,49.7-44,70.9-18.8c6.1,7.2,9.4,25.3,5.8,34.1"/>
	<path class="st1" d="M187.7,294.7c4.6-33,49.7-44,70.9-18.8c6.1,7.2,9.4,25.3,5.7,34.1L187.7,294.7"/>
	<path class="st17" d="M256.5,127.2c-0.2,0-0.4-0.1-0.4-0.3l-1.6-3.3l-3.7-0.5c-0.2,0-0.3-0.2-0.4-0.3c-0.1-0.2,0-0.4,0.1-0.5
		l2.7-2.6l-0.6-3.7c0-0.2,0-0.4,0.2-0.5c0.1-0.1,0.2-0.1,0.3-0.1c0.1,0,0.2,0,0.2,0.1l3.3,1.7l3.3-1.7c0.1,0,0.2-0.1,0.2-0.1
		c0.1,0,0.2,0,0.3,0.1c0.2,0.1,0.2,0.3,0.2,0.5l-0.6,3.7l2.7,2.6c0.1,0.1,0.2,0.3,0.1,0.5c-0.1,0.2-0.2,0.3-0.4,0.3l-3.7,0.5
		l-1.6,3.3C256.9,127.1,256.7,127.2,256.5,127.2L256.5,127.2z"/>
	<path class="st2" d="M260,114.8L260,114.8L260,114.8c-0.2,0-0.3,0-0.5,0.1l-3,1.6l-3.1-1.6c-0.1-0.1-0.3-0.1-0.5-0.1
		c-0.2,0-0.4,0.1-0.6,0.2c-0.3,0.2-0.5,0.6-0.4,1l0.6,3.4l-2.5,2.4c-0.3,0.3-0.4,0.7-0.3,1c0.1,0.4,0.4,0.6,0.8,0.7l3.4,0.5l1.5,3.1
		c0.2,0.3,0.5,0.6,0.9,0.6c0.4,0,0.7-0.2,0.9-0.6l1.5-3.1l3.4-0.5c0.4-0.1,0.7-0.3,0.8-0.7c0.1-0.4,0-0.8-0.3-1l-2.5-2.4l0.6-3.4
		c0-0.1,0-0.1,0-0.2C261,115.3,260.6,114.8,260,114.8L260,114.8L260,114.8z M260,115.8l-0.7,3.9l2.9,2.8l-3.9,0.6l-1.8,3.6l-1.8-3.6
		l-3.9-0.6l2.8-2.8l-0.7-3.9l3.5,1.9L260,115.8 M260,115.8L260,115.8"/>
	<path class="st17" d="M95.5,224c-0.1-0.3-0.1-0.7,0.1-0.9l4.2-4.9l-1.7-6.2c-0.1-0.3,0-0.7,0.3-0.9c0.2-0.2,0.6-0.3,0.9-0.1l6,2.5
		l5.4-3.5c0.3-0.2,0.6-0.2,0.9,0c0.2,0.1,0.3,0.2,0.4,0.4c0.1,0.1,0.1,0.3,0.1,0.4l-0.5,6.4l5,4.1c0.1,0.1,0.2,0.2,0.2,0.3
		c0.1,0.2,0.1,0.3,0,0.5c-0.1,0.3-0.3,0.6-0.6,0.7l-6.3,1.5l-2.3,6c-0.1,0.3-0.4,0.5-0.7,0.6c-0.3,0-0.6-0.1-0.8-0.4l-3.4-5.5
		l-6.4-0.3C95.9,224.6,95.6,224.4,95.5,224L95.5,224z"/>
	<path class="st2" d="M117.6,221.2L117.6,221.2L117.6,221.2L117.6,221.2c-0.1-0.3-0.3-0.5-0.5-0.7l-4.6-3.8l0.5-6
		c0-0.3,0-0.6-0.1-0.8c-0.1-0.3-0.4-0.6-0.7-0.8c-0.6-0.3-1.3-0.3-1.8,0l-5,3.3l-5.5-2.3c-0.6-0.3-1.3-0.1-1.8,0.3
		c-0.5,0.4-0.7,1.1-0.5,1.7l1.6,5.8l-3.9,4.6c-0.4,0.5-0.5,1.2-0.3,1.8c0.3,0.6,0.8,1,1.5,1l6,0.3l3.1,5.1c0.3,0.6,1,0.9,1.6,0.8
		c0.7-0.1,1.2-0.5,1.5-1.1l2.2-5.6l5.8-1.4c0.1,0,0.2-0.1,0.3-0.1C117.5,223.1,117.9,222.1,117.6,221.2L117.6,221.2L117.6,221.2z
		 M116,221.9l-6.7,1.6l-2.5,6.5l-3.6-5.9l-6.9-0.4l4.5-5.3l-1.8-6.7l6.4,2.6l5.8-3.8l-0.5,6.9L116,221.9 M116,221.9L116,221.9"/>
	<path class="st18" d="M350.4,215.5c-0.3,0-0.6-0.2-0.7-0.4l-2.6-5.2l-5.7-0.8c-0.3,0-0.5-0.2-0.6-0.5c-0.1-0.3,0-0.6,0.2-0.8l4.1-4
		l-1-5.7c0-0.3,0.1-0.6,0.3-0.8c0.1-0.1,0.3-0.1,0.5-0.1c0.1,0,0.2,0,0.4,0.1l5.1,2.7l5.1-2.7c0.1-0.1,0.2-0.1,0.4-0.1
		c0.2,0,0.3,0,0.5,0.1c0.2,0.2,0.4,0.5,0.3,0.8l-1,5.7l4.1,4c0.2,0.2,0.3,0.5,0.2,0.8c-0.1,0.3-0.3,0.5-0.6,0.5l-5.7,0.8l-2.6,5.2
		C351,215.3,350.7,215.5,350.4,215.5L350.4,215.5z"/>
	<path class="st2" d="M355.9,196.3L355.9,196.3L355.9,196.3L355.9,196.3c-0.3,0-0.5,0.1-0.7,0.2l-4.7,2.5l-4.8-2.5
		c-0.2-0.1-0.5-0.2-0.7-0.2c-0.3,0-0.6,0.1-0.9,0.3c-0.5,0.3-0.7,0.9-0.6,1.5l0.9,5.3l-3.8,3.8c-0.4,0.4-0.6,1-0.4,1.6
		s0.7,1,1.2,1.1l5.3,0.8l2.4,4.8c0.3,0.5,0.8,0.9,1.4,0.9c0.6,0,1.1-0.3,1.4-0.9l2.4-4.8l5.3-0.8c0.6-0.1,1.1-0.5,1.2-1.1
		c0.2-0.6,0-1.2-0.4-1.6l-3.8-3.8l0.9-5.2c0-0.1,0-0.2,0-0.3C357.5,197,356.8,196.3,355.9,196.3L355.9,196.3L355.9,196.3z
		 M355.9,197.8l-1,6.1l4.4,4.3l-6.1,0.9l-2.7,5.5l-2.7-5.5l-6.1-0.9l4.4-4.3l-1-6.1l5.5,2.9L355.9,197.8 M355.9,197.8L355.9,197.8"
		/>
	<path class="st18" d="M113,175.5c-0.2-0.1-0.3-0.4-0.2-0.6l0.8-4.3l-3.1-3.1c-0.2-0.2-0.2-0.4-0.1-0.6c0.1-0.2,0.3-0.4,0.5-0.4
		l4.4-0.5l2-3.9c0.1-0.2,0.3-0.3,0.5-0.3c0.1,0,0.2,0,0.3,0.1c0.1,0.1,0.1,0.1,0.2,0.2l1.9,4l4.3,0.7c0.1,0,0.2,0.1,0.3,0.1
		c0.1,0.1,0.2,0.2,0.2,0.3c0.1,0.2,0,0.4-0.2,0.6l-3.2,3l0.6,4.4c0,0.2-0.1,0.4-0.2,0.6c-0.2,0.1-0.4,0.1-0.6,0l-3.8-2.1l-3.9,2
		C113.4,175.7,113.2,175.6,113,175.5L113,175.5z"/>
	<path class="st2" d="M125.2,166.4L125.2,166.4L125.2,166.4c-0.2-0.1-0.4-0.2-0.5-0.2l-4-0.7l-1.7-3.7c-0.1-0.2-0.2-0.3-0.4-0.4
		c-0.2-0.1-0.4-0.2-0.7-0.2c-0.4,0-0.9,0.2-1.1,0.6l-1.9,3.6l-4.1,0.5c-0.4,0.1-0.8,0.4-1,0.8c-0.1,0.4,0,0.9,0.3,1.2l2.9,2.9
		l-0.8,4c-0.1,0.4,0.1,0.9,0.4,1.2c0.4,0.3,0.8,0.3,1.2,0.1l3.7-1.8l3.6,2c0.4,0.2,0.9,0.2,1.2-0.1c0.4-0.3,0.6-0.7,0.5-1.1
		l-0.6-4.1l3-2.8c0.1,0,0.1-0.1,0.2-0.2C125.8,167.6,125.7,166.8,125.2,166.4L125.2,166.4L125.2,166.4z M124.5,167.4l-3.4,3.2
		l0.7,4.7l-4.1-2.3l-4.2,2.1l0.9-4.6L111,167l4.7-0.6l2.2-4.2l2,4.3L124.5,167.4 M124.5,167.4L124.5,167.4"/>
	<path class="st19" d="M354,263.8c-0.2,0-0.4-0.1-0.4-0.3l-1.6-3.3l-3.7-0.5c-0.2,0-0.3-0.2-0.4-0.3c-0.1-0.2,0-0.4,0.1-0.5l2.7-2.6
		l-0.6-3.7c0-0.2,0-0.4,0.2-0.5c0.1-0.1,0.2-0.1,0.3-0.1c0.1,0,0.2,0,0.2,0.1l3.3,1.7l3.3-1.7c0.1,0,0.2-0.1,0.2-0.1
		c0.1,0,0.2,0,0.3,0.1c0.2,0.1,0.2,0.3,0.2,0.5l-0.6,3.7l2.7,2.6c0.1,0.1,0.2,0.3,0.1,0.5c-0.1,0.2-0.2,0.3-0.4,0.3l-3.7,0.5
		l-1.6,3.3C354.3,263.7,354.2,263.8,354,263.8L354,263.8z"/>
	<path class="st2" d="M357.5,251.5L357.5,251.5L357.5,251.5c-0.2,0-0.3,0-0.5,0.1l-3,1.6l-3.1-1.6c-0.1-0.1-0.3-0.1-0.5-0.1
		c-0.2,0-0.4,0.1-0.6,0.2c-0.3,0.2-0.5,0.6-0.4,1l0.6,3.4l-2.5,2.4c-0.3,0.3-0.4,0.7-0.3,1c0.1,0.4,0.4,0.6,0.8,0.7l3.4,0.5l1.5,3.1
		c0.2,0.3,0.5,0.6,0.9,0.6c0.4,0,0.7-0.2,0.9-0.6l1.5-3.1l3.4-0.5c0.4-0.1,0.7-0.3,0.8-0.7c0.1-0.4,0-0.8-0.2-1l-2.5-2.4l0.6-3.4
		c0-0.1,0-0.1,0-0.2C358.5,251.9,358.1,251.5,357.5,251.5L357.5,251.5L357.5,251.5z M357.5,252.5l-0.7,3.9l2.9,2.8l-3.9,0.6
		l-1.8,3.6l-1.8-3.6l-3.9-0.6l2.8-2.8l-0.7-3.9l3.5,1.9L357.5,252.5 M357.5,252.5L357.5,252.5"/>
	<path class="st19" d="M126.6,273.8c-0.2,0-0.4-0.1-0.4-0.3l-1.6-3.3l-3.7-0.5c-0.2,0-0.3-0.2-0.4-0.3c-0.1-0.2,0-0.4,0.1-0.5
		l2.7-2.6l-0.6-3.7c0-0.2,0-0.4,0.2-0.5c0.1-0.1,0.2-0.1,0.3-0.1c0.1,0,0.2,0,0.2,0.1l3.3,1.7l3.3-1.7c0.1,0,0.1-0.1,0.2-0.1
		c0.1,0,0.2,0,0.3,0.1c0.2,0.1,0.2,0.3,0.2,0.5l-0.6,3.7l2.7,2.6c0.1,0.1,0.2,0.3,0.1,0.5c-0.1,0.2-0.2,0.3-0.4,0.3l-3.7,0.5
		l-1.6,3.3C127,273.7,126.8,273.8,126.6,273.8L126.6,273.8z"/>
	<path class="st2" d="M130.1,261.4L130.1,261.4L130.1,261.4c-0.2,0-0.3,0-0.5,0.1l-3,1.6l-3.1-1.6c-0.1-0.1-0.3-0.1-0.5-0.1
		c-0.2,0-0.4,0.1-0.6,0.2c-0.3,0.2-0.5,0.6-0.4,1l0.6,3.4l-2.5,2.4c-0.3,0.3-0.4,0.7-0.3,1c0.1,0.4,0.4,0.6,0.8,0.7l3.4,0.5l1.5,3.1
		c0.2,0.3,0.5,0.6,0.9,0.6s0.7-0.2,0.9-0.6l1.5-3.1l3.4-0.5c0.4-0.1,0.7-0.3,0.8-0.7c0.1-0.4,0-0.8-0.2-1l-2.5-2.4l0.6-3.4
		c0-0.1,0-0.1,0-0.2C131.1,261.9,130.7,261.4,130.1,261.4L130.1,261.4L130.1,261.4z M130.1,262.4l-0.7,3.9l2.8,2.8l-3.9,0.6
		l-1.8,3.6l-1.8-3.6l-3.9-0.6l2.9-2.8l-0.7-3.9l3.5,1.9L130.1,262.4 M130.1,262.4L130.1,262.4"/>
	<path class="st20" d="M262.8,365.9c-0.7,0-1.5,0-2.2-0.1l0,0C261.4,365.9,262.1,365.9,262.8,365.9 M263.8,365.9
		c3.3-0.1,6.6-0.6,9.7-1.6l0,0C270.4,365.3,267.1,365.9,263.8,365.9 M260.5,365.9c-6.4-0.4-12.4-2.4-17.6-5.8l0,0
		C248.1,363.4,254.1,365.5,260.5,365.9L260.5,365.9 M274.3,364.1L274.3,364.1c10-3.2,18.3-10.6,22.5-20.5c3.4-0.1,6.7-0.6,10-1.3
		l0,0c-3.2,0.7-6.6,1.2-10,1.3C292.5,353.5,284.2,360.9,274.3,364.1 M237.2,355.5L237.2,355.5c-0.4-0.4-0.8-0.7-1.1-1.1l0,0
		C236.5,354.8,236.9,355.2,237.2,355.5 M308.4,341.9L308.4,341.9c4.3-1.1,8.5-2.7,12.3-4.8l0,0C316.9,339.2,312.8,340.8,308.4,341.9
		"/>
	<path class="st21" d="M262.9,365.9C262.9,365.9,262.9,365.9,262.9,365.9c-0.8,0-1.5,0-2.2-0.1c0-0.1-0.1-0.2-0.1-0.2
		c0,0.1-0.1,0.2-0.1,0.2c-6.4-0.4-12.4-2.4-17.6-5.8c1.2-1.4,2.3-3.2,3.3-5.2c4.9,3.2,10.7,5,16.8,5c2.9,0,5.8-0.4,8.5-1.2
		c0.6,1,1.2,2.1,1.6,3.3c0.3,0.8,0.5,1.7,0.4,2.5c-3.1,0.9-6.4,1.5-9.7,1.6C263.5,365.9,263.2,365.9,262.9,365.9 M274.3,364.1
		c1.2-1.9,1.7-4.3,1.7-6.5c0-0.3,0-0.5,0-0.8c4.4-2.1,8.2-5.1,11.2-8.9c0.2,0.6,0.5,1.2,0.6,1.8c1.2-3.5,3-7,5.2-10.7
		c0.3-0.5,0.6-1,0.9-1.4c0.2-0.1,0.5-0.1,0.8-0.1c8.3,0,16.1-2.1,23-5.7c1.4,1.4,2.5,3.2,3.1,5.3c-3.9,2-8,3.7-12.3,4.8
		c0-0.1,0-0.2,0-0.3c0-0.2,0-0.3,0-0.4c-0.3,0-0.9,0.3-1.7,1.1c-3.2,0.7-6.6,1.2-10,1.3C292.5,353.5,284.2,360.9,274.3,364.1
		 M220.3,359.7c0.1-2.2,0.6-4.3,1.4-6.2c4.7-0.4,9.2-2.4,12.8-5.6c0.6-0.5,1.3-0.8,2.1-0.8c0.1,0,0.2,0,0.2,0
		c0.8,0.1,1.6,0.5,2.1,1.1c1.5,1.8,3.1,3.4,4.9,4.9c-1.2,1.6-3.1,2.6-5.2,2.6c-0.5,0-0.9,0-1.4-0.1c-0.4-0.4-0.8-0.7-1.1-1.1l0,0
		C231.5,357.7,226,359.6,220.3,359.7"/>
	<path class="st22" d="M264.4,310l-6.9-1.4c2.4-0.9,5.1-1.5,7.8-1.8C265.1,308,264.8,309,264.4,310"/>
	<path class="st23" d="M372.7,294.8c0-5.7,0-11.4,0-17c0-2.6-4-2.6-4,0c0,5.7,0,11.4,0,17C368.7,297.4,372.7,297.4,372.7,294.8
		L372.7,294.8z"/>
	<path class="st23" d="M393.3,298.5c3.2-7.8,6.8-15.5,9.9-23.3c1-2.4-3-3.5-3.9-1.1c-3.1,7.9-6.6,15.5-9.9,23.3
		C388.4,299.9,392.3,300.9,393.3,298.5L393.3,298.5z"/>
	<path class="st23" d="M411.1,307.9c3.5-3.5,6.6-7.5,9.9-11.2c1.7-2-1.1-4.8-2.9-2.9c-3.3,3.8-6.4,7.7-9.9,11.2
		C406.4,306.9,409.3,309.8,411.1,307.9L411.1,307.9z"/>
	<path class="st23" d="M213,319.9c5.6,1.4,11.3,2.3,17,3.1c2.5,0.4,3.6-3.5,1.1-3.9c-5.7-0.9-11.4-1.8-17-3.1
		C211.6,315.4,210.5,319.3,213,319.9L213,319.9z"/>
	<path class="st23" d="M214.1,295.3c5.5,4.1,10.9,8.3,16.6,12.1c2.2,1.5,4.2-2,2-3.5c-5.7-3.8-11.1-8-16.6-12.1
		C214,290.2,212,293.7,214.1,295.3L214.1,295.3z"/>
	<path class="st23" d="M241.2,279.8c1.2,5.7,3.5,11.1,4.6,16.9c0.5,2.5,4.5,2,4-0.6c-1.1-5.8-3.4-11.2-4.6-16.9
		C244.7,276.7,240.7,277.2,241.2,279.8L241.2,279.8z"/>
	<g>
		<g>
			<path class="st24" d="M246.8,370.8c-0.7-0.9-1.2-2.2-1.6-4s-0.8-3.7-1-5.9c-0.3-2.1-0.5-4.2-0.6-6.1c-0.1-1.9-0.2-3.5-0.2-4.6
				c0-0.3,0-0.8,0-1.3c-0.1-1.6-0.2-3.8-0.3-6.6c-0.1-2.8-0.2-5.8-0.3-9c0-3.2,0-6.4,0-9.4c0.1-3,0.3-5.7,0.6-7.8
				c0.3-2.2,0.7-3.6,1.3-4.2c0.9-0.8,2-1.3,3.3-1.5c1.3-0.2,2.6,0,3.8,0.4c1.2,0.5,1.9,1.2,2.3,2.3c1.7-0.8,3.4-1.3,5.2-1.7
				c2.2-0.4,4.1-0.5,5.8-0.2c1.7,0.3,3.2,0.9,4.4,1.8c2.3,1.7,3.6,4,3.9,6.9l0,0c0.3,2.2-0.1,4.6-1,7.2c-1.1,3.1-3.3,6.3-6.4,9.7
				c1.5,0.1,2.9,0.4,4.2,0.8c2.4,0.7,4.4,1.9,5.8,3.4c1.4,1.5,2.4,3.3,2.9,5.1s0.7,3.8,0.6,5.6c-0.2,1.9-0.6,3.5-1.4,4.9
				c-1.4,2.6-3.6,5-6.5,7.2c-2.9,2.3-6.5,4.1-10.9,5.7c-3,1-5.5,1.5-7.6,1.6c-0.9,0.9-1.9,1.3-3,1.3
				C248.9,372.5,247.8,371.9,246.8,370.8z M253.5,327.6c0,1.9,0,3.7,0,5.4c2.2-1.6,4.1-3.3,5.5-5c1.4-1.7,2.4-3.3,3-4.8
				c0.1-0.4,0.2-0.7,0.3-1l-0.9,0.2c-1.8,0.4-3.5,1.1-5,2.2C255.2,325.5,254.3,326.5,253.5,327.6z M254.4,361
				c2.9-0.9,5.4-2.1,7.6-3.5c2.2-1.4,3.9-2.9,5.1-4.4c1.2-1.5,1.8-2.8,1.9-4.1s-0.6-2-2-2.5c-1.3-0.5-3.5-0.4-6.5,0.3
				c-2.4,0.6-4.6,1.2-6.6,2l0,0.9c0,0.1,0,0.2,0,0.4C254.1,353.6,254.3,357.2,254.4,361z"/>
			<path class="st24" d="M312.5,351.8c-1.2,4.6-3.2,8.7-6,12.2c-2.7,3.3-5.2,5.6-7.7,6.7c-1.8,0.9-3.6,1.4-5.3,1.4
				c-1.7,0-3.2-0.5-4.7-1.3c-1.6-0.9-2.9-2.2-3.9-3.8c-1-1.6-1.8-3.5-2.2-5.6c-0.9-4.1-0.9-8.7,0-13.8c0.4-2.5,1.1-4.9,1.9-7.4
				c0.8-2.5,1.9-4.8,3.2-7c0.7-1.3,1.6-2.5,2.8-3.9s2.5-2.5,3.9-3.5c1.4-1,2.9-1.7,4.3-2c1.4-0.3,2.7-0.1,3.9,0.6
				c1.2,0.7,2.2,2.1,2.9,4.3c3.4,0,6.7-0.2,10-0.7c1.7-0.3,3.4-0.6,5-1c1.6-0.4,3.1-0.8,4.7-1.3c2.2-0.6,4.4-1.2,6.6-1.7
				c1.6-0.4,3.1-0.1,4.4,0.8c1.3,0.9,2.3,2.8,3,5.6l0.2,0.2c1.7,1.4,3.1,3,4.2,4.7s1.8,3.6,2.3,5.5c0.8,3.7,0.7,7.4-0.3,11.2
				c-1.2,4.6-3.2,8.7-6,12.2c-2.7,3.3-5.2,5.6-7.7,6.7c-1.8,0.9-3.6,1.4-5.3,1.4s-3.2-0.5-4.6-1.3c-1.6-0.9-2.9-2.2-3.9-3.8
				c-1-1.6-1.8-3.5-2.2-5.6c-0.9-4.1-0.9-8.7,0-13.8c0.8-4.6,2.2-9,4.4-13.2c-1.2,0.2-2.4,0.5-3.6,0.6c-2,0.3-3.9,0.5-5.9,0.7
				c0.9,1.6,1.6,3.2,1.9,5C313.6,344.4,313.5,348.1,312.5,351.8z M301.2,353.8c0.7-1.9,1.1-3.9,1.5-5.8c0.3-1.9,0.3-3.6,0-5
				c-0.3-1.5-0.9-2.7-1.8-3.6s-2-1.7-3.3-2.3c-0.3,0.4-0.6,0.8-0.8,1.3c-1.1,2-2.1,4.5-2.9,7.3s-1.4,5.7-1.7,8.5
				c-0.3,3.1-0.3,5.4,0,6.9c0.3,1.5,0.8,2.3,1.6,2.4c0.7,0.1,1.6-0.2,2.5-1.1c0.9-0.8,1.9-2,2.7-3.6S300.6,355.6,301.2,353.8z
				 M325.3,354.1c-0.3,3.1-0.3,5.4,0,6.9c0.3,1.5,0.8,2.3,1.6,2.4c0.7,0.1,1.6-0.2,2.5-1.1c0.9-0.8,1.8-2,2.7-3.6
				c0.9-1.5,1.7-3.2,2.3-5c0.7-1.9,1.2-3.9,1.5-5.8c0.3-1.9,0.3-3.6,0-5c-0.3-1.5-1-2.7-1.9-3.6c-0.9-0.9-2-1.7-3.3-2.3
				c-0.2,0.4-0.5,0.8-0.8,1.3c-1.1,2-2.1,4.5-3,7.3C326.1,348.5,325.6,351.4,325.3,354.1z"/>
			<path class="st24" d="M353.7,370.9c-1-1.1-1.8-3.9-2.6-8.2c-0.8-4.3-1.4-9.4-1.8-15.1c-0.4-5.8-0.6-11.5-0.5-17
				c0.1-5.6,0.5-10.1,1.3-13.8c0.7-2.6,1.5-4.4,2.5-5.4c1-1,2.1-1.3,3.1-1c1,0.3,1.9,1,2.6,2.2c0.7,1.2,1,2.6,0.9,4.3
				c-0.5,7.6-0.8,14.9-0.9,21.9c2.5-3.1,4.9-5.4,7.3-7s4.4-2.7,6.3-3.1c1.8-0.5,3.3-0.5,4.4,0c1.1,0.4,1.6,1.2,1.6,2.2
				s-0.7,2.3-2.1,3.7c-0.3,0.3-0.8,0.7-1.4,1.4c-1.1,1-2.5,2.4-4.1,4c-1.6,1.6-3.3,3.3-4.9,5s-3,3.2-4.1,4.5
				c-1.1,1.3-1.6,2.2-1.5,2.7c0,0.1,0.5,0,1.4-0.2c0.9-0.2,1.9-0.4,3.2-0.7c1.3-0.3,2.5-0.7,3.7-1.1c1.2-0.4,2.2-0.8,3-1.1
				c2.1-0.9,3.8-1.2,5-0.9c1.2,0.3,1.9,1,2,2.1c0.1,1.1-0.3,2.3-1.4,3.7c-1.1,1.4-2.8,2.7-5.3,3.9c-1.1,0.5-2.3,1-3.4,1.3
				c-1.1,0.3-2.2,0.6-3.2,0.9c-0.1,0-0.2,0.1-0.4,0.1c-2.2,0.6-4.1,0.7-5.7,0.5c0,1.9,0.1,3.9,0.1,5.9c0,1.8-0.3,3.2-0.8,4.1
				c-0.5,0.9-1.2,1.4-2,1.4C355.4,372.1,354.6,371.7,353.7,370.9z"/>
			<path class="st24" d="M380.9,320c-0.4-1-0.6-2.2-0.6-3.6c0-1.4,0.3-2.6,0.8-3.8c0.5-1.1,1.2-1.9,2.2-2.2c0.9-0.2,1.7,0,2.5,0.8
				c0.8,0.8,1.3,2.1,1.4,3.9c0.1,2.5-0.2,4.5-0.8,6c-0.6,1.6-1.4,2.7-2.2,3.3s-1.4,0.9-1.9,0.8c-0.4-0.2-0.4-0.7,0.1-1.6
				c0.3-0.5,0.5-1,0.6-1.3c0-0.3,0-0.5-0.3-0.6C382,321.6,381.4,321,380.9,320z"/>
			<path class="st24" d="M403.9,325.5c2-0.1,3.8,0.1,5.6,0.7c1.7,0.6,3.2,1.5,4.5,2.8c1.3,1.3,2.2,3.1,2.7,5.2
				c0.5,2.3,0.4,4.2-0.4,5.5c-0.7,1.4-1.7,2.3-3,2.8c-1.2,0.5-2.4,0.6-3.4,0.3c-1-0.3-1.7-1-1.8-2c-0.2-2-0.8-3.4-1.6-4.1
				c-0.8-0.8-1.7-1.1-2.8-0.9c-1,0.2-2,0.6-2.8,1.4c-0.8,0.8-1.4,1.8-1.6,2.9c-0.3,1.1,0,2.3,0.7,3.5c0.4,0.6,1,1,1.7,1.3
				c0.8,0.3,1.6,0.6,2.5,0.7c0.9,0.2,1.6,0.3,2.2,0.3c1.8,0.1,3.4,0.4,4.8,1c1.4,0.6,2.5,1.4,3.6,2.3c1,0.9,1.7,2,2.3,3.1
				c0.6,1.1,1,2.4,1.2,3.6c0.2,1.1,0.3,2.4,0.2,3.7c-0.1,1.3-0.2,2.5-0.5,3.6c-0.4,1.6-1.1,3-1.9,4.3c-0.9,1.3-1.9,2.3-3.1,3
				c-1.2,0.7-2.6,1.1-4.4,1.4c-1.7,0.3-3.5,0.3-5.3,0.2c-2.2-0.3-4-0.9-5.2-1.9c-1.3-1-2.1-2.1-2.5-3.3s-0.4-2.3-0.1-3.3
				c0.4-1,1.1-1.7,2.1-2.1c1.1-0.4,2.4-0.2,4.1,0.6c2.5,1,4.4,1,5.7-0.2c0.7-0.6,1.2-1.4,1.4-2.2c0.2-0.9,0.1-1.6-0.3-2.3
				s-1.3-1.1-2.5-1.2c-3.2-0.1-5.9-0.7-8.3-1.8c-2.8-1.3-4.9-3-6.2-5.1c-1.4-2.1-2.1-4.5-2.2-6.9c-0.1-2.5,0.3-4.9,1.3-7.2
				c1-2.3,2.4-4.3,4.2-6c1.9-1.7,4.1-2.7,6.7-3.2C402.3,325.6,403.1,325.6,403.9,325.5z"/>
		</g>
		<path class="st5" d="M246.3,369.8c-0.6-0.8-1.2-2.2-1.6-3.9c-0.4-1.7-0.8-3.7-1-5.8c-0.3-2.1-0.4-4.1-0.6-6
			c-0.1-1.9-0.2-3.4-0.2-4.5c0-0.3,0-0.8,0-1.2c-0.1-1.6-0.2-3.8-0.3-6.5c-0.1-2.7-0.2-5.7-0.3-8.9c0-3.2,0-6.3,0-9.2
			c0.1-3,0.2-5.5,0.5-7.7c0.3-2.1,0.7-3.5,1.3-4.1c0.8-0.8,1.9-1.3,3.2-1.4c1.3-0.2,2.5,0,3.7,0.4c1.1,0.5,1.9,1.2,2.3,2.3
			c1.6-0.8,3.3-1.3,5.1-1.6c2.1-0.4,4-0.5,5.7-0.2c1.7,0.3,3.1,0.9,4.3,1.8c2.2,1.7,3.5,3.9,3.8,6.8l0,0c0.3,2.2-0.1,4.5-1,7
			c-1.1,3-3.2,6.2-6.2,9.5c1.5,0.1,2.8,0.4,4.1,0.8c2.4,0.7,4.2,1.8,5.6,3.3c1.4,1.5,2.3,3.2,2.8,5c0.5,1.9,0.7,3.7,0.5,5.5
			c-0.2,1.8-0.6,3.4-1.4,4.8c-1.4,2.5-3.5,4.9-6.3,7.1c-2.8,2.2-6.4,4.1-10.6,5.6c-2.9,1-5.3,1.5-7.4,1.5c-0.8,0.9-1.8,1.3-3,1.3
			C248.3,371.4,247.2,370.9,246.3,369.8z M252.8,327.5c0,1.8,0,3.6,0,5.3c2.2-1.6,3.9-3.2,5.3-4.9c1.4-1.6,2.3-3.2,2.9-4.7
			c0.1-0.4,0.2-0.7,0.3-1l-0.9,0.2c-1.8,0.4-3.4,1.1-4.9,2.1C254.5,325.4,253.6,326.3,252.8,327.5z M253.7,360.2
			c2.8-0.9,5.3-2,7.4-3.4c2.1-1.4,3.8-2.8,4.9-4.3c1.2-1.5,1.8-2.8,1.8-4c0-1.2-0.6-2-1.9-2.5c-1.3-0.5-3.4-0.4-6.3,0.3
			c-2.3,0.5-4.5,1.2-6.5,1.9l0,0.9c0,0.1,0,0.2,0,0.4C253.5,352.9,253.6,356.5,253.7,360.2z"/>
		<path class="st5" d="M314.1,351.5c-1.2,4.6-3.2,8.6-5.9,12.1c-2.6,3.3-5.2,5.5-7.6,6.7c-1.8,0.9-3.6,1.4-5.2,1.3
			c-1.6,0-3.2-0.5-4.6-1.3c-1.5-0.9-2.8-2.1-3.8-3.8c-1-1.6-1.7-3.5-2.2-5.6c-0.9-4.1-0.9-8.6,0-13.7c0.4-2.5,1-4.9,1.9-7.3
			c0.8-2.4,1.9-4.8,3.2-7c0.7-1.2,1.6-2.5,2.7-3.8c1.2-1.3,2.5-2.5,3.9-3.5c1.4-1,2.8-1.7,4.2-2c1.4-0.3,2.7-0.1,3.9,0.6
			c1.2,0.7,2.1,2.1,2.9,4.2c3.3,0,6.6-0.2,9.8-0.7c1.7-0.3,3.3-0.6,4.9-1c1.6-0.4,3.1-0.8,4.6-1.3c2.1-0.6,4.3-1.2,6.5-1.7
			c1.6-0.4,3-0.1,4.3,0.8c1.3,0.9,2.3,2.8,2.9,5.5l0.2,0.2c1.7,1.4,3.1,2.9,4.1,4.7s1.8,3.6,2.2,5.5c0.8,3.7,0.7,7.4-0.3,11.1
			c-1.2,4.6-3.2,8.6-5.9,12.1c-2.6,3.3-5.2,5.5-7.6,6.7c-1.8,0.9-3.6,1.4-5.2,1.3s-3.2-0.5-4.6-1.3c-1.5-0.9-2.8-2.1-3.8-3.8
			c-1-1.6-1.7-3.5-2.2-5.6c-0.9-4.1-0.9-8.6,0-13.7c0.8-4.5,2.2-8.9,4.4-13.1c-1.2,0.2-2.4,0.4-3.5,0.6c-1.9,0.3-3.9,0.5-5.8,0.7
			c0.9,1.6,1.5,3.2,1.9,4.9C315.2,344.1,315.1,347.8,314.1,351.5z M303,353.5c0.7-1.9,1.1-3.8,1.4-5.7c0.3-1.9,0.3-3.6,0-5
			c-0.3-1.5-0.9-2.6-1.8-3.6c-0.9-0.9-2-1.7-3.2-2.3c-0.3,0.4-0.5,0.8-0.8,1.2c-1.1,2-2.1,4.4-2.9,7.2c-0.8,2.8-1.4,5.6-1.7,8.4
			c-0.3,3.1-0.3,5.4,0,6.9c0.3,1.5,0.8,2.3,1.5,2.4s1.5-0.2,2.5-1.1c0.9-0.8,1.8-2,2.7-3.5C301.6,356.9,302.3,355.3,303,353.5z
			 M326.7,353.8c-0.3,3.1-0.3,5.4,0,6.9c0.3,1.5,0.8,2.3,1.5,2.4c0.7,0.1,1.5-0.2,2.4-1.1c0.9-0.8,1.8-2,2.7-3.5
			c0.9-1.5,1.6-3.2,2.3-4.9c0.7-1.9,1.2-3.8,1.5-5.7c0.3-1.9,0.3-3.6,0-5c-0.3-1.5-0.9-2.6-1.8-3.6c-0.9-0.9-2-1.7-3.3-2.3
			c-0.2,0.4-0.5,0.8-0.8,1.2c-1.1,2-2.1,4.4-2.9,7.2C327.5,348.2,326.9,351,326.7,353.8z"/>
		<path class="st5" d="M355.3,369.4c-0.8-1.1-1.5-3.7-2.1-7.7c-0.6-4.1-1.1-8.8-1.4-14.3c-0.3-5.5-0.5-10.8-0.4-16.1
			c0.1-5.2,0.4-9.6,1.1-13c0.5-2.5,1.2-4.2,2.1-5.1s1.7-1.2,2.5-1c0.8,0.3,1.6,0.9,2.1,2c0.6,1.1,0.8,2.4,0.7,4
			c-0.4,7.2-0.6,14.1-0.7,20.7c2-2.9,4-5.1,5.9-6.6c1.9-1.5,3.6-2.5,5.1-2.9c1.5-0.4,2.7-0.4,3.6,0c0.9,0.4,1.3,1.1,1.3,2.1
			s-0.6,2.2-1.7,3.5c-0.2,0.3-0.6,0.7-1.1,1.3c-0.9,1-2,2.2-3.4,3.7c-1.3,1.5-2.7,3.1-4,4.7c-1.3,1.6-2.4,3-3.3,4.3
			s-1.3,2.1-1.2,2.6c0,0.1,0.4,0,1.1-0.1c0.7-0.2,1.6-0.4,2.6-0.7c1-0.3,2-0.6,3-1c1-0.4,1.8-0.7,2.5-1c1.7-0.9,3.1-1.1,4.1-0.8
			c1,0.3,1.5,1,1.7,2c0.1,1-0.3,2.2-1.1,3.5c-0.9,1.3-2.3,2.5-4.3,3.7c-0.9,0.5-1.8,0.9-2.7,1.2c-0.9,0.3-1.7,0.6-2.6,0.8
			c-0.1,0-0.2,0.1-0.3,0.1c-1.8,0.5-3.3,0.7-4.7,0.5c0,1.8,0.1,3.7,0.1,5.6c0,1.7-0.2,3-0.6,3.9s-1,1.3-1.6,1.4
			C356.7,370.6,356,370.2,355.3,369.4z"/>
		<path class="st5" d="M381.1,320c-0.4-1-0.6-2.2-0.6-3.5c0-1.3,0.3-2.6,0.7-3.7c0.5-1.1,1.2-1.9,2.2-2.2c0.8-0.2,1.7,0,2.4,0.8
			c0.8,0.8,1.2,2,1.4,3.8c0.1,2.4-0.2,4.4-0.8,5.9c-0.6,1.5-1.3,2.6-2.1,3.3c-0.8,0.7-1.4,0.9-1.8,0.8c-0.4-0.2-0.4-0.7,0.1-1.6
			c0.3-0.5,0.5-0.9,0.5-1.3c0-0.3,0-0.5-0.3-0.6C382.1,321.6,381.6,321,381.1,320z"/>
		<path class="st5" d="M402.7,325c1.9-0.1,3.8,0.1,5.5,0.7c1.7,0.6,3.2,1.5,4.4,2.8s2.1,3,2.7,5.2c0.5,2.3,0.4,4.1-0.4,5.5
			c-0.7,1.3-1.7,2.3-2.9,2.7c-1.2,0.5-2.3,0.6-3.4,0.3c-1-0.3-1.6-1-1.8-2c-0.2-2-0.8-3.3-1.6-4.1c-0.8-0.8-1.7-1.1-2.7-0.9
			c-1,0.2-1.9,0.6-2.7,1.4c-0.8,0.8-1.4,1.7-1.6,2.9s0,2.3,0.6,3.4c0.4,0.6,0.9,1,1.7,1.3c0.8,0.3,1.6,0.5,2.4,0.7
			c0.9,0.2,1.6,0.2,2.2,0.3c1.8,0.1,3.3,0.4,4.7,1c1.3,0.6,2.5,1.3,3.5,2.3c1,0.9,1.7,2,2.3,3.1c0.6,1.1,0.9,2.3,1.2,3.6
			c0.2,1.1,0.3,2.3,0.2,3.6c-0.1,1.3-0.2,2.4-0.5,3.5c-0.4,1.6-1,3-1.9,4.3c-0.9,1.3-1.9,2.3-3,2.9c-1.2,0.7-2.6,1.1-4.3,1.4
			c-1.7,0.3-3.4,0.3-5.2,0.2c-2.2-0.3-3.9-0.9-5.2-1.9c-1.3-1-2.1-2-2.5-3.2c-0.4-1.2-0.4-2.3-0.1-3.3c0.4-1,1.1-1.7,2.1-2
			s2.4-0.2,4.1,0.5c2.4,1,4.3,1,5.6-0.2c0.7-0.6,1.1-1.4,1.4-2.2c0.2-0.9,0.1-1.6-0.3-2.3c-0.4-0.7-1.3-1.1-2.5-1.2
			c-3.1-0.1-5.8-0.7-8.2-1.8c-2.7-1.3-4.8-3-6.1-5.1c-1.3-2.1-2.1-4.4-2.2-6.9c-0.1-2.5,0.3-4.8,1.3-7.1s2.3-4.3,4.2-5.9
			c1.8-1.6,4-2.7,6.5-3.2C401.1,325.1,401.9,325.1,402.7,325z"/>
	</g>
	<g>
		<g>
			<path class="st25" d="M325.1,398.4c-2.1-0.8-3.6-1.9-4.7-3.4c-1.1-1.6-1.6-3.3-1.5-5.1c0.1-1.7,0.6-3.4,1.5-5
				c0.8-1.5,1.9-2.8,3.2-4.1c1.3-1.3,2.8-2.3,4.5-3.2c1.3-0.6,2.6-1.2,4-1.6c2.3-0.7,4.5-1.1,6.5-1.1c2.5,0.1,4.4,0.8,5.7,2
				c1.2,1.3,1.7,2.9,1.3,4.9c-0.2,1.1-0.7,2-1.5,2.6c-0.8,0.6-1.6,1-2.5,1c-0.9,0-1.6-0.2-2.3-0.8c-0.6-0.6-0.9-1.5-0.8-2.9
				c0-0.8-0.2-1.4-0.8-1.6c-0.6-0.2-1.4-0.2-2.3,0.1c-1,0.3-2,0.8-3.1,1.5s-2.1,1.5-3.1,2.5c-1,1-1.8,2-2.4,3
				c-0.6,1-0.9,1.9-0.9,2.8c0,0.7,0.1,1.3,0.5,1.8c0.4,0.5,0.8,0.8,1.3,0.9c0.5,0.1,1.1,0.1,1.8,0c0.6-0.1,1.3-0.3,1.9-0.5
				c0.5-0.1,0.9-0.3,1.3-0.4c1.1-0.3,2.1-0.5,3.1-0.7c1-0.2,1.9-0.3,2.6-0.3c1.7,0,3.2,0.3,4.5,0.8c1.3,0.5,2.3,1.2,3.1,2.1
				c1,1.2,1.6,2.6,1.7,4.1c0.1,1.4-0.2,2.8-0.9,4.1c-0.5,1-1.2,2-2.1,2.9c-0.9,0.9-2,1.7-3.2,2.5c-1.2,0.7-2.8,1.3-4.6,1.8
				c-1.8,0.5-3.5,0.7-5,0.7c-1.5,0-2.9-0.3-4.2-0.8c-1.3-0.5-2.3-1.3-3.1-2.3c-0.8-1-1.2-2.1-1.2-3.5c0-0.9,0.2-1.6,0.7-2.3
				c0.5-0.7,1.1-1.2,2-1.5c0.8-0.3,1.8-0.3,2.8,0c0.7,0.2,1.3,0.6,1.7,1s0.5,0.9,0.3,1.4c-0.3,0.6-0.4,1.1-0.4,1.5
				c0,0.5,0.3,0.9,0.8,1.2c0.5,0.2,1.2,0.3,2,0.3c0.8,0,1.6-0.3,2.5-0.6c0.9-0.4,1.7-0.9,2.6-1.6c0.8-0.7,1.5-1.6,2-2.7
				c0.3-0.6,0.4-1.1,0.4-1.5c0-0.5-0.1-0.8-0.5-1.1c-0.4-0.3-1-0.4-1.8-0.4c-0.3,0-0.8,0.1-1.5,0.2c-0.7,0.1-1.5,0.3-2.3,0.5
				c-1.1,0.3-2.3,0.5-3.5,0.8c-1.2,0.2-2.3,0.4-3.3,0.4C326.8,398.9,325.9,398.7,325.1,398.4z"/>
			<path class="st25" d="M355.6,375.3c0.9,0.1,1.5,0.5,1.9,1.1c0.4,0.6,0.7,1.1,0.8,1.6h0.9c2.1,0,3.4,0.2,4.2,0.6
				c0.7,0.4,1.1,0.9,1,1.4c-0.1,0.5-0.4,1-0.9,1.4s-1.3,0.6-2.2,0.6c-0.5,0-0.9,0-1.3,0c-0.3,0-0.5,0-0.8,0H358
				c-0.1,0.4-0.2,1.1-0.3,2.1c-0.1,1-0.2,2.1-0.3,3.4c-0.1,1.3-0.1,2.8-0.2,4.4c0,1.6-0.1,3.3-0.1,4.9c0,1.6,0.1,3.1,0.2,4.5
				s0.3,2.4,0.6,3.2s0.7,1.1,1.2,1c0.9-0.2,1.5-0.2,1.9,0c0.4,0.2,0.7,0.5,0.8,0.8c0.1,0.4,0.1,0.8,0,1.2c-0.1,0.4-0.3,0.7-0.5,1
				c-0.9,1-1.9,1.6-3,1.7c-1.1,0.1-2.1-0.1-3.1-0.7c-1-0.6-1.8-1.4-2.5-2.4c-0.6-1.1-1.1-2.2-1.4-3.4c-0.3-1.2-0.5-2.3-0.6-3.2
				c0-0.1,0-0.2,0-0.3c-0.4-2.8-0.7-5.6-0.8-8.6s0-6.1,0.4-9.6h-2.3c-1,0-1.8-0.2-2.2-0.6c-0.4-0.4-0.6-0.8-0.6-1.4
				c0-0.5,0.4-1,1.1-1.4c0.7-0.4,2-0.6,3.8-0.7h0.5c0-0.3,0.3-0.8,0.7-1.3s1-0.9,1.7-1.2C353.9,375.2,354.7,375.2,355.6,375.3z"/>
			<path class="st25" d="M368,409.5c-1-0.5-1.9-1.2-2.6-2.2s-1.2-2-1.5-3.2c-0.6-2.3-0.6-5-0.1-7.9c0.3-1.4,0.7-2.8,1.3-4.2
				c0.6-1.4,1.3-2.7,2.2-4c0.5-0.8,1.2-1.6,2-2.3c0.8-0.8,1.8-1.5,2.8-2c1-0.6,2.1-0.9,3.1-1c1-0.1,1.9,0.1,2.7,0.7
				c0.8,0.6,1.4,1.6,1.9,3.1l0.1,0.1c1.2,0.8,2.2,1.7,2.9,2.7c0.7,1,1.2,2,1.5,3.1c0.5,2.1,0.5,4.2-0.2,6.4c-0.8,2.6-2.2,5-4.1,7
				c-1.8,1.9-3.6,3.2-5.3,3.9c-1.3,0.5-2.5,0.8-3.6,0.8C370.1,410.2,369,410,368,409.5z M370.2,399.9c-0.2,1.8-0.2,3.1,0,4
				c0.2,0.8,0.6,1.3,1.1,1.4c0.5,0.1,1.1-0.1,1.7-0.6c0.6-0.5,1.3-1.2,1.9-2c0.6-0.8,1.1-1.8,1.6-2.9c0.5-1.1,0.8-2.2,1-3.3
				c0.2-1.1,0.2-2.1,0-2.9c-0.2-0.8-0.7-1.5-1.3-2c-0.6-0.5-1.4-1-2.3-1.3c-0.2,0.2-0.4,0.5-0.5,0.7c-0.8,1.1-1.5,2.5-2,4.1
				C370.8,396.7,370.4,398.3,370.2,399.9z"/>
			<path class="st25" d="M386.6,385.2c0.2-1.1,0.7-2,1.5-2.5c0.7-0.5,1.5-0.8,2.4-0.8c0.9,0,1.6,0.3,2.2,0.9
				c0.6,0.6,0.9,1.5,0.8,2.6l-0.1,0.6c0.9-0.7,1.8-1.1,2.7-1.4c1-0.2,1.7-0.3,2.4-0.3c0.9,0.1,1.6,0.4,2.1,1
				c0.5,0.6,0.6,1.3,0.5,2.1c-0.1,0.8-0.6,1.6-1.4,2.4c-0.5,0.5-1,0.8-1.3,0.9s-0.7,0.1-0.9,0c-0.2-0.1-0.5-0.3-0.6-0.5
				c-0.4-0.5-0.7-0.7-1.1-0.7c-0.3,0-0.7,0.3-1.2,1c-0.4,0.6-0.6,1.2-0.8,2c-0.2,0.8-0.3,1.5-0.4,2.2c-0.1,0.7-0.1,1.3-0.1,1.8
				c0,2.2,0.1,4.4,0.3,6.7c0.1,1.5,0.2,2.7,0.2,3.6c0,1.2-0.2,2-0.6,2.5c-0.4,0.5-1,0.8-1.6,0.7c-0.6-0.1-1.3-0.4-1.9-1.1
				c-0.9-1-1.5-2.5-2-4.7c-0.5-2.1-0.8-4.5-1-7c-0.2-2.5-0.3-4.9-0.2-7.1C386.3,388,386.4,386.3,386.6,385.2z"/>
			<path class="st25" d="M413.6,410.2c-2,0-3.7-0.5-5.3-1.4c-1.5-0.9-2.8-2.1-3.8-3.6c-1-1.5-1.8-3.2-2.3-5
				c-0.5-1.8-0.7-3.7-0.6-5.5c0.1-1.9,0.6-3.6,1.3-5.2c0.8-1.6,1.9-2.9,3.4-4c1.5-1.1,3.3-1.7,5.6-1.9c1.1-0.1,2.2-0.1,3.2,0.1
				c1,0.2,2,0.5,2.9,0.9c1.5,0.8,2.5,1.8,3,3c0.5,1.2,0.6,2.5,0.3,3.9c-0.3,1.4-0.8,2.7-1.6,4c-0.8,1.3-1.7,2.3-2.8,3.2
				c-1.6,1.3-3.4,2.3-5.4,3c-0.4,0.1-0.8,0.2-1.1,0.4l0.1,0.2c0.4,1.1,0.9,2,1.5,2.6c0.6,0.6,1.3,1,1.9,1c0.7,0,1.3-0.3,1.9-1
				c0.6-0.7,1-1.8,1.3-3.3c0-0.2,0.1-0.5,0.1-0.7c0-0.3,0.1-0.5,0.1-0.8c0.1-0.2,0.2-0.5,0.5-0.8c0.6-0.6,1.2-0.8,1.8-0.6
				c0.5,0.2,1,0.8,1.3,1.6s0.5,1.8,0.4,2.9c0,1.1-0.3,2.2-0.8,3.2c-0.5,1-1.4,1.9-2.5,2.6C417,409.8,415.5,410.1,413.6,410.2z
				 M408.9,392.2c-0.2,0.7-0.4,1.5-0.4,2.3s0.1,1.7,0.3,2.7c1.2-0.4,2.3-0.8,3.1-1.4c0.9-0.5,1.6-1,2.1-1.6c1.1-1.1,1.7-2.1,1.8-3
				c0.1-0.9,0-1.7-0.5-2.2c-0.5-0.6-1.1-0.9-1.9-0.9c-0.8,0-1.6,0.3-2.4,0.9C410.1,389.6,409.4,390.7,408.9,392.2z"/>
		</g>
		<g>
			<path class="st5" d="M326.2,398.8c-2-0.8-3.5-1.9-4.5-3.3c-1-1.5-1.5-3.2-1.4-5c0.1-1.6,0.6-3.3,1.5-4.9c0.8-1.4,1.8-2.7,3.1-3.9
				c1.3-1.2,2.7-2.3,4.4-3.1c1.2-0.6,2.5-1.1,3.9-1.6c2.2-0.7,4.3-1.1,6.3-1c2.5,0.1,4.3,0.8,5.5,2c1.2,1.2,1.6,2.8,1.2,4.7
				c-0.2,1.1-0.7,1.9-1.5,2.5c-0.8,0.6-1.6,0.9-2.4,1s-1.6-0.2-2.2-0.8c-0.6-0.6-0.8-1.5-0.8-2.8c0-0.8-0.2-1.3-0.8-1.5
				c-0.6-0.2-1.3-0.2-2.3,0.1c-0.9,0.3-1.9,0.8-3,1.5c-1.1,0.7-2.1,1.5-3,2.4c-0.9,0.9-1.7,1.9-2.3,2.9c-0.5,0.9-0.8,1.8-0.9,2.7
				c0,0.7,0.1,1.3,0.5,1.8c0.3,0.5,0.8,0.8,1.3,0.9c0.5,0.1,1.1,0.1,1.7,0s1.2-0.3,1.8-0.5c0.4-0.1,0.9-0.2,1.3-0.3
				c1.1-0.2,2.1-0.5,3-0.7c1-0.2,1.8-0.3,2.5-0.3c1.7,0,3.1,0.2,4.4,0.8s2.2,1.2,3,2.1c1,1.2,1.6,2.5,1.7,4c0.1,1.3-0.2,2.7-0.9,4
				c-0.5,1-1.2,1.9-2,2.8c-0.9,0.9-1.9,1.7-3.1,2.4c-1.2,0.7-2.7,1.2-4.5,1.7c-1.8,0.5-3.4,0.7-4.8,0.7c-1.5,0-2.9-0.3-4.1-0.8
				c-1.3-0.5-2.3-1.2-3-2.2c-0.8-0.9-1.1-2.1-1.1-3.4c0-0.8,0.2-1.6,0.7-2.3c0.5-0.7,1.1-1.2,1.9-1.5c0.8-0.3,1.7-0.3,2.7,0
				c0.7,0.2,1.2,0.5,1.6,1c0.4,0.4,0.5,0.9,0.3,1.4c-0.3,0.6-0.4,1.1-0.4,1.4c0,0.5,0.2,0.9,0.7,1.1c0.5,0.2,1.1,0.3,1.9,0.3
				c0.8,0,1.6-0.3,2.5-0.6c0.9-0.4,1.7-0.9,2.5-1.6c0.8-0.7,1.4-1.6,2-2.6c0.3-0.5,0.4-1,0.4-1.5c0-0.5-0.1-0.8-0.5-1.1
				c-0.3-0.3-0.9-0.4-1.7-0.4c-0.3,0-0.8,0.1-1.5,0.2c-0.7,0.1-1.4,0.3-2.2,0.5c-1.1,0.3-2.2,0.5-3.4,0.7c-1.1,0.2-2.2,0.3-3.2,0.4
				C327.9,399.2,327,399.1,326.2,398.8z"/>
			<path class="st5" d="M355.8,376.4c0.9,0.1,1.5,0.5,1.9,1c0.4,0.5,0.6,1.1,0.8,1.5h0.9c2,0,3.3,0.2,4.1,0.6c0.7,0.4,1,0.8,1,1.3
				c-0.1,0.5-0.4,1-0.9,1.3c-0.5,0.4-1.3,0.6-2.1,0.6c-0.5,0-0.9,0-1.2,0c-0.3,0-0.5,0-0.8,0h-1.1c-0.1,0.4-0.2,1.1-0.3,2
				c-0.1,0.9-0.2,2-0.3,3.3s-0.1,2.7-0.2,4.3c0,1.6-0.1,3.2,0,4.7s0.1,3,0.2,4.3c0.1,1.3,0.3,2.3,0.6,3.1s0.7,1.1,1.2,1
				c0.8-0.2,1.4-0.2,1.8,0c0.4,0.2,0.6,0.4,0.7,0.8c0.1,0.4,0.1,0.7,0,1.1s-0.3,0.7-0.5,1c-0.9,1-1.9,1.6-2.9,1.7
				c-1,0.1-2-0.1-3-0.7c-1-0.6-1.8-1.3-2.4-2.3c-0.6-1-1-2.1-1.3-3.3c-0.3-1.2-0.5-2.2-0.6-3.1c0-0.1,0-0.2,0-0.3
				c-0.4-2.7-0.6-5.4-0.7-8.3c-0.1-2.8,0-6,0.4-9.3h-2.2c-1,0-1.7-0.2-2.1-0.6c-0.4-0.4-0.6-0.8-0.6-1.3c0-0.5,0.4-1,1.1-1.4
				s1.9-0.6,3.7-0.6h0.5c0-0.3,0.3-0.7,0.7-1.2c0.4-0.5,1-0.9,1.6-1.2C354.2,376.3,355,376.3,355.8,376.4z"/>
			<path class="st5" d="M367.9,409.5c-1-0.5-1.9-1.2-2.5-2.1s-1.2-1.9-1.5-3.1c-0.6-2.3-0.6-4.8-0.1-7.7c0.3-1.3,0.7-2.7,1.3-4.1
				c0.6-1.4,1.3-2.7,2.1-3.9c0.5-0.8,1.1-1.5,2-2.3c0.8-0.8,1.7-1.4,2.7-2c1-0.6,2-0.9,3-1c1-0.1,1.9,0.1,2.7,0.6s1.4,1.5,1.8,3
				l0.1,0.1c1.2,0.8,2.1,1.7,2.8,2.6c0.7,1,1.2,2,1.5,3.1c0.5,2,0.5,4.1-0.2,6.2c-0.8,2.6-2.1,4.8-4,6.8c-1.8,1.8-3.5,3.1-5.1,3.8
				c-1.2,0.5-2.4,0.7-3.5,0.7C369.9,410.2,368.9,410,367.9,409.5z M370,400.3c-0.2,1.7-0.2,3,0,3.8s0.6,1.3,1,1.3
				c0.5,0.1,1-0.1,1.7-0.6s1.2-1.1,1.8-2c0.6-0.8,1.1-1.8,1.5-2.8c0.5-1.1,0.8-2.1,1-3.2c0.2-1.1,0.2-2,0-2.8
				c-0.2-0.8-0.6-1.5-1.2-2c-0.6-0.5-1.3-1-2.2-1.3c-0.2,0.2-0.4,0.5-0.5,0.7c-0.8,1.1-1.4,2.4-2,4
				C370.6,397.2,370.2,398.7,370,400.3z"/>
			<path class="st5" d="M385.9,386c0.2-1.1,0.7-1.9,1.4-2.4s1.5-0.8,2.3-0.8c0.8,0,1.6,0.3,2.1,0.9c0.6,0.6,0.8,1.4,0.8,2.5
				l-0.1,0.6c0.8-0.6,1.7-1.1,2.6-1.3c0.9-0.2,1.7-0.3,2.3-0.3c0.9,0.1,1.5,0.4,2,1c0.5,0.6,0.6,1.3,0.5,2.1
				c-0.1,0.8-0.6,1.6-1.4,2.4c-0.5,0.5-0.9,0.8-1.3,0.9c-0.3,0.1-0.6,0.1-0.9,0c-0.2-0.1-0.4-0.3-0.6-0.4c-0.4-0.5-0.7-0.7-1-0.7
				c-0.3,0-0.7,0.3-1.2,1c-0.3,0.5-0.6,1.2-0.8,1.9c-0.2,0.7-0.3,1.5-0.4,2.2c-0.1,0.7-0.1,1.3-0.1,1.8c0,2.1,0.1,4.3,0.3,6.5
				c0.1,1.5,0.1,2.6,0.2,3.5c0,1.1-0.2,1.9-0.6,2.4c-0.4,0.5-0.9,0.7-1.6,0.7c-0.6-0.1-1.2-0.4-1.9-1.1c-0.8-0.9-1.5-2.5-2-4.5
				c-0.5-2.1-0.8-4.3-1-6.8s-0.3-4.8-0.2-6.9C385.6,388.7,385.7,387.1,385.9,386z"/>
			<path class="st5" d="M412.1,410.2c-1.9,0-3.6-0.5-5.1-1.3c-1.5-0.9-2.7-2-3.7-3.5c-1-1.5-1.7-3.1-2.2-4.8
				c-0.5-1.8-0.7-3.5-0.5-5.3c0.1-1.8,0.5-3.5,1.3-5c0.8-1.5,1.8-2.8,3.3-3.8c1.4-1,3.3-1.6,5.4-1.8c1.1-0.1,2.1-0.1,3.1,0.1
				c1,0.2,1.9,0.4,2.8,0.9c1.5,0.8,2.5,1.7,2.9,2.9c0.5,1.2,0.6,2.4,0.3,3.8c-0.3,1.3-0.8,2.6-1.5,3.8c-0.8,1.2-1.7,2.3-2.7,3.1
				c-1.5,1.3-3.3,2.2-5.3,2.9c-0.4,0.1-0.7,0.2-1.1,0.3l0.1,0.2c0.4,1.1,0.9,1.9,1.5,2.5c0.6,0.6,1.2,0.9,1.9,1
				c0.7,0,1.3-0.3,1.8-0.9c0.6-0.7,1-1.7,1.2-3.2c0-0.2,0.1-0.4,0.1-0.6c0-0.3,0.1-0.5,0.1-0.7c0.1-0.2,0.2-0.5,0.5-0.8
				c0.6-0.6,1.2-0.8,1.7-0.6c0.5,0.2,1,0.8,1.3,1.6c0.3,0.8,0.5,1.7,0.4,2.8c0,1.1-0.3,2.1-0.8,3.1c-0.5,1-1.3,1.9-2.5,2.5
				C415.4,409.8,413.9,410.2,412.1,410.2z M407.5,392.8c-0.2,0.7-0.4,1.4-0.4,2.2c0,0.8,0,1.7,0.3,2.6c1.2-0.4,2.2-0.8,3-1.3
				c0.8-0.5,1.5-1,2.1-1.6c1-1.1,1.6-2,1.7-2.9c0.1-0.9,0-1.6-0.5-2.2c-0.5-0.6-1.1-0.8-1.9-0.9c-0.8,0-1.6,0.3-2.4,0.9
				C408.7,390.3,408,391.3,407.5,392.8z"/>
		</g>
	</g>
</g>
</svg>
