<?xml version="1.0" encoding="utf-8"?>
<!-- Generator: Adobe Illustrator 24.1.0, SVG Export Plug-In . SVG Version: 6.00 Build 0)  -->
<svg version="1.1" id="Capa_1" xmlns="http://www.w3.org/2000/svg" xmlns:xlink="http://www.w3.org/1999/xlink" x="0px" y="0px"
	 viewBox="0 0 198 203" style="enable-background:new 0 0 198 203;" xml:space="preserve">
<style type="text/css">
	.st0{opacity:0.57;fill:#2C326E;}
	.st1{fill:#ABD7ED;}
	.st2{fill:#2C326E;}
	.st3{fill:#E6E463;}
	.st4{fill:#EE91A9;}
	.st5{fill:#F6F6F6;}
	.st6{fill:#262B5E;}
	.st7{fill:#B1DFF6;}
	.st8{fill:#C6ADD4;}
	.st9{fill:#F5F2B4;}
	.st10{fill:#F1ED92;}
	.st11{fill:#272D49;}
	.st12{fill:#F5DAE8;}
	.st13{fill:#E3CCD6;}
	.st14{fill:#FBDDEB;}
	.st15{fill:#F9E7EE;}
	.st16{fill:#C29DC5;}
	.st17{fill:#28295D;}
	.st18{fill:#9F77B3;}
	.st19{fill:#FFFFFF;}
	.st20{fill:#F1ED91;}
	.st21{fill:#85C1EB;}
	.st22{fill:#639DBA;}
	.st23{fill:#272952;}
	.st24{fill:#94A6B9;}
	.st25{fill:#C6ADD4;stroke:#FFFFFF;stroke-width:6;}
</style>
<path class="st0" d="M114,172c4.52-4.4,12.36-7.94,17.84-10.21c2.78-1.15,5.75-1.83,8.61-2.79c2.11-0.72,2.35-1.12,1.55-4
	c-0.79-2.88-1.83-0.57-4,0c-10.02,2.65-17.69,5.79-26,12c-1.32,0.98-4.37,1.84-6,3c-0.97-2.25,0.17-4.77,1-6
	c12.9-19.16,31.94-29.2,55.14-29.94c4.36-0.14,8.74,0.03,13.11-0.06c2.48-0.05,3.7,0.82,3.69,3.47
	c-0.08,14.85,1.82,13.19-10.93,13.52c-2.35,0.06-2.66-0.14-5,0c-1.92,0.12-5.55,0.01-5.51,2.02c0.04,2.02,1.4,3.07,3.27,3.13
	c4.37,0.13,8.75,0.31,13.1,0.04c4.09-0.26,5.23,1.41,5.13,5.28c-0.32,12.42,1.68,12.43-9.99,12.53c-15.46,0.13-31.54-0.95-47-1
	C120.25,172.99,116.13,173.6,114,172z"/>
<path class="st0" d="M93,172c-3.89-2.66-7.99-5.98-11-8c-7.05-4.74-11.85-7.78-20-10c-2.02-0.55-5.14-1.53-6,1
	c-0.95,2.81-0.26,3.25,1.98,3.87c7.17,1.97,14.02,4.66,20.28,8.71c1.39,0.9,2.93,1.63,3.75,3.16C81.17,172.48,79.21,173,78,173
	c-17.82,0.04-35.18-0.17-53,0c-3.94,0.04-6.1-2-6-6c0.3-12.4-0.49-10.5,11.09-10.72c2.18-0.04,4.37,0.01,6.56-0.01
	c2.33-0.03,2.44-0.27,2.36-3.27c-0.08-3.01-0.73-1.98-3-2c-4.2-0.04-6.92-1.02-11,0c-4,1-5.79-2.15-6-5
	c-0.88-11.86-1-13,11.73-11.97c24.94-0.66,44.76,8.69,59.17,29.12c0.77,1.09,1.44,2.26,2.09,3.43C92.21,167,92.6,170.17,93,172z"/>
<path class="st1" d="M98.1,178c26.4,0,52.8-0.01,79.2,0.02c3.83,0,8.74-0.63,8.85,5.26c0.11,5.98-4.78,5.45-8.64,5.45
	c-52.97,0.02-105.94,0.01-158.9,0.01c-0.17,0-0.34,0-0.5,0c-3.78-0.04-8.25,0.17-8.11-5.49c0.14-5.55,4.66-5.24,8.4-5.24
	C44.97,177.99,71.54,178,98.1,178z"/>
<path class="st2" d="M78.88,141.37c-3.82-4.71-7.94-8.42-12.49-11.64c-14.08-9.96-29.6-15.81-47-16.14
	c-0.83-0.02-1.67-0.04-2.49-0.16c-1.8-0.27-3.29-1.05-3.24-3.11c0.06-2.09,1.64-2.94,3.43-2.85c4.65,0.22,9.35,0.31,13.93,1.1
	c27.52,4.71,48.61,19.07,63.38,42.74c4.62,7.41,4.64,7.47,9.3-0.22c4.7-7.76,10.4-14.67,17.21-20.65c0.88-0.77,1.74-1.57,2.68-2.24
	c1.41-1.01,3.04-1.85,4.5-0.34c1.66,1.7,0.77,3.39-0.63,4.8c-2.86,2.89-6.16,5.36-8.64,8.85c1.94,0.93,2.72-0.21,3.6-0.81
	c12.96-8.87,27.39-12.65,42.97-12.48c4.5,0.05,9,0.13,13.5-0.01c4.32-0.14,5.91,1.86,5.86,6.06c-0.13,11.16,0.02,22.33-0.07,33.49
	c-0.02,2.83,0.52,4.94,3.07,6.79c4.86,3.53,6.14,7.9,4.42,12.63c-1.77,4.88-5.78,7.6-11.68,7.6c-26.83,0.04-53.66,0.03-80.49,0.03
	c-27.16,0-54.32,0.01-81.49-0.01c-6.74,0-10.92-2.53-12.73-7.55c-1.81-5.04-0.49-8.89,5.13-13.26c2.05-1.59,2.34-3.4,2.33-5.64
	c-0.02-11.16-0.03-22.33,0.01-33.49c0.02-5.87,0.74-6.64,6.69-6.6c8.32,0.05,16.67-0.51,24.96,0.71
	c10.36,1.53,20.04,4.83,28.86,10.59C75.07,140.4,76.17,141.92,78.88,141.37z M99.01,188.86c25.66,0,51.32,0,76.99-0.01
	c1.83,0,3.68,0.04,5.49-0.19c2.98-0.39,5.07-2.01,5-5.2c-0.06-2.94-2.08-4.47-4.84-4.83c-1.97-0.26-3.99-0.24-5.99-0.24
	c-51.16-0.01-102.31-0.01-153.47-0.01c-1.83,0-3.67,0-5.49,0.19c-2.97,0.31-5.19,1.81-5.25,4.98c-0.06,3.19,2.11,4.77,5.09,5.11
	c1.98,0.22,3.99,0.19,5.99,0.19C48.02,188.86,73.51,188.86,99.01,188.86z M115.89,171.17c2.24,1.77,4.3,1.14,6.19,1.15
	c15.14,0.06,30.29,0.17,45.43-0.02c12.11-0.15,10.86,2.76,10.94-11.76c0.02-3.08-1.44-4.07-4.28-4.02
	c-4.16,0.08-8.32,0.04-12.48-0.07c-2.05-0.05-4.33-0.37-4.33-3.05c0-2.68,2.25-2.98,4.32-3.02c4.16-0.07,8.32-0.02,12.48-0.08
	c1.65-0.02,3.76,0.06,4-2.08c0.48-4.12,1.41-8.69-0.38-12.3c-1.5-3.04-5.76-1.07-8.78-1.38c-2.14-0.22-4.32-0.05-6.49-0.01
	c-23.43,0.34-41.44,10.62-54.5,29.87c-0.93,1.37-2.55,2.71-1.4,5.18c3.96-2.66,7.74-5.29,11.62-7.79c6.22-4,13.09-6.51,20.17-8.44
	c1.94-0.53,4.25-0.91,5.05,1.65c0.8,2.59-1.27,3.47-3.25,4.13c-2.36,0.79-4.8,1.38-7.12,2.28
	C126.96,163.79,120.94,166.39,115.89,171.17z M91.82,169.94c0.1-3.31-1.33-4.81-2.45-6.41c-14.32-20.5-34.07-29.94-58.97-29.04
	c-12.23,0.44-10.71-2.4-10.9,11.3c-0.05,3.6,1.61,4.65,4.85,4.57c3.99-0.1,7.99-0.03,11.98,0.03c2.11,0.03,4.3,0.41,4.27,3.07
	c-0.03,2.67-2.34,2.92-4.37,3.02c-2.32,0.11-4.66,0.02-6.99,0.05c-10.71,0.14-9.45-1.35-9.8,10.05c-0.15,4.74,1.65,5.9,6.07,5.84
	c17.14-0.2,34.28-0.06,51.42-0.11c1.55,0,3.31,0.59,4.7-0.85c-0.48-2.11-2.37-2.71-3.82-3.67c-5.61-3.68-11.74-6.2-18.16-8.12
	c-2.41-0.72-6.21-1.02-5.04-4.69c1.13-3.56,4.5-1.75,6.89-1.05c7.22,2.1,14.14,4.9,20.36,9.23
	C84.98,165.32,88.12,167.42,91.82,169.94z"/>
<path class="st3" d="M124.98,28.68c0.14,2.26-1.93,3.53-3.79,4.93c-7.52,5.66-7.54,5.66-4.89,14.81c0.61,2.11,1.33,4.32,0.22,6.31
	c-1.92,3.42-5.38,4.23-7.99,1.73c-6.6-6.32-12.57-6.49-19.03,0.02c-1.73,1.74-4.29,1.71-6.47,0.17c-2.23-1.58-2.85-4.12-1.8-6.23
	c4.08-8.18,2.31-14.04-6-18.08c-2.38-1.16-2.67-3.71-2.03-6.15c0.7-2.65,2.88-4.06,5.27-3.66c9.15,1.52,13.95-2.31,15.46-11.26
	c0.4-2.35,2.26-4.03,5.04-4.04c2.78-0.01,4.62,1.67,5.04,4.03c1.56,8.87,6.31,12.66,15.46,11.31
	C122.82,22.07,125.02,24.41,124.98,28.68z M115.62,28.78c-3.06-0.14-5.18-0.26-7.3-0.34c-2.43-0.09-4.66-0.52-5.66-3.16
	c-0.76-2.02-1.48-4.05-2.33-6.03c-0.22-0.52-0.87-1.22-1.32-1.22c-1.56,0-1.68,1.53-1.91,2.52c-1.29,5.52-3.94,9.03-10.32,8.04
	c-1.16-0.18-3.01-0.63-3.47,0.96c-0.43,1.49,1.27,2.28,2.3,2.88c4.75,2.77,6.42,6.37,3.83,11.57c-0.62,1.25-1.59,3.11-0.14,4.1
	c1.44,0.99,2.86-0.63,3.83-1.58c3.94-3.85,7.72-3.97,11.62-0.03c0.46,0.46,1.06,0.8,1.62,1.15c0.69,0.43,1.44,1.11,2.26,0.58
	c1.04-0.67,0.8-1.89,0.37-2.69c-3.48-6.52-0.99-10.93,4.81-14.31C114.31,30.92,114.57,30.22,115.62,28.78z"/>
<path class="st1" d="M33.99,46.77c1.83,0.16,2.52,1.4,2.77,3c1.45,9.1,6.17,14.88,15.82,15.81c1.75,0.17,3.28,0.98,3.27,3.09
	c-0.02,2.09-1.51,2.82-3.29,3.06c-9.16,1.23-14.14,6.66-15.71,15.54c-0.3,1.67-0.63,3.42-2.82,3.51c-2.15,0.09-2.85-1.49-3.13-3.21
	C29.42,78.43,24.46,72.85,15,71.7c-1.81-0.22-3.24-1.1-3.13-3.18c0.09-1.79,1.43-2.63,3.02-2.8C24.66,64.7,29.63,58.98,31,49.58
	C31.23,47.97,32.17,46.85,33.99,46.77z M33.65,62.38c-1.14,0.12-6.24,5.76-6.1,6.74c0.21,1.48,5.8,6.52,6.77,5.9
	c2.48-1.6,4.88-3.47,5.91-6.38C40.58,67.62,34.7,62.27,33.65,62.38z"/>
<path class="st4" d="M164.07,46.81c1.93,0.04,2.72,1.44,2.99,3.21c1.39,9.23,6.44,14.66,15.95,15.66c1.75,0.18,3.19,1.13,3.05,3.26
	c-0.12,1.84-1.43,2.56-3.02,2.75c-9.4,1.15-14.5,6.61-15.97,15.78c-0.28,1.72-0.86,3.32-3.02,3.31c-2.18-0.01-2.67-1.65-2.95-3.36
	c-1.48-8.91-6.39-14.38-15.55-15.66c-1.75-0.25-3.32-0.8-3.4-2.93c-0.08-2.13,1.42-2.99,3.16-3.17c9.58-0.99,14.34-6.69,15.9-15.79
	C161.59,47.57,162.47,46.9,164.07,46.81z M170.48,68.72c-0.03-1.19-5.65-6.7-6.59-6.23c-2.7,1.36-4.7,3.61-6.18,6.19
	c-0.53,0.92,5.07,6.51,6.31,6.54C165.21,75.24,170.51,69.9,170.48,68.72z"/>
<path class="st4" d="M77.6,91.9c0,4.48,0.05,8.95-0.03,13.43c-0.04,2.12-0.68,4.22-3.28,4.06c-2.29-0.14-2.76-2.2-2.77-4.08
	c-0.06-9.12-0.07-18.23,0-27.35c0.01-2.08,0.52-4.19,3.28-3.99c2.38,0.17,2.76,2.11,2.78,4.01C77.65,82.62,77.61,87.26,77.6,91.9z"
	/>
<path class="st1" d="M101.87,117.65c0,5.16,0.02,10.32,0,15.48c-0.01,1.96-0.34,3.82-2.86,3.83c-2.5,0.01-2.89-1.83-2.9-3.8
	c-0.01-10.32-0.02-20.64,0.01-30.97c0-1.93,0.34-3.86,2.84-3.86c2.47,0,2.88,1.87,2.89,3.83
	C101.88,107.33,101.86,112.49,101.87,117.65z"/>
<path class="st3" d="M126.29,91.98c0,4.49,0.06,8.98-0.03,13.46c-0.04,1.9-0.5,3.91-2.88,3.94c-2.35,0.03-2.97-1.91-2.99-3.84
	c-0.06-9.31-0.05-18.62,0-27.93c0.01-2.01,0.77-3.71,3.16-3.63c2.17,0.07,2.67,1.78,2.7,3.53c0.07,4.82,0.02,9.64,0.02,14.46
	C126.28,91.98,126.29,91.98,126.29,91.98z"/>
<path class="st2" d="M157.26,116.83c-2.12,0.08-3.58-0.17-4-2.02c-0.39-1.74,0.45-2.97,2.03-3.5c8.41-2.79,17.08-3.92,25.91-3.81
	c1.59,0.02,2.96,0.79,3.08,2.62c0.14,2.07-1.25,3.19-3.02,3.24C172.94,113.62,164.76,114.69,157.26,116.83z"/>
<path class="st4" d="M101.7,80.84c-0.07,2.08-1.01,3.02-2.75,3.04c-1.5,0.02-2.5-0.78-2.63-2.31c-0.14-1.72,0.8-2.89,2.45-3.07
	C100.52,78.31,101.31,79.59,101.7,80.84z"/>
<path class="st1" d="M142.91,120.83c-0.19,1.48-0.99,2.6-2.51,2.59c-1.77-0.01-2.75-1.21-2.63-2.95c0.11-1.54,1.15-2.4,2.72-2.29
	C142.05,118.29,142.85,119.24,142.91,120.83z"/>
<path class="st3" d="M55.91,95.83c-0.19,1.48-0.99,2.6-2.51,2.59c-1.77-0.01-2.75-1.21-2.63-2.95c0.11-1.54,1.15-2.4,2.72-2.29
	C55.05,93.29,55.85,94.24,55.91,95.83z"/>
<g>
	<path class="st5" d="M-159.08,2.93c0-8.85-7.23-16.03-16.14-16.03c-0.56,0-1.11,0.03-1.65,0.08c0.03-0.31,0.05-0.63,0.05-0.95
		c0-4.96-4.05-8.98-9.04-8.98c-1.15,0-2.25,0.21-3.26,0.6c-1.18-3.79-4.74-6.55-8.95-6.55c-5.18,0-9.37,4.17-9.37,9.31
		c0,0.13,0,0.26,0.01,0.39c-1.32-1.33-3.15-2.15-5.17-2.15c-4.01,0-7.27,3.23-7.27,7.22c0,0.24,0.01,0.48,0.04,0.72
		c-0.87-0.14-1.76-0.21-2.68-0.21c-9.26,0-16.77,7.46-16.77,16.65c0,9.2,7.51,16.65,16.77,16.65c1.1,0,2.17-0.11,3.21-0.31
		c0.47,4.97,4.68,8.86,9.8,8.86c3.75,0,7-2.08,8.67-5.14c0.94,0.42,1.98,0.65,3.08,0.65c1.95,0,3.73-0.73,5.07-1.93
		c1.87,2.32,4.74,3.81,7.96,3.81c4.41,0,8.16-2.78,9.58-6.67C-166.26,18.91-159.08,11.76-159.08,2.93z"/>
	<path class="st6" d="M-219.3,18.45c0.2,0,0.39,0.06,0.56,0.18c0.21,0.15,0.34,0.39,0.37,0.65c0.43,4.58,4.25,8.03,8.88,8.03
		c3.28,0,6.29-1.78,7.85-4.65c0.23-0.42,0.75-0.6,1.19-0.4c0.86,0.38,1.77,0.57,2.7,0.57c1.65,0,3.23-0.6,4.45-1.7
		c0.19-0.17,0.44-0.25,0.69-0.23c0.25,0.02,0.49,0.14,0.65,0.34c1.77,2.2,4.41,3.46,7.24,3.46c3.89,0,7.38-2.44,8.71-6.06
		c0.13-0.36,0.48-0.6,0.86-0.61c8.35-0.04,15.14-6.82,15.14-15.11c0-8.33-6.82-15.11-15.21-15.11c-0.52,0-1.04,0.03-1.55,0.08
		c-0.28,0.03-0.55-0.07-0.75-0.27c-0.2-0.2-0.29-0.47-0.26-0.74c0.03-0.29,0.04-0.57,0.04-0.85c0-4.45-3.64-8.06-8.12-8.06
		c-1.01,0-1.99,0.18-2.93,0.54c-0.24,0.09-0.51,0.08-0.74-0.03c-0.23-0.11-0.41-0.31-0.48-0.56c-1.1-3.53-4.34-5.9-8.07-5.9
		c-4.66,0-8.45,3.76-8.45,8.39c0,0.12,0,0.24,0.01,0.35c0.01,0.38-0.21,0.73-0.56,0.88c-0.35,0.15-0.76,0.07-1.03-0.2
		c-1.2-1.21-2.81-1.88-4.52-1.88c-3.5,0-6.34,2.83-6.34,6.3c0,0.21,0.01,0.42,0.03,0.63c0.03,0.28-0.08,0.56-0.29,0.76
		s-0.5,0.28-0.78,0.24c-0.84-0.13-1.69-0.2-2.53-0.2c-8.73,0-15.84,7.06-15.84,15.74c0,8.68,7.11,15.74,15.84,15.74
		c1.01,0,2.03-0.1,3.04-0.29C-219.41,18.46-219.35,18.45-219.3,18.45z M-209.49,29.15c-5.26,0-9.65-3.69-10.59-8.72
		c-0.81,0.11-1.62,0.17-2.43,0.17c-9.76,0-17.69-7.88-17.69-17.57c0-9.69,7.94-17.57,17.69-17.57c0.57,0,1.14,0.03,1.72,0.08
		c0.17-4.34,3.78-7.81,8.19-7.81c1.56,0,3.05,0.43,4.34,1.24c0.71-4.96,5.01-8.78,10.19-8.78c4.22,0,7.94,2.5,9.52,6.32
		c0.87-0.24,1.78-0.37,2.69-0.37c5.48,0,9.95,4.42,9.97,9.86c0.22-0.01,0.45-0.01,0.67-0.01c9.41,0,17.06,7.6,17.06,16.95
		c0,9.09-7.28,16.56-16.35,16.93c-1.74,4.02-5.77,6.68-10.21,6.68c-3.08,0-5.98-1.25-8.07-3.46c-1.44,1.02-3.17,1.58-4.96,1.58
		c-0.92,0-1.82-0.14-2.68-0.43C-202.4,27.29-205.81,29.15-209.49,29.15z"/>
	<path class="st7" d="M-209.49,29.15c-3.17,0-6.03-1.34-8-3.5C-215.52,27.82-212.66,29.15-209.49,29.15c3.68,0,7.08-1.86,9.05-4.9
		C-202.41,27.3-205.81,29.15-209.49,29.15z"/>
	<path class="st1" d="M-209.49,27.32c-4.64,0-8.45-3.45-8.88-8.03c-0.02-0.26-0.16-0.49-0.37-0.65c-0.16-0.12-0.36-0.18-0.56-0.18
		c-0.06,0-0.12,0.01-0.18,0.02c-1.01,0.19-2.03,0.29-3.04,0.29c-7.31,0-13.47-4.94-15.3-11.63c0.02,0.03,0.04,0.06,0.07,0.08
		c2.24,2.92,5.29,4.05,8.87,4.46c3.7,0.41,8.24,0.03,11.12,2.82c1.74,1.68,2.42,4.16,4.15,5.84c0.8,0.77,1.72,1.07,2.68,1.07
		c1.24,0,2.54-0.49,3.67-1.06c1.47-0.74,2.82-1.68,4.49-1.68c0.13,0,0.25,0,0.38,0.02c1.65,0.14,3.09,0.69,4.7,0.69
		c0.31,0,0.62-0.02,0.94-0.07c1.45-0.21,2.68-0.74,4-0.74c0.15,0,0.29,0.01,0.44,0.02c-0.01,0.26-0.02,0.52-0.02,0.79
		c0,0.04,0,0.09,0.01,0.13c-0.11,0-0.35-0.09-0.31-0.01c1.2,2.3-0.72,3.36-4.54,3.31c-0.2,0-0.4,0.03-0.6,0.03
		c-0.94,0-1.85-0.19-2.7-0.57c-0.12-0.05-0.25-0.08-0.38-0.08c-0.33,0-0.65,0.18-0.81,0.48C-203.2,25.53-206.21,27.32-209.49,27.32z
		 M-182.14,24.34c-0.74-1.15-1.85-1.83-3.12-1.88c0.07-0.2,0.14-0.4,0.21-0.61c0.65,0.29,1.37,0.33,1.94,0.33
		c0.48,0,1.13-0.09,1.72-0.22c0.34,0.5,0.57,1.18,0.61,1.88C-181.22,24.04-181.68,24.21-182.14,24.34z M-189.77,23.21
		c-0.25-0.16-0.48-0.33-0.71-0.51c0.25-0.33,0.41-0.75,0.41-1.2c0-0.07-0.01-0.14-0.01-0.22c0.6-0.07,1.11-0.41,1.42-0.89
		C-189,21.39-189.36,22.37-189.77,23.21z M-177.41,21.16c-0.16-0.38-0.34-0.75-0.56-1.09c1.3-1.31,2.09-3.06,2.1-4.75
		c0.03-1.16-0.25-2.27-0.78-3.23c0.97-0.4,2.05-0.61,3.04-0.84c2.12-0.49,4.2-1.12,4.98-3.34c0.68-1.95,0.23-4.21-0.68-6.18
		l2.66-11.27c4.01,2.72,6.64,7.3,6.64,12.48c0,5.81-3.34,10.88-8.21,13.4c-0.67-0.66-1.6-1.05-2.71-1.08h-0.04
		c-1.17,0-2.86,0.5-4.42,2.82c-0.29,0.08-0.53,0.29-0.63,0.57C-176.34,19.57-176.82,20.41-177.41,21.16z"/>
	<path class="st7" d="M-185.39,26.52c-0.02,0-0.04,0-0.06,0C-185.43,26.52-185.41,26.52-185.39,26.52z M-181.52,26.07
		c0.08-0.02,0.15-0.05,0.23-0.07C-181.37,26.03-181.44,26.05-181.52,26.07z M-190.76,24.77c-0.6-0.39-1.17-0.84-1.69-1.35
		C-191.93,23.93-191.36,24.38-190.76,24.77z M-222.56,20.6C-222.56,20.6-222.56,20.6-222.56,20.6
		C-222.57,20.6-222.56,20.6-222.56,20.6z M-222.62,20.6C-222.62,20.6-222.62,20.6-222.62,20.6C-222.62,20.6-222.62,20.6-222.62,20.6
		z M-222.63,20.6C-222.63,20.6-222.64,20.6-222.63,20.6C-222.64,20.6-222.63,20.6-222.63,20.6z M-222.64,20.6c0,0-0.01,0-0.01,0
		C-222.65,20.6-222.64,20.6-222.64,20.6z M-222.66,20.6c0,0-0.01,0-0.01,0C-222.66,20.6-222.66,20.6-222.66,20.6z M-222.67,20.6
		c0,0-0.01,0-0.01,0C-222.68,20.6-222.67,20.6-222.67,20.6z M-222.68,20.6c0,0-0.01,0-0.01,0C-222.69,20.6-222.69,20.6-222.68,20.6z
		 M-222.7,20.6c0,0-0.01,0-0.01,0C-222.71,20.6-222.7,20.6-222.7,20.6z M-222.71,20.6c0,0-0.01,0-0.01,0
		C-222.72,20.6-222.72,20.6-222.71,20.6z M-222.73,20.6C-222.73,20.6-222.73,20.6-222.73,20.6C-222.73,20.6-222.73,20.6-222.73,20.6
		z M-222.74,20.6C-222.75,20.6-222.75,20.6-222.74,20.6C-222.75,20.6-222.75,20.6-222.74,20.6z M-222.76,20.6c0,0-0.01,0-0.01,0
		C-222.76,20.6-222.76,20.6-222.76,20.6z M-222.77,20.6C-222.77,20.6-222.78,20.6-222.77,20.6C-222.78,20.6-222.77,20.6-222.77,20.6
		z M-222.79,20.6C-222.79,20.6-222.79,20.6-222.79,20.6C-222.79,20.6-222.79,20.6-222.79,20.6z M-222.8,20.6
		C-222.8,20.6-222.81,20.6-222.8,20.6C-222.81,20.6-222.8,20.6-222.8,20.6z M-222.82,20.6C-222.82,20.6-222.82,20.6-222.82,20.6
		C-222.82,20.6-222.82,20.6-222.82,20.6z M-222.83,20.6C-222.83,20.6-222.83,20.6-222.83,20.6C-222.83,20.6-222.83,20.6-222.83,20.6
		z M-222.85,20.6C-222.85,20.6-222.85,20.6-222.85,20.6C-222.85,20.6-222.85,20.6-222.85,20.6z M-222.86,20.6
		C-222.86,20.6-222.86,20.6-222.86,20.6C-222.86,20.6-222.86,20.6-222.86,20.6z M-222.87,20.6C-222.88,20.6-222.88,20.6-222.87,20.6
		C-222.88,20.6-222.87,20.6-222.87,20.6z M-222.89,20.6C-222.89,20.6-222.89,20.6-222.89,20.6C-222.89,20.6-222.89,20.6-222.89,20.6
		z M-222.9,20.6C-222.9,20.6-222.9,20.6-222.9,20.6C-222.91,20.6-222.9,20.6-222.9,20.6z M-222.95,20.59
		C-222.95,20.59-222.95,20.59-222.95,20.59C-222.95,20.59-222.95,20.59-222.95,20.59z M-222.96,20.59L-222.96,20.59
		C-222.96,20.59-222.96,20.59-222.96,20.59z M-222.98,20.59C-222.98,20.59-222.98,20.59-222.98,20.59
		C-222.98,20.59-222.98,20.59-222.98,20.59z M-222.99,20.59C-222.99,20.59-222.99,20.59-222.99,20.59
		C-222.99,20.59-222.99,20.59-222.99,20.59z M-223,20.59C-223.01,20.59-223.01,20.59-223,20.59
		C-223.01,20.59-223.01,20.59-223,20.59z M-223.02,20.59L-223.02,20.59L-223.02,20.59z M-171.5,19.47c0.17-0.04,0.34-0.08,0.51-0.12
		C-171.15,19.39-171.32,19.43-171.5,19.47z M-167.27,17.92c5.36-2.82,9.04-8.4,9.11-14.8C-158.23,9.52-161.91,15.09-167.27,17.92z"
		/>
	<path class="st7" d="M-158.17,2.23c-0.14-3.47-1.34-6.67-3.28-9.3C-159.51-4.44-158.31-1.24-158.17,2.23z"/>
	<path class="st6" d="M-219.3,18.45c0.2,0,0.39,0.06,0.56,0.18c0.21,0.15,0.34,0.39,0.37,0.65c0.43,4.58,4.25,8.03,8.88,8.03
		c3.28,0,6.29-1.78,7.85-4.65c0.23-0.42,0.75-0.6,1.19-0.4c0.86,0.38,1.77,0.57,2.7,0.57c1.65,0,3.23-0.6,4.45-1.7
		c0.19-0.17,0.44-0.25,0.69-0.23c0.25,0.02,0.49,0.14,0.65,0.34c1.77,2.2,4.41,3.46,7.24,3.46c3.89,0,7.38-2.44,8.71-6.06
		c0.13-0.36,0.48-0.6,0.86-0.61c8.35-0.04,15.14-6.82,15.14-15.11c0-8.33-6.82-15.11-15.21-15.11c-0.52,0-1.04,0.03-1.55,0.08
		c-0.28,0.03-0.55-0.07-0.75-0.27c-0.2-0.2-0.29-0.47-0.26-0.74c0.03-0.29,0.04-0.57,0.04-0.85c0-4.45-3.64-8.06-8.12-8.06
		c-1.01,0-1.99,0.18-2.93,0.54c-0.24,0.09-0.51,0.08-0.74-0.03c-0.23-0.11-0.41-0.31-0.48-0.56c-1.1-3.53-4.34-5.9-8.07-5.9
		c-4.66,0-8.45,3.76-8.45,8.39c0,0.12,0,0.24,0.01,0.35c0.01,0.38-0.2,0.73-0.56,0.88c-0.35,0.15-0.76,0.07-1.03-0.2
		c-1.2-1.21-2.81-1.88-4.52-1.88c-3.5,0-6.34,2.83-6.34,6.3c0,0.21,0.01,0.42,0.03,0.63c0.03,0.28-0.08,0.56-0.29,0.76
		s-0.5,0.28-0.78,0.24c-0.84-0.13-1.69-0.2-2.53-0.2c-8.73,0-15.84,7.06-15.84,15.74c0,8.68,7.11,15.74,15.84,15.74
		c1.01,0,2.03-0.1,3.04-0.29C-219.41,18.46-219.35,18.45-219.3,18.45z M-209.49,29.15c-5.26,0-9.65-3.69-10.59-8.72
		c-0.81,0.11-1.62,0.17-2.43,0.17c-9.76,0-17.69-7.88-17.69-17.57c0-9.69,7.94-17.57,17.69-17.57c0.57,0,1.14,0.03,1.72,0.08
		c0.17-4.34,3.78-7.81,8.19-7.81c1.56,0,3.05,0.43,4.34,1.24c0.71-4.96,5.01-8.78,10.19-8.78c4.22,0,7.94,2.5,9.52,6.32
		c0.87-0.24,1.78-0.37,2.69-0.37c5.48,0,9.95,4.42,9.97,9.86c0.22-0.01,0.45-0.01,0.67-0.01c9.41,0,17.33,7.8,17.33,17.14
		c0,9.09-7.54,16.36-16.61,16.74c-1.74,4.02-5.77,6.68-10.21,6.68c-3.08,0-5.98-1.25-8.07-3.46c-1.44,1.02-3.17,1.58-4.96,1.58
		c-0.92,0-2.24-1.22-2.68-0.43C-202.51,27.94-205.81,29.15-209.49,29.15z"/>
	<path class="st6" d="M-165.23-2.39c1,3.24,1.63,6.67,0.68,10c-0.18,0.63,0.8,0.89,0.98,0.27c1-3.49,0.37-7.12-0.68-10.53
		C-164.44-3.28-165.42-3.01-165.23-2.39z"/>
	<path class="st6" d="M-165.65,13.05c0.49-0.65,0.98-1.3,1.36-2.02c0.3-0.58-0.58-1.09-0.88-0.51c-0.37,0.72-0.87,1.37-1.36,2.02
		C-166.92,13.06-166.04,13.56-165.65,13.05z"/>
	<path class="st6" d="M-234.73,7.61c-1.5-3.71-1.29-8.61,1.13-11.89c0.39-0.53-0.5-1.03-0.88-0.51c-2.56,3.48-2.82,8.75-1.24,12.67
		C-235.47,8.47-234.48,8.22-234.73,7.61z"/>
	<path class="st6" d="M-194.75-25.56c0.28,0.28,0.58,0.55,0.77,0.91c0.13,0.24,0.46,0.32,0.7,0.18c0.25-0.14,0.31-0.45,0.18-0.69
		c-0.23-0.43-0.59-0.77-0.93-1.11C-194.49-26.73-195.21-26.02-194.75-25.56z"/>
	<path class="st6" d="M-209.8,25.25c1.09-0.01,2.09-0.23,2.9-0.99c0.48-0.45-0.24-1.16-0.72-0.71c-0.61,0.57-1.37,0.69-2.18,0.69
		C-210.46,24.24-210.46,25.25-209.8,25.25z"/>
	<path class="st8" d="M-196.42-47.8c-0.03-0.01-0.05-0.02-0.07-0.03l-0.35-0.25l-0.04-0.04l-0.84-1.03
		c-0.04-0.05-0.06-0.12-0.04-0.18c0.01-0.06,0.06-0.12,0.11-0.15c0.02-0.01,0.04-0.02,0.06-0.03c0.06-0.03,0.12-0.07,0.19-0.09
		c0.12-0.04,0.22-0.05,0.33-0.05l0.03,0c0.11-0.01,0.23-0.02,0.37,0.01c0.06,0.01,0.11,0.05,0.14,0.1l0.25,0.41l0.02,0.04
		c0.23,0.67,0.13,1.09,0.12,1.14c-0.02,0.07-0.07,0.12-0.14,0.15C-196.34-47.8-196.38-47.8-196.42-47.8z"/>
	<path class="st6" d="M-196.64-49.86c-0.16-0.04-0.31-0.03-0.43-0.02l-0.03,0c-0.11,0.01-0.24,0.01-0.38,0.06
		c-0.1,0.03-0.18,0.08-0.23,0.11l-0.05,0.03c-0.12,0.06-0.2,0.17-0.23,0.3c-0.03,0.13,0.01,0.26,0.09,0.36l0.84,1.03
		c0.03,0.03,0.06,0.06,0.09,0.08l0.35,0.25c0.05,0.03,0.1,0.06,0.15,0.07c0.08,0.02,0.17,0.01,0.25-0.01
		c0.13-0.05,0.23-0.16,0.27-0.3c0.01-0.05,0.13-0.53-0.13-1.27c-0.01-0.03-0.02-0.06-0.04-0.08l-0.25-0.41
		C-196.42-49.76-196.52-49.84-196.64-49.86z M-196.74-49.44l0.25,0.41c0.22,0.63,0.12,1.01,0.12,1.01l-0.35-0.25l-0.84-1.03
		c0.07-0.04,0.15-0.09,0.23-0.11c0.09-0.03,0.18-0.04,0.27-0.04C-196.96-49.45-196.85-49.47-196.74-49.44z"/>
	<path class="st9" d="M-202.65-1.82c-1.17-0.27-1.9-1.44-1.62-2.6l0.1-0.42c0.28-1.16,1.45-1.89,2.62-1.61l6.7,1.56
		c1.17,0.27,1.9,1.44,1.62,2.6l-0.1,0.42c-0.28,1.16-1.45,1.89-2.62,1.61L-202.65-1.82z"/>
	<path class="st6" d="M-194.76-5.32l-6.7-1.56c-1.4-0.33-2.81,0.54-3.14,1.94l-0.1,0.42c-0.33,1.4,0.54,2.79,1.95,3.12l6.7,1.56
		c1.4,0.33,2.81-0.54,3.14-1.94l0.1-0.42C-192.48-3.59-193.36-4.99-194.76-5.32z M-194.96-4.48c0.94,0.22,1.52,1.15,1.3,2.08
		l-0.1,0.42c-0.22,0.93-1.16,1.51-2.09,1.29l-6.7-1.56c-0.94-0.22-1.52-1.15-1.3-2.08l0.1-0.42c0.22-0.93,1.16-1.51,2.09-1.29
		L-194.96-4.48z"/>
	<path class="st10" d="M-227.05-9.51c-0.23-0.06-0.38-0.29-0.32-0.52l8.94-37.86c0.06-0.23,0.29-0.38,0.52-0.32l27.76,6.47
		c0.23,0.06,0.38,0.29,0.32,0.52l-8.94,37.86c-0.06,0.23-0.29,0.38-0.52,0.32L-227.05-9.51z"/>
	<path class="st6" d="M-190.06-42.17l-27.76-6.47c-0.47-0.11-0.94,0.18-1.05,0.64l-8.94,37.86c-0.11,0.46,0.18,0.93,0.65,1.04
		l27.76,6.46c0.47,0.11,0.94-0.18,1.05-0.64l8.94-37.86C-189.3-41.59-189.59-42.06-190.06-42.17z M-190.26-41.32l-8.94,37.86
		l-27.76-6.47l8.94-37.86L-190.26-41.32z"/>
	<path class="st10" d="M-198.41-2.84c-0.23-0.06-0.38-0.29-0.32-0.52l8.94-37.86c0.06-0.23,0.29-0.38,0.53-0.32l27.76,6.47
		c0.23,0.06,0.38,0.29,0.32,0.52l-8.94,37.86c-0.06,0.23-0.29,0.38-0.52,0.32L-198.41-2.84z"/>
	<path class="st6" d="M-161.42-35.5l-27.76-6.47c-0.47-0.11-0.94,0.18-1.05,0.65l-8.94,37.86c-0.11,0.47,0.18,0.93,0.65,1.04
		l27.76,6.47c0.47,0.11,0.94-0.18,1.05-0.64l8.94-37.86C-160.66-34.92-160.95-35.39-161.42-35.5z M-161.62-34.65l-8.94,37.86
		l-27.76-6.47l8.94-37.86L-161.62-34.65z"/>
	<path class="st9" d="M-161.42-35.5l-1.68-0.39L-161.42-35.5z M-215.54-48.1l-2.27-0.53L-215.54-48.1z"/>
	<path class="st3" d="M-201.87-4.09l-25.08-5.84l8.94-37.86l2.06,0.48c-0.82,1.6-1.56,3.23-2.22,4.9c-0.49,1.23-0.88,2.43-1.13,3.73
		c-0.23,1.16-0.38,2.34-0.66,3.49c-0.52,2.23-1.32,4.38-1.8,6.62c-0.46,2.09-0.63,4.29-0.82,6.42c-0.18,1.98-0.15,3.96,0.36,5.89
		c0.16,0.59,0.38,1.13,0.66,1.62l-0.31,1.33c-0.06,0.27,0.08,0.55,0.33,0.66l6.16,2.68c1.07,0.62,2.13,1.24,3.23,1.8
		c0.98,0.5,1.98,0.95,3,1.36c0.41,0.17,0.83,0.32,1.24,0.48c-0.16-0.06-0.22-0.08-0.22-0.08c0,0,0.9,0.34,1.13,0.43l-0.04-0.01
		c0.06,0.02,0.09,0.03,0.09,0.03s-0.02-0.01-0.05-0.02c0.6,0.22,1.2,0.43,1.8,0.63c0.45,0.14,0.9,0.28,1.35,0.41L-201.87-4.09z
		 M-207.82-6.3c-0.03-0.01-0.06-0.02-0.09-0.03C-207.89-6.33-207.86-6.31-207.82-6.3z"/>
	<path class="st11" d="M-201.37-3.08l-2.51-0.58l-0.89-0.21l-22.38-5.21c-0.4-0.09-0.67-0.45-0.67-0.84c0-0.07,0.01-0.13,0.02-0.2
		l8.94-37.86c0.09-0.4,0.45-0.67,0.85-0.67c0.07,0,0.13,0.01,0.2,0.02l2.27,0.53c-0.14,0.26-0.28,0.53-0.41,0.79l-2.06-0.48
		l-8.94,37.86l25.08,5.84l1.37,0.6C-200.79-3.36-201.08-3.23-201.37-3.08z"/>
	<path class="st3" d="M-170.56,3.21l-15.4-3.59c-0.01-0.01-0.02-0.03-0.03-0.04c-0.23-0.27-0.47-0.53-0.72-0.77
		c0.59,0.1,1.18,0.21,1.77,0.36c1.84,0.44,3.73,0.94,5.63,0.94c0.39,0,0.79-0.02,1.18-0.07c2.22-0.27,4.21-1.18,5.83-2.72
		c1.36-1.3,2.11-3.02,2.74-4.74c0.5-1.39,0.79-2.84,1.13-4.28c0.16-0.68,0.33-1.36,0.53-2.04c0.07-0.24,0.15-0.48,0.24-0.72
		c0.1-0.25,0.28-0.75,0.35-0.93c0.14-0.35,0.27-0.71,0.4-1.07c1.63-4.47,2.56-9.02,3.17-13.72c0.21-1.61,0.41-3.22,0.57-4.83
		l1.57,0.36L-170.56,3.21z"/>
	<path class="st11" d="M-170.56,4.07c-0.07,0-0.13-0.01-0.2-0.02l-14.52-3.38c-0.21-0.4-0.44-0.75-0.69-1.05l15.4,3.59l8.94-37.86
		l-1.57-0.36c0.03-0.29,0.06-0.58,0.08-0.87l1.68,0.39c0.4,0.09,0.67,0.45,0.67,0.84c0,0.07-0.01,0.13-0.02,0.2l-5.43,23l-0.45,1.9
		l-2.66,11.27l-0.4,1.69C-169.8,3.8-170.16,4.07-170.56,4.07z"/>
	<path class="st12" d="M-198.82-3.08l-0.05-0.02l-22.56-9.82c-0.13-0.06-0.2-0.2-0.17-0.33l8.94-37.86
		c0.02-0.08,0.07-0.15,0.15-0.19c0.06-0.03,0.13-0.04,0.2-0.02l0.05,0.02l22.56,9.82c0.13,0.06,0.2,0.2,0.17,0.33l-8.94,37.86
		c-0.02,0.08-0.07,0.15-0.15,0.19C-198.69-3.07-198.76-3.06-198.82-3.08z"/>
	<path class="st6" d="M-212.25-51.61c-0.13-0.03-0.27-0.01-0.39,0.05c-0.15,0.08-0.27,0.22-0.31,0.38l-8.94,37.86
		c-0.06,0.27,0.08,0.55,0.33,0.66l22.56,9.82c0.03,0.01,0.07,0.03,0.1,0.03c0.13,0.03,0.27,0.01,0.39-0.05
		c0.15-0.08,0.27-0.22,0.31-0.38l8.94-37.86c0.06-0.27-0.08-0.55-0.33-0.66l-22.56-9.82C-212.18-51.59-212.21-51.6-212.25-51.61z
		 M-212.38-51.04l22.56,9.82l-8.94,37.86l-22.56-9.82L-212.38-51.04z"/>
	<path class="st12" d="M-198.82-3.08c-0.07-0.01-0.12-0.05-0.16-0.11c-0.05-0.07-0.07-0.16-0.05-0.24l8.94-37.86
		c0.03-0.14,0.16-0.23,0.3-0.22l24.61,1.16l0.05,0.01c0.07,0.01,0.12,0.05,0.17,0.11c0.05,0.07,0.07,0.16,0.05,0.24l-8.94,37.86
		c-0.03,0.14-0.16,0.23-0.3,0.22l-24.61-1.16L-198.82-3.08z"/>
	<path class="st6" d="M-165.08-40.62c-0.03-0.01-0.07-0.01-0.1-0.01l-24.61-1.16c-0.28-0.01-0.53,0.17-0.59,0.45l-8.94,37.86
		c-0.04,0.17,0,0.34,0.1,0.48c0.08,0.11,0.2,0.18,0.33,0.21c0.03,0.01,0.07,0.01,0.1,0.01l24.61,1.16c0.28,0.01,0.53-0.17,0.59-0.45
		l8.94-37.86c0.04-0.17,0-0.34-0.1-0.48C-164.83-40.51-164.94-40.59-165.08-40.62z M-165.21-40.06l-8.94,37.86l-24.61-1.16
		l8.94-37.86L-165.21-40.06z"/>
	<path class="st13" d="M-199.04-3.13c-0.06-0.01-0.12-0.05-0.16-0.09c-0.06-0.07-0.08-0.16-0.06-0.25l8.94-37.86
		c0.03-0.12,0.14-0.21,0.26-0.22l23.08-1.54c0.03,0,0.06,0,0.09,0.01c0.06,0.01,0.12,0.05,0.16,0.09c0.06,0.07,0.08,0.16,0.06,0.25
		l-8.94,37.86c-0.03,0.12-0.14,0.21-0.26,0.22l-23.08,1.54C-198.99-3.12-199.02-3.13-199.04-3.13z"/>
	<path class="st6" d="M-166.83-43.37c-0.06-0.01-0.11-0.02-0.17-0.01l-23.08,1.54c-0.25,0.02-0.47,0.2-0.53,0.45l-8.94,37.86
		c-0.04,0.18,0,0.37,0.12,0.5c0.08,0.1,0.19,0.16,0.31,0.19c0.06,0.01,0.11,0.02,0.17,0.01l23.08-1.54c0.25-0.02,0.47-0.2,0.53-0.45
		l8.94-37.86c0.04-0.18,0-0.36-0.12-0.5C-166.6-43.28-166.71-43.35-166.83-43.37z M-166.96-42.81l-8.94,37.86l-23.08,1.54
		l8.94-37.86L-166.96-42.81z"/>
	<path class="st13" d="M-198.6-3.03c-0.03-0.01-0.06-0.02-0.08-0.03l-19.98-11.57c-0.11-0.06-0.17-0.19-0.14-0.32l8.94-37.86
		c0.02-0.09,0.08-0.16,0.17-0.2c0.06-0.03,0.12-0.03,0.18-0.01c0.03,0.01,0.06,0.02,0.08,0.03l19.98,11.57
		c0.11,0.06,0.17,0.19,0.14,0.32l-8.94,37.86c-0.02,0.09-0.08,0.16-0.17,0.2C-198.48-3.02-198.54-3.01-198.6-3.03z"/>
	<path class="st6" d="M-209.44-53.3c-0.12-0.03-0.25-0.02-0.36,0.03c-0.17,0.07-0.29,0.22-0.34,0.4l-8.94,37.86
		c-0.06,0.25,0.05,0.5,0.27,0.63l19.98,11.57c0.05,0.03,0.1,0.05,0.16,0.06c0.12,0.03,0.25,0.02,0.36-0.03
		c0.17-0.07,0.29-0.22,0.34-0.4l8.94-37.86c0.06-0.25-0.05-0.5-0.27-0.63l-19.98-11.57C-209.33-53.27-209.39-53.29-209.44-53.3z
		 M-209.58-52.74l19.98,11.57l-8.94,37.86l-19.98-11.57L-209.58-52.74z"/>
	<path class="st14" d="M-198.86-3.09c-0.06-0.01-0.1-0.04-0.15-0.08c-0.07-0.07-0.09-0.17-0.07-0.27l8.94-37.86
		c0.03-0.11,0.12-0.2,0.23-0.22l21.03-3.69c0.04-0.01,0.08-0.01,0.12,0c0.05,0.01,0.1,0.04,0.15,0.08c0.07,0.07,0.09,0.17,0.07,0.26
		L-177.47-7c-0.03,0.11-0.12,0.2-0.23,0.22l-21.03,3.69C-198.78-3.08-198.82-3.08-198.86-3.09z"/>
	<path class="st6" d="M-168.69-45.49c-0.07-0.02-0.16-0.02-0.23-0.01l-21.03,3.69c-0.23,0.04-0.41,0.21-0.47,0.44l-8.94,37.86
		c-0.04,0.19,0.01,0.39,0.14,0.53c0.08,0.08,0.18,0.14,0.29,0.17c0.07,0.02,0.15,0.02,0.23,0.01l21.03-3.69
		c0.23-0.04,0.41-0.21,0.46-0.44l8.94-37.86c0.04-0.19-0.01-0.39-0.14-0.53C-168.48-45.41-168.58-45.46-168.69-45.49z
		 M-168.82-44.92l-8.94,37.86l-21.03,3.69l8.94-37.86L-168.82-44.92z"/>
	<path class="st14" d="M-198.78-3.07c-0.04-0.01-0.07-0.03-0.11-0.05l-17.19-12.6c-0.09-0.07-0.14-0.19-0.11-0.3l8.94-37.86
		c0.02-0.1,0.09-0.17,0.18-0.21c0.05-0.02,0.11-0.02,0.17-0.01c0.04,0.01,0.07,0.03,0.11,0.05l17.19,12.6
		c0.09,0.07,0.14,0.19,0.11,0.3l-8.94,37.86c-0.02,0.1-0.09,0.17-0.18,0.21C-198.67-3.06-198.73-3.06-198.78-3.07z"/>
	<path class="st6" d="M-206.83-54.37c-0.11-0.03-0.22-0.02-0.33,0.02c-0.18,0.07-0.32,0.22-0.37,0.41l-8.94,37.86
		c-0.05,0.22,0.03,0.46,0.22,0.6l17.19,12.6c0.06,0.05,0.14,0.08,0.21,0.1c0.11,0.03,0.22,0.02,0.33-0.02
		c0.18-0.07,0.32-0.22,0.37-0.41l8.94-37.86c0.05-0.22-0.03-0.46-0.22-0.6l-17.19-12.6C-206.68-54.32-206.76-54.35-206.83-54.37z
		 M-206.96-53.81l17.19,12.6l-8.94,37.86l-17.19-12.6L-206.96-53.81z"/>
	<path class="st15" d="M-198.73-3.06c-0.05-0.01-0.09-0.03-0.13-0.07c-0.08-0.07-0.11-0.18-0.09-0.28l8.94-37.86
		c0.02-0.1,0.1-0.18,0.19-0.21l19.05-6.23c0.05-0.02,0.11-0.02,0.16-0.01c0.05,0.01,0.09,0.03,0.13,0.07
		c0.08,0.07,0.11,0.18,0.09,0.28l-8.94,37.86c-0.02,0.1-0.1,0.18-0.19,0.21l-19.05,6.23C-198.63-3.05-198.68-3.05-198.73-3.06z"/>
	<path class="st6" d="M-170.54-47.99c-0.1-0.02-0.21-0.02-0.31,0.01l-19.05,6.23c-0.19,0.06-0.34,0.22-0.38,0.42l-8.94,37.86
		c-0.05,0.2,0.02,0.42,0.17,0.56c0.07,0.07,0.16,0.11,0.26,0.14c0.1,0.02,0.21,0.02,0.31-0.01l19.05-6.23
		c0.19-0.06,0.34-0.22,0.38-0.42l8.94-37.86c0.05-0.2-0.02-0.42-0.17-0.56C-170.36-47.93-170.44-47.97-170.54-47.99z M-170.67-47.43
		l-8.94,37.86l-19.05,6.23l8.94-37.86L-170.67-47.43z"/>
	<path class="st15" d="M-198.91-3.1c-0.05-0.01-0.1-0.04-0.14-0.08l-14.28-13.99c-0.07-0.07-0.1-0.17-0.08-0.27l8.94-37.86
		c0.02-0.1,0.1-0.18,0.2-0.21c0.05-0.01,0.1-0.01,0.15,0c0.05,0.01,0.1,0.04,0.14,0.08l14.28,13.99c0.07,0.07,0.1,0.17,0.08,0.27
		l-8.94,37.86c-0.02,0.1-0.1,0.18-0.2,0.21C-198.81-3.09-198.86-3.09-198.91-3.1z"/>
	<path class="st6" d="M-204.05-55.8c-0.1-0.02-0.2-0.02-0.29,0.01c-0.2,0.06-0.36,0.22-0.41,0.42l-8.94,37.86
		c-0.04,0.2,0.01,0.4,0.16,0.54l14.28,13.99c0.08,0.08,0.17,0.13,0.28,0.15c0.1,0.02,0.2,0.02,0.29-0.01
		c0.2-0.06,0.36-0.22,0.41-0.42l8.94-37.86c0.05-0.2-0.01-0.4-0.16-0.54l-14.28-13.99C-203.85-55.72-203.95-55.78-204.05-55.8z
		 M-204.18-55.24l14.28,13.99l-8.94,37.86l-14.28-13.99L-204.18-55.24z"/>
	<path class="st6" d="M-191.84-39.84c-0.05-0.01-0.09-0.03-0.13-0.07l-11.75-10.9c-0.12-0.11-0.12-0.29-0.01-0.41
		c0.11-0.12,0.29-0.12,0.41-0.01l11.75,10.9c0.12,0.11,0.12,0.29,0.01,0.41C-191.64-39.84-191.74-39.82-191.84-39.84z"/>
	<path class="st6" d="M-192.29-37.91c-0.05-0.01-0.09-0.03-0.13-0.07l-11.75-10.9c-0.12-0.11-0.12-0.29-0.01-0.41
		c0.11-0.12,0.29-0.12,0.41-0.01l11.75,10.9c0.12,0.11,0.12,0.29,0.01,0.41C-192.09-37.91-192.2-37.88-192.29-37.91z"/>
	<path class="st6" d="M-192.75-35.97c-0.05-0.01-0.09-0.03-0.13-0.07l-11.75-10.9c-0.12-0.11-0.12-0.29-0.01-0.41
		s0.29-0.12,0.41-0.01l11.75,10.9c0.12,0.11,0.12,0.29,0.01,0.41C-192.55-35.98-192.65-35.95-192.75-35.97z"/>
	<path class="st6" d="M-193.21-34.04c-0.05-0.01-0.09-0.03-0.13-0.07l-11.75-10.9c-0.12-0.11-0.12-0.29-0.01-0.41
		c0.11-0.12,0.29-0.12,0.41-0.01l11.75,10.9c0.12,0.11,0.12,0.29,0.01,0.41C-193-34.04-193.11-34.02-193.21-34.04z"/>
	<path class="st6" d="M-193.67-32.11c-0.05-0.01-0.09-0.03-0.13-0.07l-11.75-10.9c-0.12-0.11-0.12-0.29-0.01-0.41
		c0.11-0.12,0.29-0.12,0.41-0.01l11.75,10.9c0.12,0.11,0.12,0.29,0.01,0.41C-193.46-32.11-193.57-32.08-193.67-32.11z"/>
	<path class="st6" d="M-194.12-30.17c-0.05-0.01-0.09-0.03-0.13-0.07l-11.75-10.9c-0.12-0.11-0.12-0.29-0.01-0.41
		c0.11-0.12,0.29-0.12,0.41-0.01l11.75,10.9c0.12,0.11,0.12,0.29,0.01,0.41C-193.92-30.18-194.02-30.15-194.12-30.17z"/>
	<path class="st6" d="M-194.58-28.24c-0.05-0.01-0.09-0.03-0.13-0.07l-11.75-10.9c-0.12-0.11-0.12-0.29-0.01-0.41
		c0.11-0.12,0.29-0.12,0.41-0.01l11.75,10.9c0.12,0.11,0.12,0.29,0.01,0.41C-194.37-28.25-194.48-28.22-194.58-28.24z"/>
	<path class="st6" d="M-195.03-26.31c-0.05-0.01-0.09-0.03-0.13-0.07l-11.75-10.9c-0.12-0.11-0.12-0.29-0.01-0.41
		c0.11-0.12,0.29-0.12,0.41-0.01l11.75,10.9c0.12,0.11,0.12,0.29,0.01,0.41C-194.83-26.31-194.94-26.28-195.03-26.31z"/>
	<path class="st6" d="M-195.49-24.37c-0.05-0.01-0.09-0.03-0.13-0.07l-11.75-10.9c-0.12-0.11-0.12-0.29-0.01-0.41
		c0.11-0.12,0.29-0.12,0.41-0.01l11.75,10.9c0.12,0.11,0.12,0.29,0.01,0.41C-195.29-24.38-195.39-24.35-195.49-24.37z"/>
	<path class="st6" d="M-195.95-22.44c-0.05-0.01-0.09-0.03-0.13-0.07l-11.75-10.9c-0.12-0.11-0.12-0.29-0.02-0.41
		c0.11-0.12,0.29-0.12,0.41-0.01l11.75,10.9c0.12,0.11,0.12,0.29,0.01,0.41C-195.74-22.45-195.85-22.42-195.95-22.44z"/>
	<path class="st6" d="M-196.4-20.51c-0.05-0.01-0.09-0.03-0.13-0.07l-11.75-10.9c-0.12-0.11-0.12-0.29-0.01-0.41
		c0.11-0.12,0.29-0.12,0.41-0.01l11.75,10.9c0.12,0.11,0.12,0.29,0.01,0.41C-196.2-20.51-196.31-20.48-196.4-20.51z"/>
	<path class="st6" d="M-196.86-18.57c-0.05-0.01-0.09-0.03-0.13-0.07l-11.75-10.9c-0.12-0.11-0.12-0.29-0.01-0.41
		s0.29-0.12,0.41-0.01l11.75,10.9c0.12,0.11,0.12,0.29,0.01,0.41C-196.65-18.58-196.76-18.55-196.86-18.57z"/>
	<path class="st6" d="M-197.32-16.64c-0.05-0.01-0.09-0.03-0.13-0.07l-11.75-10.9c-0.12-0.11-0.12-0.29-0.01-0.41
		c0.11-0.12,0.29-0.12,0.41-0.01l11.75,10.9c0.12,0.11,0.12,0.29,0.01,0.41C-197.11-16.65-197.22-16.62-197.32-16.64z"/>
	<path class="st6" d="M-197.77-14.71c-0.05-0.01-0.09-0.03-0.13-0.07l-11.75-10.9c-0.12-0.11-0.12-0.29-0.01-0.41
		s0.29-0.12,0.41-0.01l11.75,10.9c0.12,0.11,0.12,0.29,0.01,0.41C-197.57-14.71-197.67-14.68-197.77-14.71z"/>
	<path class="st6" d="M-198.23-12.77c-0.05-0.01-0.09-0.03-0.13-0.07l-11.75-10.9c-0.12-0.11-0.12-0.29-0.01-0.41
		c0.11-0.12,0.29-0.12,0.41-0.01l11.75,10.9c0.12,0.11,0.12,0.29,0.01,0.41C-198.02-12.78-198.13-12.75-198.23-12.77z"/>
	<path class="st6" d="M-198.68-10.84c-0.05-0.01-0.09-0.03-0.13-0.07l-11.75-10.9c-0.12-0.11-0.12-0.29-0.01-0.41
		c0.11-0.12,0.29-0.12,0.41-0.01l11.75,10.9c0.12,0.11,0.12,0.29,0.01,0.41C-198.48-10.85-198.59-10.82-198.68-10.84z"/>
	<path class="st6" d="M-199.14-8.91c-0.05-0.01-0.09-0.03-0.13-0.07l-11.75-10.9c-0.12-0.11-0.12-0.29-0.01-0.41
		c0.11-0.12,0.29-0.12,0.41-0.01l11.75,10.9c0.12,0.11,0.12,0.29,0.01,0.41C-198.94-8.91-199.04-8.88-199.14-8.91z"/>
	<path class="st6" d="M-199.6-6.97c-0.05-0.01-0.09-0.03-0.13-0.07l-11.75-10.9c-0.12-0.11-0.12-0.29-0.01-0.41
		c0.11-0.12,0.29-0.12,0.41-0.01l11.75,10.9c0.12,0.11,0.12,0.29,0.01,0.41C-199.39-6.98-199.5-6.95-199.6-6.97z"/>
	<path class="st6" d="M-188.47-39.6c-0.1-0.02-0.18-0.1-0.21-0.2c-0.04-0.15,0.04-0.31,0.19-0.36l15.41-4.58
		c0.15-0.04,0.32,0.04,0.36,0.19c0.05,0.15-0.04,0.31-0.19,0.36l-15.41,4.58C-188.37-39.59-188.43-39.59-188.47-39.6z"/>
	<path class="st6" d="M-188.93-37.67c-0.1-0.02-0.18-0.1-0.21-0.2c-0.05-0.15,0.04-0.31,0.19-0.36l15.41-4.58
		c0.15-0.05,0.32,0.04,0.36,0.19c0.04,0.15-0.04,0.31-0.19,0.36l-15.41,4.58C-188.83-37.66-188.88-37.66-188.93-37.67z"/>
	<path class="st6" d="M-189.39-35.74c-0.1-0.02-0.18-0.1-0.21-0.2c-0.05-0.15,0.04-0.31,0.19-0.36l15.41-4.58
		c0.15-0.04,0.32,0.04,0.36,0.19c0.05,0.15-0.04,0.31-0.19,0.36l-15.41,4.58C-189.29-35.73-189.34-35.73-189.39-35.74z"/>
	<path class="st6" d="M-189.84-33.8c-0.1-0.02-0.18-0.1-0.21-0.2c-0.05-0.15,0.04-0.31,0.19-0.36l15.41-4.58
		c0.15-0.04,0.32,0.04,0.36,0.19c0.04,0.15-0.04,0.31-0.2,0.36l-15.41,4.58C-189.74-33.79-189.79-33.79-189.84-33.8z"/>
	<path class="st6" d="M-190.3-31.87c-0.1-0.02-0.18-0.1-0.21-0.2c-0.05-0.15,0.04-0.31,0.19-0.36l15.41-4.58
		c0.15-0.04,0.32,0.04,0.36,0.19c0.04,0.15-0.04,0.31-0.19,0.36l-15.41,4.58C-190.2-31.86-190.25-31.86-190.3-31.87z"/>
	<path class="st6" d="M-190.76-29.94c-0.1-0.02-0.18-0.1-0.21-0.2c-0.04-0.15,0.04-0.31,0.19-0.36l15.41-4.58
		c0.15-0.04,0.32,0.04,0.36,0.19c0.05,0.15-0.04,0.31-0.19,0.36l-15.41,4.58C-190.66-29.93-190.71-29.93-190.76-29.94z"/>
	<path class="st6" d="M-191.21-28c-0.1-0.02-0.18-0.1-0.21-0.2c-0.04-0.15,0.04-0.31,0.19-0.36l15.41-4.58
		c0.15-0.04,0.32,0.04,0.36,0.19c0.05,0.15-0.04,0.31-0.19,0.36l-15.41,4.58C-191.11-27.99-191.17-27.99-191.21-28z"/>
	<path class="st6" d="M-191.67-26.07c-0.1-0.02-0.18-0.1-0.21-0.2c-0.04-0.15,0.04-0.31,0.2-0.36l15.4-4.58
		c0.15-0.04,0.32,0.04,0.36,0.2c0.05,0.15-0.04,0.31-0.19,0.36l-15.41,4.58C-191.57-26.06-191.62-26.06-191.67-26.07z"/>
	<path class="st6" d="M-192.13-24.14c-0.1-0.02-0.18-0.1-0.21-0.2c-0.04-0.15,0.04-0.31,0.19-0.36l15.41-4.58
		c0.15-0.04,0.32,0.04,0.36,0.2c0.04,0.15-0.04,0.31-0.19,0.36l-15.41,4.58C-192.03-24.13-192.08-24.13-192.13-24.14z"/>
	<path class="st6" d="M-192.58-22.2c-0.1-0.02-0.18-0.1-0.21-0.2c-0.04-0.15,0.04-0.31,0.2-0.36l15.41-4.58
		c0.15-0.04,0.32,0.04,0.36,0.19c0.05,0.15-0.04,0.31-0.19,0.36l-15.41,4.58C-192.48-22.19-192.53-22.19-192.58-22.2z"/>
	<path class="st6" d="M-193.04-20.27c-0.1-0.02-0.18-0.1-0.21-0.2c-0.04-0.15,0.04-0.31,0.19-0.36l15.41-4.58
		c0.15-0.05,0.32,0.04,0.36,0.19c0.04,0.15-0.04,0.31-0.19,0.36l-15.41,4.58C-192.94-20.26-192.99-20.26-193.04-20.27z"/>
	<path class="st6" d="M-193.49-18.34c-0.1-0.02-0.18-0.1-0.21-0.2c-0.04-0.15,0.04-0.31,0.2-0.36l15.41-4.58
		c0.15-0.04,0.32,0.04,0.36,0.19c0.04,0.15-0.04,0.31-0.19,0.36l-15.41,4.58C-193.4-18.33-193.45-18.33-193.49-18.34z"/>
	<path class="st6" d="M-193.95-16.41c-0.1-0.02-0.18-0.1-0.21-0.2c-0.05-0.15,0.04-0.31,0.19-0.36l15.41-4.58
		c0.15-0.04,0.32,0.04,0.36,0.19c0.05,0.15-0.04,0.31-0.19,0.36l-15.41,4.58C-193.85-16.4-193.9-16.39-193.95-16.41z"/>
	<path class="st6" d="M-194.41-14.47c-0.1-0.02-0.18-0.1-0.21-0.2c-0.05-0.15,0.04-0.31,0.19-0.36l15.41-4.58
		c0.15-0.04,0.32,0.04,0.36,0.2c0.05,0.15-0.04,0.31-0.19,0.36l-15.41,4.58C-194.31-14.46-194.36-14.46-194.41-14.47z"/>
	<path class="st6" d="M-194.86-12.54c-0.1-0.02-0.18-0.1-0.21-0.2c-0.04-0.15,0.04-0.31,0.2-0.36l15.41-4.58
		c0.15-0.04,0.32,0.04,0.36,0.19c0.05,0.15-0.04,0.31-0.19,0.36l-15.41,4.58C-194.76-12.53-194.82-12.53-194.86-12.54z"/>
	<path class="st6" d="M-195.32-10.61c-0.1-0.02-0.18-0.1-0.21-0.2c-0.05-0.15,0.04-0.31,0.19-0.36l15.41-4.58
		c0.15-0.05,0.32,0.04,0.36,0.19c0.04,0.15-0.04,0.31-0.19,0.36l-15.41,4.58C-195.22-10.6-195.27-10.59-195.32-10.61z"/>
	<path class="st6" d="M-195.78-8.67c-0.1-0.02-0.18-0.1-0.21-0.2c-0.05-0.15,0.04-0.31,0.19-0.36l15.41-4.58
		c0.15-0.05,0.32,0.04,0.36,0.19c0.04,0.15-0.04,0.31-0.19,0.36l-15.41,4.58C-195.68-8.66-195.73-8.66-195.78-8.67z"/>
	<path class="st6" d="M-196.23-6.74c-0.1-0.02-0.18-0.1-0.21-0.2c-0.05-0.15,0.04-0.31,0.19-0.36l15.41-4.58
		c0.15-0.04,0.32,0.04,0.36,0.19c0.04,0.15-0.04,0.31-0.2,0.36l-15.41,4.58C-196.13-6.73-196.18-6.73-196.23-6.74z"/>
	<path class="st8" d="M-203.4-20.27l-0.06-0.02c-0.08-0.04-0.13-0.14-0.11-0.23c0.11-0.56,0.36-1.33,0.63-2.15
		c0.23-0.7,0.46-1.41,0.58-1.96l0.03-0.2l0-0.01c0.37-1.69,0.65-3.43,0.92-5.13c0.54-3.4,1.1-6.92,2.46-10.13
		c0.18-0.43,0.36-0.85,0.53-1.27c0.73-1.71,1.42-3.33,1.74-5.19c0.35-2.21,0.2-2.69,0.15-2.79c-0.04-0.08-0.04-0.17,0.02-0.24
		c0.05-0.07,0.14-0.1,0.22-0.08l0.01,0c0.13,0.03,3.07,0.84,3.69,2.65c0.7,2.07-0.29,4.89-1.1,7.16c-0.16,0.46-0.31,0.89-0.44,1.28
		c-0.3,0.96-0.61,1.93-0.91,2.87c-1.31,4.07-2.66,8.28-3.43,12.59c-0.05,0.26-0.1,0.52-0.14,0.78c-0.14,0.78-0.28,1.58-0.5,2.35
		c-0.02,0.08-0.09,0.14-0.17,0.15c-0.03,0.01-0.06,0.01-0.09,0c-0.05-0.01-0.09-0.04-0.12-0.08c-0.37-0.45-0.57-1.08-0.76-1.68
		c-0.07-0.22-0.14-0.43-0.22-0.63c-0.42,0.42-0.94,0.72-1.44,1.01c-0.47,0.27-0.91,0.53-1.28,0.88
		C-203.25-20.28-203.33-20.26-203.4-20.27z"/>
	<path class="st6" d="M-196.23-49.87c-0.16-0.04-0.34,0.02-0.44,0.15c-0.11,0.14-0.12,0.32-0.04,0.47c0.02,0.04,0.17,0.46-0.17,2.65
		c-0.32,1.83-1,3.44-1.72,5.14c-0.18,0.41-0.36,0.84-0.53,1.27c-1.37,3.24-1.93,6.77-2.47,10.18c-0.27,1.69-0.55,3.43-0.92,5.11
		l-0.01,0.03l-0.03,0.19c-0.12,0.53-0.35,1.24-0.58,1.93c-0.27,0.82-0.52,1.6-0.63,2.17c-0.03,0.18,0.05,0.37,0.22,0.46
		c0.04,0.02,0.07,0.03,0.11,0.04c0.14,0.03,0.29,0,0.4-0.11c0.36-0.33,0.79-0.58,1.24-0.85c0.42-0.24,0.85-0.49,1.23-0.82
		c0.03,0.1,0.07,0.21,0.1,0.32c0.2,0.62,0.41,1.26,0.8,1.75c0.06,0.08,0.15,0.13,0.24,0.15c0.06,0.01,0.12,0.01,0.19,0
		c0.16-0.03,0.29-0.15,0.33-0.31c0.22-0.79,0.37-1.59,0.5-2.38c0.04-0.26,0.09-0.52,0.14-0.78c0.77-4.3,2.12-8.5,3.43-12.56
		c0.3-0.94,0.61-1.91,0.91-2.87c0.12-0.39,0.28-0.81,0.44-1.27c0.81-2.3,1.83-5.16,1.1-7.3c-0.66-1.91-3.7-2.75-3.83-2.79H-196.23z
		 M-196.33-49.45c0,0,2.95,0.79,3.54,2.51c0.82,2.42-0.79,6-1.54,8.3c-1.62,5.16-3.4,10.18-4.35,15.49
		c-0.2,1.04-0.34,2.09-0.64,3.11c-0.54-0.67-0.72-1.8-1.08-2.57c-0.77,0.96-2.05,1.3-2.94,2.13c0.2-1.04,0.95-2.94,1.21-4.1
		l0.03-0.2c1.12-5.07,1.35-10.43,3.37-15.22c0.88-2.17,1.88-4.16,2.28-6.51C-196.34-47.25-196.09-49.01-196.33-49.45z"/>
	<path class="st16" d="M-199.32-19.61c-0.03,0-0.07,0-0.1-0.01h0h0C-199.39-19.61-199.36-19.61-199.32-19.61
		c0.03,0,0.06,0,0.09-0.01c0.16-0.03,0.29-0.15,0.33-0.31c0.04-0.13,0.07-0.26,0.11-0.4c-0.03,0.13-0.07,0.27-0.11,0.4
		c-0.04,0.16-0.17,0.27-0.33,0.31C-199.27-19.61-199.3-19.61-199.32-19.61z M-198.65-20.97c0.09-0.45,0.17-0.89,0.25-1.33
		c0,0,0,0,0-0.01c0,0,0,0.01,0,0.01C-198.48-21.86-198.55-21.42-198.65-20.97z M-198.28-22.98c0.01-0.03,0.01-0.06,0.02-0.09
		c0.07-0.41,0.15-0.83,0.24-1.24c-0.08,0.41-0.16,0.83-0.24,1.24C-198.27-23.04-198.27-23.01-198.28-22.98z"/>
	<path class="st17" d="M-198.4-22.31c0.04-0.22,0.08-0.45,0.12-0.68C-198.32-22.76-198.36-22.53-198.4-22.31z"/>
	<path class="st16" d="M-199.66-19.77c-0.39-0.48-0.6-1.13-0.8-1.75c-0.04-0.11-0.07-0.21-0.1-0.32c-0.28,0.24-0.58,0.43-0.89,0.61
		c0.31-0.18,0.61-0.38,0.89-0.61c0.03,0.1,0.07,0.21,0.1,0.32C-200.26-20.9-200.05-20.25-199.66-19.77z"/>
	<path class="st18" d="M-199.32-20.04c-0.54-0.67-0.72-1.8-1.08-2.57c-0.77,0.96-2.05,1.3-2.94,2.13c0.07-0.35,0.19-0.8,0.35-1.28
		c0.72-0.36,1.75-1.22,2.57-1.22c0.34,0,0.64,0.15,0.86,0.53c0.03,0.05,0.09,0.08,0.15,0.08c0.08,0,0.15-0.04,0.17-0.13
		c0.48-2.93,0.94-5.82,1.74-8.68c0.82-2.95,1.84-5.83,2.78-8.74c0.64-1.96,1.62-4.18,0.98-6.26c-0.28-0.89-0.9-1.58-1.5-2.27
		c-0.27-0.31-0.51-0.6-0.71-0.89c0.8,0.27,2.72,1.05,3.18,2.4c0.82,2.42-0.79,6-1.54,8.3c-1.62,5.16-3.4,10.18-4.35,15.49
		C-198.88-22.11-199.03-21.06-199.32-20.04z"/>
	<path class="st17" d="M-203.35-20.05c-0.03,0-0.07,0-0.1-0.01c-0.04-0.01-0.07-0.02-0.11-0.04c-0.14-0.08-0.23-0.22-0.23-0.38
		c0,0.16,0.09,0.3,0.23,0.38c0.04,0.02,0.07,0.03,0.11,0.04C-203.41-20.06-203.38-20.05-203.35-20.05c0.07,0,0.15-0.02,0.21-0.05
		C-203.2-20.07-203.28-20.05-203.35-20.05z"/>
	<path class="st16" d="M-203.63-21.17c0.03-0.13,0.07-0.26,0.12-0.4C-203.56-21.44-203.6-21.3-203.63-21.17z"/>
	<path class="st8" d="M-192.46-47.27c-0.79-1.78-3.63-2.56-3.76-2.6l-0.01,0l0.01,0C-196.1-49.83-193.25-49.05-192.46-47.27z"/>
	<path class="st17" d="M-199.32-19.61c-0.03,0-0.07,0-0.1-0.01h0c-0.09-0.02-0.18-0.07-0.24-0.15c-0.39-0.48-0.6-1.13-0.8-1.75
		c-0.04-0.11-0.07-0.21-0.1-0.32c-0.28,0.24-0.58,0.43-0.89,0.61c-0.12,0.07-0.23,0.14-0.35,0.2c-0.06,0.03-0.12,0.07-0.18,0.1
		c-0.39,0.23-0.76,0.46-1.07,0.75c-0.03,0.03-0.06,0.04-0.09,0.06c0,0,0,0,0,0c-0.06,0.04-0.14,0.05-0.21,0.05
		c-0.03,0-0.07,0-0.1-0.01c-0.04-0.01-0.07-0.02-0.11-0.04c-0.14-0.08-0.23-0.22-0.23-0.38c0-0.03,0-0.05,0.01-0.08c0,0,0,0,0-0.01
		c0,0,0,0,0,0c0,0,0,0,0-0.01c0.03-0.18,0.08-0.38,0.14-0.6c0.03-0.13,0.07-0.26,0.12-0.4c0.09-0.02,0.19-0.05,0.29-0.09
		c0.07-0.03,0.14-0.06,0.22-0.1c-0.15,0.48-0.28,0.93-0.35,1.28c0.89-0.83,2.17-1.17,2.94-2.13c0.37,0.78,0.54,1.9,1.08,2.57
		c0.29-1.02,0.44-2.07,0.64-3.11c0.96-5.31,2.74-10.33,4.35-15.49c0.74-2.3,2.36-5.88,1.54-8.3c-0.46-1.35-2.38-2.13-3.18-2.4
		c-0.12-0.18-0.22-0.35-0.3-0.54l0.04,0.01l0.01,0c0.13,0.03,2.97,0.82,3.76,2.6c0.03,0.06,0.05,0.13,0.07,0.19
		c0.18,0.52,0.25,1.08,0.25,1.66c0,0.36-0.03,0.73-0.08,1.1c-0.03,0.23-0.07,0.46-0.12,0.7c-0.14,0.69-0.33,1.39-0.55,2.08
		c-0.06,0.2-0.13,0.41-0.2,0.6c-0.13,0.4-0.27,0.78-0.4,1.15c0,0.01-0.01,0.02-0.01,0.03c-0.07,0.2-0.14,0.4-0.21,0.6
		c-0.08,0.22-0.15,0.44-0.22,0.64c-0.06,0.19-0.12,0.37-0.18,0.56c-0.06,0.2-0.13,0.41-0.19,0.61c-0.13,0.41-0.26,0.81-0.39,1.21
		c-0.05,0.17-0.11,0.33-0.16,0.5c-0.01,0.04-0.02,0.07-0.04,0.11c-0.13,0.4-0.26,0.8-0.39,1.21c-0.06,0.2-0.13,0.41-0.19,0.61
		c-0.13,0.4-0.26,0.81-0.38,1.21c-0.06,0.2-0.13,0.41-0.19,0.61c-0.13,0.41-0.25,0.81-0.37,1.22c-0.06,0.21-0.12,0.41-0.18,0.62
		c-0.12,0.41-0.24,0.82-0.35,1.24c-0.06,0.21-0.12,0.42-0.17,0.63c-0.11,0.42-0.22,0.84-0.33,1.26c-0.05,0.21-0.11,0.43-0.16,0.64
		c-0.1,0.43-0.2,0.86-0.3,1.29c-0.05,0.22-0.09,0.44-0.14,0.66c-0.08,0.41-0.16,0.82-0.24,1.24c-0.01,0.03-0.01,0.06-0.02,0.09
		c-0.04,0.22-0.08,0.45-0.12,0.68c0,0,0,0.01,0,0.01c-0.08,0.44-0.16,0.88-0.25,1.33c-0.04,0.22-0.09,0.43-0.15,0.65
		c-0.03,0.13-0.07,0.27-0.11,0.4c-0.04,0.16-0.17,0.27-0.33,0.31C-199.27-19.61-199.3-19.61-199.32-19.61z"/>
	<path class="st19" d="M-172.07-36.43c-3.58-0.74-3.65-0.68-4.84,4.1c1.07-4.81,1.03-4.89-2.51-5.81c3.58,0.74,3.65,0.68,4.84-4.1
		C-175.64-37.43-175.61-37.35-172.07-36.43z"/>
	<path class="st19" d="M-169.5-0.93c-2.72-0.56-2.77-0.52-3.68,3.11c0.81-3.65,0.78-3.71-1.9-4.41c2.72,0.56,2.77,0.52,3.68-3.11
		C-172.21-1.69-172.18-1.62-169.5-0.93z"/>
	<path class="st19" d="M-165.39-34.53c-2.72-0.56-2.77-0.52-3.68,3.11c0.81-3.65,0.78-3.71-1.9-4.41c2.71,0.56,2.77,0.52,3.68-3.11
		C-168.1-35.28-168.08-35.22-165.39-34.53z"/>
	<path class="st19" d="M-219.38-13.92c-2.71-0.56-2.77-0.52-3.68,3.11c0.81-3.65,0.78-3.71-1.9-4.41c2.72,0.56,2.77,0.52,3.68-3.11
		C-222.09-14.68-222.06-14.61-219.38-13.92z"/>
	<path class="st5" d="M-232.34-4.41c0,0,2.14-9.98,13.26-6.83c11.13,3.15,7.96,10.19,7.96,10.19"/>
	<path class="st5" d="M-216.46,0.43c1.01-7.23,10.97-9.64,15.65-4.11c1.34,1.57,2.07,5.55,1.27,7.47"/>
	<path class="st5" d="M-191.8,4.19c1.38-9.88,14.98-13.16,21.38-5.62c1.83,2.15,2.83,7.59,1.74,10.21"/>
	<path class="st5" d="M-207.38,5.2c1.38-9.88,14.98-13.16,21.38-5.62c1.83,2.15,2.83,7.59,1.73,10.21L-207.38,5.2z"/>
	<path class="st20" d="M-186.64-44.96c-0.06,0-0.11-0.03-0.13-0.08l-0.5-1l-1.11-0.16c-0.06-0.01-0.1-0.05-0.12-0.1
		c-0.02-0.05,0-0.11,0.04-0.15l0.8-0.78l-0.19-1.1c-0.01-0.06,0.01-0.11,0.06-0.15c0.03-0.02,0.06-0.03,0.09-0.03
		c0.02,0,0.05,0.01,0.07,0.02l0.99,0.52l0.99-0.52c0.02-0.01,0.05-0.02,0.07-0.02c0.03,0,0.06,0.01,0.09,0.03
		c0.05,0.03,0.07,0.09,0.06,0.15l-0.19,1.1l0.8,0.78c0.04,0.04,0.06,0.1,0.04,0.15c-0.02,0.06-0.06,0.09-0.12,0.1l-1.11,0.16l-0.5,1
		C-186.53-44.99-186.58-44.96-186.64-44.96z"/>
	<path class="st6" d="M-185.58-48.66L-185.58-48.66c-0.06,0-0.1,0.01-0.15,0.04l-0.92,0.48l-0.92-0.48
		c-0.04-0.02-0.09-0.03-0.14-0.03c-0.06,0-0.12,0.02-0.18,0.06c-0.09,0.07-0.14,0.18-0.12,0.29l0.18,1.02l-0.75,0.72
		c-0.08,0.08-0.11,0.2-0.08,0.31c0.04,0.11,0.13,0.19,0.24,0.2l1.03,0.15l0.46,0.93c0.05,0.1,0.16,0.17,0.27,0.17
		c0.12,0,0.22-0.06,0.27-0.17l0.46-0.93l1.03-0.15c0.11-0.02,0.21-0.1,0.24-0.2c0.03-0.11,0.01-0.23-0.08-0.31l-0.75-0.72l0.18-1.01
		c0-0.02,0.01-0.04,0.01-0.06C-185.27-48.52-185.41-48.66-185.58-48.66z M-185.58-48.36l-0.2,1.17l0.86,0.83l-1.19,0.17l-0.53,1.07
		l-0.53-1.07l-1.19-0.17l0.86-0.83l-0.2-1.17l1.06,0.56L-185.58-48.36z"/>
	<path class="st20" d="M-235.19-15.95c-0.04-0.09-0.02-0.2,0.04-0.27l1.26-1.47l-0.5-1.87c-0.03-0.1,0-0.2,0.08-0.26
		c0.07-0.07,0.18-0.08,0.27-0.04l1.8,0.74l1.63-1.05c0.08-0.05,0.19-0.06,0.28,0c0.05,0.03,0.09,0.07,0.11,0.12
		c0.02,0.04,0.02,0.08,0.02,0.12l-0.15,1.93l1.51,1.22c0.03,0.03,0.06,0.06,0.07,0.1c0.02,0.05,0.03,0.1,0.01,0.16
		c-0.02,0.1-0.1,0.17-0.19,0.2l-1.89,0.45l-0.7,1.8c-0.04,0.09-0.12,0.15-0.22,0.17c-0.1,0.01-0.19-0.04-0.25-0.12l-1.02-1.65
		l-1.94-0.1C-235.06-15.8-235.15-15.86-235.19-15.95z"/>
	<path class="st6" d="M-228.53-16.8l-0.01-0.01c-0.04-0.08-0.09-0.14-0.15-0.19l-1.4-1.12l0.14-1.79c0.01-0.08-0.01-0.17-0.04-0.24
		c-0.04-0.1-0.12-0.18-0.21-0.24c-0.17-0.1-0.38-0.1-0.55,0.01l-1.52,0.98l-1.67-0.69c-0.18-0.08-0.4-0.04-0.54,0.09
		c-0.15,0.13-0.21,0.33-0.16,0.52l0.47,1.74l-1.17,1.37c-0.13,0.15-0.16,0.36-0.08,0.54c0.08,0.18,0.25,0.3,0.45,0.31l1.81,0.1
		l0.95,1.53c0.1,0.17,0.29,0.26,0.49,0.24c0.2-0.02,0.37-0.15,0.44-0.33l0.65-1.68l1.74-0.42c0.03-0.01,0.07-0.02,0.1-0.03
		C-228.54-16.23-228.42-16.53-228.53-16.8L-228.53-16.8z M-229.01-16.6l-2.03,0.48l-0.75,1.93l-1.09-1.76l-2.08-0.11l1.35-1.57
		l-0.54-2l1.93,0.79l1.75-1.13l-0.16,2.06L-229.01-16.6z"/>
	<path class="st4" d="M-158.33-18.53c-0.09,0-0.17-0.05-0.21-0.13l-0.77-1.55l-1.73-0.25c-0.09-0.01-0.16-0.07-0.19-0.16
		c-0.03-0.08,0-0.18,0.06-0.24l1.25-1.21l-0.29-1.71c-0.01-0.09,0.02-0.17,0.09-0.23c0.04-0.03,0.09-0.04,0.14-0.04
		c0.04,0,0.07,0.01,0.11,0.03l1.54,0.81l1.54-0.81c0.03-0.02,0.07-0.03,0.11-0.03c0.05,0,0.1,0.01,0.14,0.04
		c0.07,0.05,0.11,0.14,0.09,0.23l-0.29,1.71l1.25,1.21c0.06,0.06,0.09,0.15,0.06,0.24c-0.03,0.08-0.1,0.14-0.19,0.16l-1.73,0.25
		l-0.77,1.55C-158.16-18.57-158.24-18.53-158.33-18.53z"/>
	<path class="st6" d="M-156.68-24.27h-0.01c-0.08,0-0.15,0.02-0.21,0.06l-1.43,0.74l-1.43-0.75c-0.07-0.04-0.14-0.05-0.22-0.05
		c-0.1,0-0.19,0.03-0.27,0.09c-0.14,0.1-0.22,0.28-0.19,0.45l0.27,1.59l-1.16,1.12c-0.13,0.12-0.17,0.31-0.12,0.48
		c0.06,0.17,0.2,0.29,0.38,0.32l1.6,0.23l0.72,1.44c0.08,0.16,0.24,0.26,0.42,0.26s0.34-0.1,0.42-0.26l0.72-1.44l1.6-0.23
		c0.18-0.03,0.32-0.15,0.38-0.32c0.06-0.17,0.01-0.35-0.12-0.48l-1.16-1.12l0.27-1.57c0.01-0.03,0.01-0.06,0.01-0.1
		C-156.2-24.06-156.41-24.26-156.68-24.27L-156.68-24.27z M-156.68-23.8l-0.32,1.83l1.33,1.29l-1.84,0.27l-0.83,1.66l-0.82-1.66
		l-1.84-0.27l1.33-1.29l-0.32-1.83l1.65,0.86L-156.68-23.8z"/>
	<path class="st4" d="M-229.91-30.49c-0.05-0.04-0.08-0.11-0.07-0.17l0.26-1.29l-0.93-0.94c-0.05-0.05-0.06-0.12-0.04-0.18
		c0.02-0.06,0.08-0.11,0.15-0.12l1.32-0.16l0.61-1.17c0.03-0.06,0.09-0.1,0.16-0.1c0.04,0,0.07,0.01,0.1,0.04
		c0.02,0.02,0.04,0.04,0.05,0.07l0.56,1.2l1.31,0.22c0.03,0,0.06,0.02,0.08,0.03c0.03,0.02,0.05,0.05,0.06,0.09
		c0.02,0.06,0,0.13-0.05,0.18l-0.97,0.9l0.19,1.3c0.01,0.07-0.02,0.13-0.07,0.17c-0.06,0.04-0.13,0.04-0.19,0.01l-1.16-0.64
		l-1.19,0.59C-229.78-30.44-229.86-30.45-229.91-30.49z"/>
	<path class="st6" d="M-226.24-33.21L-226.24-33.21c-0.06-0.04-0.11-0.06-0.16-0.07l-1.21-0.2l-0.52-1.11
		c-0.03-0.05-0.06-0.1-0.11-0.13c-0.06-0.04-0.13-0.07-0.21-0.07c-0.13,0-0.26,0.07-0.32,0.19l-0.57,1.09l-1.23,0.15
		c-0.13,0.02-0.25,0.11-0.29,0.23c-0.04,0.13-0.01,0.27,0.08,0.36l0.86,0.88l-0.24,1.2c-0.03,0.13,0.03,0.27,0.13,0.35
		c0.11,0.08,0.25,0.1,0.37,0.04l1.11-0.54l1.08,0.6c0.12,0.07,0.26,0.06,0.38-0.02c0.11-0.08,0.17-0.21,0.15-0.34l-0.18-1.21
		l0.89-0.82c0.02-0.01,0.04-0.03,0.05-0.05C-226.05-32.87-226.08-33.09-226.24-33.21z M-226.45-32.93l-1.04,0.96l0.21,1.4
		l-1.24-0.69l-1.27,0.63l0.27-1.38l-0.99-1.01l1.41-0.17l0.66-1.25l0.6,1.28L-226.45-32.93z"/>
	<path class="st21" d="M-157.25-4.05c-0.06,0-0.11-0.03-0.13-0.08l-0.5-1l-1.11-0.16c-0.06-0.01-0.1-0.05-0.12-0.1
		c-0.02-0.06,0-0.11,0.04-0.15l0.8-0.78l-0.19-1.1c-0.01-0.06,0.01-0.11,0.06-0.15c0.03-0.02,0.06-0.03,0.09-0.03
		c0.02,0,0.05,0.01,0.07,0.02l0.99,0.52l0.99-0.52c0.02-0.01,0.05-0.02,0.07-0.02c0.03,0,0.06,0.01,0.09,0.03
		c0.05,0.03,0.07,0.09,0.06,0.15l-0.19,1.1l0.8,0.78c0.04,0.04,0.06,0.1,0.04,0.15c-0.02,0.05-0.06,0.09-0.12,0.1l-1.11,0.16l-0.5,1
		C-157.14-4.08-157.19-4.05-157.25-4.05z"/>
	<path class="st6" d="M-156.19-7.74L-156.19-7.74c-0.06,0-0.1,0.01-0.15,0.04l-0.92,0.48l-0.92-0.48c-0.04-0.02-0.09-0.03-0.14-0.03
		c-0.06,0-0.12,0.02-0.18,0.06c-0.09,0.07-0.14,0.18-0.12,0.29l0.18,1.02l-0.75,0.72c-0.08,0.08-0.11,0.2-0.08,0.31
		c0.04,0.11,0.13,0.19,0.24,0.2l1.03,0.15l0.46,0.93c0.05,0.1,0.16,0.17,0.27,0.17c0.11,0,0.22-0.06,0.27-0.17l0.46-0.93l1.03-0.15
		c0.11-0.02,0.21-0.1,0.24-0.2c0.04-0.11,0.01-0.23-0.07-0.31l-0.75-0.72l0.18-1.01c0-0.02,0.01-0.04,0.01-0.06
		C-155.89-7.61-156.02-7.74-156.19-7.74z M-156.19-7.44l-0.2,1.17l0.86,0.83l-1.19,0.17l-0.53,1.07l-0.53-1.07l-1.19-0.17l0.86-0.83
		l-0.2-1.17l1.06,0.56L-156.19-7.44z"/>
	<path class="st21" d="M-225.81-1.06c-0.06,0-0.11-0.03-0.13-0.08l-0.5-1l-1.11-0.16c-0.06-0.01-0.1-0.05-0.12-0.1
		c-0.02-0.05,0-0.11,0.04-0.15l0.8-0.78l-0.19-1.1c-0.01-0.06,0.01-0.11,0.06-0.15c0.03-0.02,0.06-0.03,0.09-0.03
		c0.02,0,0.05,0.01,0.07,0.02l0.99,0.52l0.99-0.52c0.02-0.01,0.04-0.02,0.07-0.02c0.03,0,0.06,0.01,0.09,0.03
		c0.05,0.03,0.07,0.09,0.06,0.15l-0.19,1.1l0.8,0.78c0.04,0.04,0.06,0.1,0.04,0.15c-0.02,0.05-0.06,0.09-0.12,0.1l-1.11,0.16l-0.5,1
		C-225.7-1.09-225.75-1.06-225.81-1.06z"/>
	<path class="st6" d="M-224.74-4.76L-224.74-4.76c-0.06,0-0.1,0.01-0.15,0.04l-0.92,0.48l-0.92-0.48c-0.04-0.02-0.09-0.03-0.14-0.03
		c-0.06,0-0.12,0.02-0.18,0.06c-0.09,0.07-0.14,0.18-0.12,0.29l0.18,1.02l-0.75,0.72c-0.08,0.08-0.11,0.2-0.08,0.31
		c0.04,0.11,0.13,0.19,0.24,0.2l1.03,0.15l0.46,0.93c0.05,0.1,0.15,0.17,0.27,0.17c0.12,0,0.22-0.06,0.27-0.17l0.46-0.93l1.03-0.15
		c0.11-0.02,0.21-0.1,0.24-0.2c0.04-0.11,0.01-0.23-0.07-0.31l-0.75-0.72l0.18-1.01c0-0.02,0.01-0.04,0.01-0.06
		C-224.44-4.62-224.58-4.76-224.74-4.76z M-224.74-4.46l-0.2,1.17l0.86,0.83l-1.19,0.17l-0.53,1.07l-0.53-1.07l-1.19-0.17l0.86-0.83
		l-0.2-1.17l1.06,0.56L-224.74-4.46z"/>
	<path class="st22" d="M-184.73,26.54c-0.22,0-0.44-0.01-0.66-0.02C-185.17,26.54-184.95,26.54-184.73,26.54z M-184.45,26.54
		c1.01-0.02,1.99-0.18,2.94-0.47C-182.46,26.36-183.45,26.52-184.45,26.54z M-185.45,26.52c-1.92-0.12-3.73-0.73-5.31-1.75
		C-189.18,25.79-187.36,26.4-185.45,26.52z M-181.29,26c3-0.97,5.51-3.19,6.79-6.14c1.03-0.04,2.03-0.18,3.01-0.39
		c-0.97,0.22-1.98,0.35-3.01,0.39C-175.78,22.81-178.29,25.03-181.29,26z M-192.45,23.42c-0.12-0.11-0.23-0.22-0.34-0.34
		C-192.68,23.2-192.57,23.31-192.45,23.42z M-170.98,19.34c1.3-0.33,2.55-0.82,3.72-1.43C-168.43,18.53-169.68,19.01-170.98,19.34z"
		/>
	<path class="st23" d="M-184.71,26.54c-0.01,0-0.01,0-0.02,0c-0.22,0-0.44-0.01-0.66-0.02c-0.01-0.03-0.03-0.05-0.04-0.07
		c-0.01,0.02-0.02,0.05-0.02,0.07c-1.92-0.12-3.73-0.73-5.31-1.75c0.36-0.42,0.69-0.95,0.98-1.56c1.49,0.96,3.23,1.49,5.06,1.49
		c0.88,0,1.75-0.13,2.57-0.36c0.19,0.3,0.36,0.63,0.49,0.98c0.09,0.24,0.14,0.5,0.13,0.75c-0.94,0.28-1.93,0.44-2.94,0.47
		C-184.54,26.54-184.63,26.54-184.71,26.54z M-181.29,26c0.36-0.58,0.51-1.29,0.51-1.94c0-0.08,0-0.15-0.01-0.23
		c1.32-0.62,2.48-1.53,3.38-2.68c0.07,0.18,0.14,0.36,0.19,0.54c0.37-1.05,0.89-2.11,1.56-3.2c0.09-0.15,0.18-0.29,0.27-0.43
		c0.07-0.02,0.15-0.03,0.23-0.03c2.5-0.01,4.85-0.63,6.93-1.7c0.43,0.42,0.76,0.96,0.95,1.58c-1.17,0.61-2.41,1.1-3.72,1.43
		c0-0.03,0-0.06,0-0.08c0-0.06,0-0.1-0.01-0.13c-0.09,0-0.27,0.1-0.51,0.33c-0.97,0.22-1.98,0.35-3.01,0.39
		C-175.78,22.81-178.29,25.03-181.29,26z M-197.56,24.67c0.03-0.65,0.18-1.28,0.42-1.86c1.43-0.13,2.78-0.71,3.85-1.67
		c0.17-0.15,0.39-0.24,0.62-0.24c0.03,0,0.05,0,0.07,0c0.25,0.02,0.49,0.14,0.65,0.34c0.44,0.54,0.93,1.03,1.46,1.46
		c-0.36,0.47-0.92,0.77-1.55,0.77c-0.14,0-0.28-0.01-0.41-0.04c-0.11-0.11-0.23-0.22-0.34-0.34
		C-194.18,24.08-195.84,24.63-197.56,24.67z"/>
	<path class="st24" d="M-184.26,9.79l-2.08-0.41c0.73-0.27,1.52-0.45,2.36-0.54C-184.04,9.18-184.14,9.5-184.26,9.79z"/>
	<path class="st2" d="M-151.61,5.25c0-1.7,0-3.4,0-5.1c0-0.78-1.22-0.78-1.22,0c0,1.7,0,3.4,0,5.1
		C-152.82,6.03-151.61,6.03-151.61,5.25z"/>
	<path class="st2" d="M-145.41,6.35c0.98-2.33,2.04-4.63,2.98-6.99c0.29-0.73-0.89-1.04-1.17-0.32c-0.93,2.35-2,4.65-2.97,6.99
		C-146.88,6.75-145.7,7.06-145.41,6.35z"/>
	<path class="st2" d="M-140.02,9.17c1.06-1.06,1.99-2.23,2.97-3.36c0.51-0.59-0.34-1.44-0.86-0.85c-0.99,1.13-1.92,2.29-2.98,3.36
		C-141.43,8.87-140.57,9.73-140.02,9.17z"/>
	<path class="st2" d="M-199.75,12.75c1.7,0.41,3.42,0.68,5.14,0.94c0.77,0.12,1.1-1.05,0.32-1.17c-1.72-0.26-3.44-0.53-5.14-0.94
		C-200.19,11.41-200.52,12.57-199.75,12.75z"/>
	<path class="st2" d="M-199.43,5.38c1.65,1.23,3.29,2.48,5,3.63c0.65,0.44,1.26-0.61,0.61-1.04c-1.71-1.15-3.35-2.4-5-3.63
		C-199.44,3.86-200.05,4.91-199.43,5.38z"/>
	<path class="st2" d="M-191.26,0.74c0.36,1.71,1.06,3.33,1.38,5.06c0.14,0.76,1.35,0.6,1.21-0.17c-0.32-1.72-1.02-3.34-1.38-5.06
		C-190.21-0.18-191.42-0.02-191.26,0.74z"/>
	<path class="st25" d="M-189.58,28c-0.2-0.26-0.37-0.66-0.5-1.19c-0.13-0.53-0.24-1.12-0.32-1.76c-0.08-0.64-0.14-1.25-0.17-1.83
		c-0.04-0.58-0.06-1.04-0.07-1.38c0-0.1-0.01-0.23-0.01-0.38c-0.02-0.49-0.05-1.15-0.09-1.99c-0.04-0.83-0.06-1.74-0.08-2.71
		c-0.01-0.97-0.01-1.91,0.01-2.82c0.02-0.91,0.08-1.69,0.17-2.35c0.09-0.65,0.22-1.07,0.4-1.24c0.26-0.24,0.6-0.39,1-0.44
		c0.4-0.05,0.78-0.01,1.13,0.13c0.35,0.14,0.59,0.37,0.7,0.7c0.5-0.23,1.03-0.4,1.58-0.5c0.65-0.13,1.23-0.14,1.75-0.06
		c0.51,0.09,0.96,0.27,1.34,0.54c0.68,0.51,1.08,1.2,1.18,2.07l0.01,0.01c0.08,0.66-0.02,1.37-0.32,2.14
		c-0.35,0.93-0.99,1.89-1.92,2.89c0.45,0.04,0.87,0.12,1.26,0.24c0.73,0.22,1.32,0.56,1.74,1.02c0.42,0.46,0.72,0.97,0.88,1.54
		c0.16,0.57,0.22,1.13,0.17,1.69c-0.05,0.56-0.19,1.05-0.42,1.46c-0.43,0.77-1.08,1.49-1.96,2.17c-0.88,0.67-1.97,1.24-3.28,1.7
		c-0.89,0.3-1.65,0.46-2.28,0.47c-0.26,0.27-0.57,0.4-0.91,0.39C-188.95,28.51-189.27,28.33-189.58,28z M-187.55,15.06
		c-0.01,0.56-0.01,1.1,0,1.63c0.67-0.49,1.22-0.99,1.65-1.49c0.42-0.5,0.72-0.98,0.89-1.42c0.04-0.11,0.07-0.22,0.09-0.31
		l-0.27,0.05c-0.55,0.11-1.05,0.33-1.51,0.66C-187.03,14.42-187.32,14.72-187.55,15.06z M-187.26,25.07
		c0.87-0.27,1.64-0.62,2.29-1.05c0.66-0.43,1.17-0.87,1.53-1.31c0.36-0.45,0.55-0.85,0.56-1.21c0.01-0.36-0.19-0.61-0.59-0.75
		c-0.4-0.14-1.05-0.11-1.94,0.09c-0.71,0.17-1.38,0.36-2,0.59l0.01,0.27c0,0.03,0,0.07,0,0.11
		C-187.35,22.85-187.31,23.94-187.26,25.07z"/>
	<path class="st25" d="M-169.75,22.32c-0.37,1.39-0.97,2.61-1.81,3.66c-0.81,0.99-1.58,1.66-2.31,2.02
		c-0.56,0.28-1.09,0.42-1.59,0.41c-0.5-0.01-0.97-0.14-1.4-0.39c-0.47-0.27-0.86-0.65-1.17-1.13s-0.53-1.05-0.68-1.68
		c-0.26-1.23-0.27-2.61-0.01-4.15c0.13-0.74,0.32-1.48,0.57-2.21c0.26-0.74,0.58-1.44,0.97-2.1c0.2-0.38,0.48-0.76,0.83-1.16
		c0.36-0.4,0.75-0.75,1.18-1.05c0.43-0.3,0.86-0.5,1.29-0.6c0.43-0.1,0.83-0.04,1.19,0.17c0.36,0.21,0.65,0.64,0.87,1.27
		c1.02,0.01,2.02-0.06,3.01-0.22c0.53-0.08,1.03-0.19,1.5-0.31c0.48-0.13,0.95-0.25,1.41-0.39c0.65-0.19,1.32-0.36,2-0.52
		c0.48-0.11,0.92-0.03,1.32,0.25c0.39,0.28,0.69,0.84,0.89,1.67l0.06,0.05c0.53,0.42,0.95,0.89,1.27,1.41
		c0.32,0.52,0.55,1.08,0.69,1.66c0.24,1.1,0.22,2.22-0.08,3.35c-0.37,1.39-0.97,2.61-1.81,3.66c-0.81,0.99-1.58,1.66-2.31,2.02
		c-0.56,0.28-1.09,0.42-1.59,0.41c-0.5-0.01-0.97-0.14-1.4-0.39c-0.47-0.27-0.86-0.65-1.17-1.13c-0.31-0.49-0.53-1.05-0.68-1.68
		c-0.26-1.23-0.27-2.61-0.01-4.15c0.23-1.37,0.68-2.68,1.34-3.96c-0.36,0.07-0.72,0.14-1.09,0.19c-0.59,0.09-1.18,0.16-1.78,0.2
		c0.27,0.47,0.47,0.96,0.58,1.49C-169.43,20.08-169.46,21.2-169.75,22.32z M-173.15,22.92c0.2-0.58,0.35-1.16,0.44-1.74
		c0.09-0.57,0.09-1.07,0-1.5c-0.09-0.44-0.28-0.8-0.55-1.08c-0.27-0.28-0.6-0.51-0.99-0.69c-0.08,0.13-0.17,0.25-0.25,0.38
		c-0.34,0.6-0.63,1.34-0.88,2.19c-0.25,0.85-0.42,1.7-0.52,2.53c-0.09,0.94-0.09,1.63,0,2.07c0.09,0.44,0.25,0.68,0.47,0.72
		c0.22,0.04,0.47-0.07,0.76-0.33c0.28-0.25,0.56-0.61,0.83-1.06C-173.59,23.95-173.35,23.46-173.15,22.92z M-165.91,23.01
		c-0.09,0.94-0.09,1.63,0,2.07s0.25,0.68,0.47,0.72c0.22,0.04,0.47-0.07,0.75-0.33c0.28-0.25,0.55-0.61,0.83-1.06
		c0.27-0.45,0.5-0.95,0.69-1.49c0.21-0.58,0.36-1.16,0.46-1.74c0.09-0.57,0.09-1.07,0-1.5c-0.1-0.44-0.29-0.8-0.56-1.08
		c-0.27-0.28-0.6-0.51-1-0.69c-0.07,0.13-0.15,0.25-0.24,0.38c-0.34,0.6-0.63,1.34-0.89,2.19
		C-165.65,21.33-165.82,22.18-165.91,23.01z"/>
	<path class="st25" d="M-157.32,28.02c-0.29-0.34-0.56-1.16-0.79-2.46c-0.23-1.29-0.41-2.81-0.54-4.54
		c-0.13-1.73-0.17-3.43-0.14-5.09c0.03-1.66,0.16-3.04,0.39-4.12c0.2-0.78,0.45-1.32,0.76-1.61c0.31-0.29,0.62-0.4,0.94-0.31
		c0.32,0.08,0.57,0.3,0.78,0.65c0.2,0.35,0.3,0.77,0.28,1.27c-0.15,2.28-0.24,4.47-0.27,6.57c0.76-0.92,1.49-1.62,2.2-2.1
		c0.71-0.49,1.34-0.8,1.9-0.93c0.56-0.14,1-0.14,1.32-0.01c0.32,0.13,0.49,0.35,0.49,0.67c0,0.32-0.21,0.69-0.63,1.12
		c-0.08,0.08-0.23,0.22-0.42,0.41c-0.34,0.31-0.75,0.71-1.24,1.19c-0.49,0.48-0.99,0.98-1.48,1.49c-0.49,0.51-0.9,0.96-1.22,1.36
		c-0.32,0.4-0.47,0.67-0.45,0.81c0.01,0.02,0.15,0.01,0.41-0.05s0.58-0.13,0.96-0.22s0.75-0.2,1.12-0.32
		c0.37-0.12,0.67-0.23,0.91-0.32c0.64-0.27,1.14-0.36,1.51-0.27c0.37,0.09,0.57,0.31,0.61,0.63c0.04,0.33-0.1,0.7-0.42,1.11
		c-0.32,0.41-0.85,0.8-1.6,1.17c-0.35,0.16-0.69,0.29-1.02,0.39c-0.33,0.1-0.65,0.19-0.95,0.27c-0.03,0.01-0.07,0.02-0.11,0.03
		c-0.65,0.17-1.23,0.22-1.73,0.16c0.01,0.57,0.02,1.16,0.03,1.77c0,0.54-0.08,0.95-0.23,1.23c-0.16,0.28-0.36,0.42-0.61,0.43
		C-156.81,28.4-157.06,28.28-157.32,28.02z"/>
	<path class="st25" d="M-149.12,12.79c-0.13-0.31-0.19-0.67-0.18-1.08c0-0.41,0.08-0.79,0.23-1.13c0.15-0.34,0.37-0.57,0.68-0.67
		c0.26-0.07,0.51,0.01,0.76,0.24c0.24,0.23,0.38,0.61,0.43,1.16c0.03,0.74-0.05,1.34-0.24,1.81c-0.19,0.46-0.41,0.8-0.66,1
		c-0.25,0.2-0.44,0.28-0.57,0.24c-0.13-0.05-0.12-0.21,0.04-0.48c0.09-0.16,0.15-0.29,0.17-0.39c0.01-0.1-0.01-0.16-0.09-0.17
		C-148.81,13.27-148.99,13.1-149.12,12.79z"/>
	<path class="st25" d="M-142.2,14.44c0.6-0.03,1.16,0.04,1.68,0.2c0.53,0.17,0.98,0.45,1.35,0.84c0.38,0.39,0.65,0.92,0.82,1.57
		c0.15,0.7,0.11,1.25-0.11,1.66c-0.22,0.41-0.52,0.68-0.89,0.83c-0.37,0.15-0.72,0.17-1.03,0.08c-0.32-0.09-0.5-0.3-0.55-0.61
		c-0.08-0.59-0.24-1.01-0.48-1.24c-0.25-0.23-0.52-0.32-0.83-0.27c-0.31,0.05-0.59,0.19-0.84,0.43c-0.25,0.24-0.42,0.53-0.5,0.87
		c-0.08,0.34-0.01,0.68,0.2,1.04c0.11,0.17,0.29,0.3,0.53,0.39s0.49,0.17,0.75,0.21c0.26,0.05,0.48,0.08,0.66,0.09
		c0.55,0.03,1.03,0.13,1.43,0.31c0.41,0.17,0.77,0.41,1.07,0.7c0.29,0.28,0.53,0.59,0.7,0.94c0.17,0.34,0.29,0.7,0.35,1.08
		c0.06,0.34,0.08,0.71,0.06,1.09c-0.02,0.39-0.07,0.74-0.14,1.06c-0.13,0.48-0.32,0.91-0.58,1.3c-0.26,0.39-0.57,0.68-0.93,0.89
		c-0.36,0.2-0.79,0.34-1.32,0.42s-1.05,0.1-1.6,0.05c-0.67-0.08-1.2-0.27-1.58-0.56c-0.38-0.29-0.64-0.62-0.76-0.98
		c-0.13-0.36-0.13-0.69-0.02-0.99c0.11-0.3,0.32-0.51,0.64-0.62c0.32-0.11,0.74-0.06,1.25,0.17c0.74,0.31,1.32,0.3,1.73-0.05
		c0.21-0.19,0.35-0.41,0.42-0.67c0.07-0.26,0.04-0.49-0.09-0.7c-0.13-0.2-0.39-0.32-0.76-0.35c-0.95-0.04-1.79-0.22-2.5-0.53
		c-0.84-0.39-1.47-0.9-1.88-1.54c-0.41-0.64-0.63-1.33-0.66-2.08c-0.03-0.75,0.1-1.47,0.39-2.17c0.29-0.7,0.71-1.3,1.27-1.8
		c0.56-0.5,1.23-0.82,2.01-0.97C-142.69,14.48-142.45,14.45-142.2,14.44z"/>
	<path class="st8" d="M-189.73,27.69c-0.19-0.25-0.36-0.64-0.48-1.16c-0.13-0.52-0.23-1.1-0.31-1.72c-0.08-0.63-0.13-1.23-0.17-1.79
		c-0.04-0.57-0.06-1.02-0.07-1.35c0-0.1,0-0.22-0.01-0.37c-0.02-0.48-0.05-1.13-0.08-1.95c-0.04-0.82-0.06-1.7-0.08-2.65
		c-0.01-0.95-0.01-1.87,0.01-2.77c0.02-0.89,0.07-1.66,0.16-2.3c0.09-0.64,0.22-1.05,0.39-1.22c0.26-0.24,0.58-0.38,0.97-0.43
		c0.39-0.05,0.76-0.01,1.1,0.13c0.34,0.14,0.57,0.36,0.68,0.68c0.49-0.22,1-0.39,1.54-0.49c0.63-0.12,1.2-0.14,1.7-0.05
		c0.5,0.09,0.94,0.26,1.3,0.53c0.66,0.5,1.05,1.17,1.15,2.02l0.01,0.01c0.08,0.64-0.02,1.34-0.31,2.1
		c-0.34,0.91-0.96,1.85-1.87,2.84c0.44,0.04,0.85,0.12,1.23,0.23c0.72,0.21,1.28,0.55,1.7,1c0.41,0.45,0.7,0.95,0.86,1.51
		c0.16,0.56,0.21,1.11,0.16,1.66c-0.05,0.55-0.19,1.02-0.41,1.43c-0.42,0.76-1.06,1.46-1.91,2.12c-0.85,0.66-1.92,1.21-3.2,1.66
		c-0.87,0.3-1.61,0.45-2.22,0.46c-0.26,0.27-0.55,0.39-0.89,0.38C-189.12,28.19-189.43,28.02-189.73,27.69z M-187.75,15.02
		c-0.01,0.55-0.01,1.08,0,1.59c0.66-0.48,1.19-0.96,1.6-1.46c0.41-0.49,0.7-0.95,0.87-1.4c0.04-0.11,0.07-0.21,0.09-0.31l-0.26,0.05
		c-0.53,0.11-1.02,0.33-1.47,0.64C-187.25,14.39-187.53,14.68-187.75,15.02z M-187.48,24.83c0.85-0.27,1.59-0.61,2.23-1.03
		c0.64-0.42,1.14-0.85,1.49-1.29c0.35-0.44,0.53-0.84,0.54-1.19c0.01-0.35-0.18-0.6-0.57-0.74c-0.39-0.14-1.02-0.11-1.9,0.08
		c-0.7,0.16-1.35,0.36-1.95,0.58l0.01,0.26c0,0.03,0,0.07,0,0.11C-187.56,22.65-187.52,23.71-187.48,24.83z"/>
	<path class="st8" d="M-169.27,22.22c-0.36,1.37-0.96,2.58-1.78,3.63c-0.8,0.98-1.56,1.65-2.28,2c-0.55,0.28-1.07,0.41-1.57,0.4
		c-0.5-0.01-0.96-0.14-1.38-0.39c-0.47-0.27-0.85-0.64-1.15-1.12c-0.3-0.48-0.52-1.03-0.67-1.67c-0.26-1.22-0.26-2.59-0.01-4.11
		c0.12-0.73,0.31-1.47,0.57-2.19c0.25-0.73,0.57-1.42,0.95-2.08c0.2-0.37,0.47-0.76,0.82-1.15c0.35-0.39,0.74-0.74,1.16-1.04
		c0.42-0.3,0.85-0.5,1.27-0.6c0.42-0.1,0.82-0.04,1.17,0.17c0.36,0.21,0.64,0.63,0.86,1.26c1,0.01,1.99-0.06,2.96-0.22
		c0.52-0.08,1.01-0.19,1.48-0.31c0.47-0.12,0.93-0.25,1.39-0.39c0.64-0.19,1.3-0.36,1.97-0.51c0.48-0.11,0.91-0.03,1.3,0.25
		c0.39,0.28,0.68,0.83,0.88,1.66l0.06,0.05c0.52,0.41,0.93,0.88,1.25,1.4c0.32,0.52,0.54,1.06,0.67,1.64
		c0.24,1.1,0.21,2.2-0.08,3.32c-0.36,1.37-0.96,2.58-1.78,3.63c-0.8,0.98-1.56,1.65-2.28,2c-0.55,0.28-1.07,0.41-1.57,0.4
		s-0.96-0.14-1.38-0.39c-0.47-0.27-0.85-0.64-1.15-1.12c-0.3-0.48-0.52-1.03-0.67-1.67c-0.26-1.22-0.26-2.59-0.01-4.11
		c0.23-1.35,0.67-2.66,1.32-3.92c-0.35,0.07-0.71,0.13-1.07,0.19c-0.58,0.09-1.16,0.16-1.75,0.2c0.27,0.46,0.46,0.96,0.57,1.47
		C-168.96,20-168.98,21.1-169.27,22.22z M-172.63,22.81c0.2-0.58,0.34-1.15,0.44-1.72c0.09-0.57,0.09-1.06,0-1.49
		c-0.09-0.43-0.27-0.79-0.54-1.07c-0.27-0.28-0.6-0.51-0.98-0.68c-0.08,0.13-0.16,0.25-0.25,0.37c-0.33,0.6-0.62,1.32-0.87,2.17
		c-0.25,0.85-0.42,1.68-0.51,2.51c-0.09,0.93-0.09,1.61,0,2.05c0.09,0.44,0.25,0.68,0.47,0.71c0.22,0.04,0.47-0.07,0.75-0.32
		c0.28-0.25,0.55-0.6,0.82-1.05C-173.05,23.84-172.82,23.35-172.63,22.81z M-165.49,22.9c-0.09,0.93-0.09,1.61,0,2.05
		c0.09,0.44,0.25,0.68,0.47,0.71c0.22,0.04,0.46-0.07,0.74-0.32c0.27-0.25,0.54-0.6,0.82-1.05c0.27-0.45,0.5-0.94,0.68-1.48
		c0.21-0.58,0.36-1.15,0.45-1.72c0.09-0.57,0.09-1.06,0-1.49c-0.1-0.43-0.29-0.79-0.55-1.07c-0.26-0.28-0.59-0.51-0.99-0.68
		c-0.07,0.13-0.15,0.25-0.23,0.37c-0.33,0.6-0.62,1.32-0.88,2.17C-165.24,21.24-165.41,22.08-165.49,22.9z"/>
	<path class="st8" d="M-156.85,27.59c-0.24-0.32-0.45-1.1-0.64-2.32c-0.19-1.22-0.33-2.65-0.44-4.29c-0.1-1.64-0.14-3.24-0.12-4.81
		c0.03-1.57,0.13-2.87,0.32-3.89c0.16-0.74,0.37-1.25,0.62-1.52c0.25-0.28,0.51-0.37,0.76-0.29c0.26,0.08,0.47,0.28,0.63,0.61
		c0.17,0.33,0.24,0.73,0.22,1.2c-0.12,2.16-0.19,4.23-0.22,6.2c0.61-0.87,1.21-1.53,1.79-1.99c0.58-0.46,1.09-0.75,1.54-0.88
		c0.45-0.13,0.81-0.13,1.08-0.01c0.26,0.12,0.4,0.33,0.4,0.64c0,0.3-0.17,0.65-0.51,1.06c-0.07,0.08-0.18,0.21-0.35,0.38
		c-0.27,0.29-0.61,0.67-1.01,1.12c-0.4,0.45-0.8,0.92-1.2,1.4s-0.73,0.91-0.99,1.29c-0.26,0.37-0.38,0.63-0.37,0.77
		c0.01,0.02,0.12,0,0.33-0.04c0.21-0.05,0.47-0.12,0.78-0.21c0.31-0.09,0.61-0.19,0.91-0.3c0.3-0.11,0.55-0.21,0.74-0.3
		c0.52-0.26,0.93-0.34,1.23-0.25c0.3,0.09,0.47,0.29,0.5,0.6c0.03,0.31-0.08,0.66-0.34,1.05c-0.26,0.39-0.69,0.76-1.3,1.1
		c-0.28,0.15-0.56,0.27-0.83,0.37c-0.27,0.1-0.53,0.18-0.78,0.25c-0.03,0.01-0.06,0.02-0.09,0.03c-0.53,0.16-1,0.21-1.41,0.15
		c0.01,0.54,0.02,1.1,0.03,1.67c0,0.51-0.06,0.9-0.19,1.16c-0.13,0.26-0.29,0.4-0.49,0.41C-156.43,27.95-156.64,27.83-156.85,27.59z
		"/>
	<path class="st8" d="M-149.06,12.79c-0.12-0.3-0.18-0.65-0.18-1.06c0-0.4,0.08-0.77,0.22-1.11c0.14-0.34,0.36-0.56,0.66-0.66
		c0.26-0.07,0.5,0,0.74,0.23s0.37,0.6,0.41,1.13c0.03,0.73-0.05,1.31-0.24,1.77c-0.19,0.45-0.4,0.78-0.64,0.98
		c-0.24,0.2-0.43,0.28-0.55,0.23c-0.13-0.05-0.12-0.2,0.04-0.47c0.09-0.15,0.15-0.28,0.16-0.38c0.01-0.1-0.01-0.16-0.09-0.17
		C-148.76,13.25-148.94,13.09-149.06,12.79z"/>
	<path class="st8" d="M-142.56,14.29c0.59-0.03,1.14,0.04,1.66,0.2c0.51,0.17,0.96,0.44,1.33,0.83c0.37,0.39,0.64,0.91,0.8,1.55
		c0.15,0.69,0.11,1.24-0.11,1.64c-0.22,0.4-0.51,0.67-0.88,0.82c-0.37,0.14-0.71,0.17-1.01,0.08c-0.31-0.09-0.49-0.29-0.54-0.6
		c-0.07-0.59-0.23-0.99-0.47-1.22c-0.24-0.23-0.52-0.32-0.82-0.27c-0.31,0.05-0.58,0.19-0.83,0.42c-0.25,0.24-0.41,0.52-0.49,0.86
		c-0.08,0.34-0.01,0.68,0.19,1.03c0.11,0.17,0.29,0.29,0.52,0.39c0.23,0.09,0.48,0.16,0.73,0.21c0.26,0.05,0.47,0.07,0.65,0.08
		c0.54,0.03,1.01,0.13,1.41,0.3c0.4,0.17,0.75,0.4,1.05,0.69c0.29,0.28,0.52,0.59,0.69,0.93c0.17,0.34,0.29,0.7,0.35,1.07
		c0.06,0.34,0.08,0.7,0.06,1.08c-0.02,0.38-0.07,0.73-0.14,1.05c-0.12,0.47-0.31,0.9-0.57,1.28c-0.26,0.38-0.56,0.67-0.91,0.88
		c-0.35,0.2-0.78,0.34-1.29,0.42c-0.51,0.08-1.04,0.1-1.57,0.05c-0.66-0.08-1.18-0.27-1.56-0.56c-0.38-0.29-0.63-0.61-0.75-0.96
		c-0.12-0.36-0.13-0.68-0.02-0.98c0.11-0.3,0.32-0.5,0.63-0.61c0.31-0.11,0.72-0.05,1.23,0.16c0.73,0.31,1.3,0.29,1.7-0.05
		c0.21-0.18,0.34-0.41,0.41-0.66c0.07-0.26,0.04-0.49-0.09-0.69c-0.13-0.2-0.38-0.32-0.75-0.35c-0.94-0.04-1.76-0.22-2.46-0.53
		c-0.83-0.38-1.44-0.89-1.84-1.52c-0.4-0.63-0.62-1.32-0.65-2.05c-0.03-0.74,0.1-1.45,0.38-2.14c0.28-0.69,0.7-1.28,1.25-1.78
		c0.55-0.49,1.21-0.81,1.97-0.96C-143.04,14.32-142.8,14.3-142.56,14.29z"/>
	<path class="st25" d="M-165.96,36.7c-0.49-0.19-0.85-0.45-1.09-0.78c-0.25-0.36-0.37-0.76-0.34-1.19c0.03-0.39,0.15-0.78,0.36-1.17
		c0.19-0.34,0.44-0.65,0.75-0.95c0.31-0.29,0.66-0.54,1.06-0.74c0.3-0.15,0.62-0.27,0.94-0.37c0.54-0.17,1.05-0.25,1.53-0.25
		c0.6,0.02,1.04,0.18,1.33,0.47c0.29,0.29,0.39,0.67,0.3,1.13c-0.06,0.26-0.17,0.46-0.36,0.61c-0.18,0.14-0.38,0.22-0.59,0.24
		c-0.21,0.01-0.38-0.05-0.53-0.19c-0.14-0.14-0.21-0.36-0.19-0.67c0.01-0.19-0.05-0.31-0.19-0.36c-0.14-0.05-0.32-0.04-0.54,0.03
		c-0.23,0.07-0.47,0.19-0.72,0.35s-0.5,0.35-0.73,0.58c-0.23,0.22-0.41,0.46-0.55,0.71c-0.13,0.23-0.2,0.44-0.22,0.65
		c0,0.16,0.03,0.3,0.12,0.42c0.08,0.12,0.19,0.19,0.31,0.21c0.13,0.02,0.26,0.02,0.41-0.01c0.15-0.03,0.3-0.07,0.44-0.11
		c0.11-0.03,0.21-0.06,0.31-0.08c0.26-0.06,0.5-0.11,0.73-0.16c0.23-0.04,0.43-0.07,0.61-0.07c0.41,0,0.76,0.06,1.06,0.18
		c0.3,0.12,0.54,0.29,0.72,0.49c0.25,0.28,0.38,0.6,0.4,0.96c0.02,0.32-0.05,0.64-0.21,0.96c-0.12,0.24-0.28,0.47-0.49,0.68
		c-0.21,0.22-0.46,0.41-0.76,0.57c-0.29,0.16-0.65,0.29-1.09,0.41c-0.43,0.11-0.82,0.17-1.17,0.17c-0.36-0.01-0.69-0.08-0.99-0.2
		c-0.31-0.12-0.55-0.3-0.73-0.52c-0.18-0.23-0.28-0.5-0.28-0.81c0-0.2,0.06-0.38,0.17-0.54c0.11-0.16,0.27-0.28,0.46-0.35
		c0.19-0.07,0.41-0.08,0.66-0.01c0.17,0.05,0.3,0.13,0.39,0.23c0.09,0.1,0.12,0.22,0.07,0.33c-0.07,0.14-0.1,0.26-0.1,0.35
		c0,0.13,0.06,0.21,0.18,0.27c0.12,0.06,0.27,0.08,0.46,0.07c0.19-0.01,0.38-0.06,0.6-0.15c0.21-0.09,0.41-0.21,0.6-0.38
		c0.19-0.17,0.35-0.38,0.48-0.63c0.06-0.13,0.09-0.25,0.1-0.36c0-0.11-0.03-0.2-0.12-0.27c-0.08-0.07-0.22-0.1-0.42-0.1
		c-0.07,0-0.19,0.02-0.36,0.05c-0.16,0.03-0.35,0.08-0.54,0.12c-0.27,0.06-0.54,0.12-0.81,0.18c-0.27,0.05-0.54,0.08-0.78,0.09
		C-165.56,36.81-165.77,36.78-165.96,36.7z"/>
	<path class="st25" d="M-158.82,31.33c0.21,0.03,0.36,0.11,0.46,0.25c0.09,0.13,0.16,0.26,0.18,0.37h0.21
		c0.48,0,0.81,0.05,0.98,0.14c0.17,0.09,0.25,0.2,0.24,0.32c-0.01,0.12-0.09,0.23-0.22,0.32c-0.13,0.09-0.3,0.14-0.52,0.14
		c-0.12,0-0.22,0-0.29,0.01c-0.06,0-0.12,0-0.18,0h-0.28c-0.02,0.1-0.05,0.26-0.07,0.49c-0.03,0.22-0.05,0.49-0.07,0.8
		c-0.02,0.31-0.03,0.65-0.04,1.03c-0.01,0.38-0.01,0.76-0.01,1.14c0,0.38,0.02,0.73,0.05,1.04c0.03,0.31,0.08,0.56,0.15,0.74
		c0.07,0.18,0.17,0.25,0.29,0.23c0.2-0.05,0.35-0.05,0.44-0.01c0.09,0.04,0.15,0.11,0.18,0.19c0.02,0.08,0.02,0.18-0.01,0.27
		c-0.03,0.1-0.07,0.17-0.12,0.23c-0.22,0.24-0.45,0.37-0.7,0.4c-0.25,0.02-0.49-0.03-0.73-0.16c-0.23-0.13-0.42-0.32-0.57-0.56
		c-0.15-0.25-0.25-0.51-0.32-0.79c-0.07-0.28-0.11-0.52-0.14-0.74c0-0.02,0-0.05-0.01-0.07c-0.09-0.64-0.16-1.31-0.18-1.99
		c-0.02-0.68,0-1.43,0.09-2.24h-0.54c-0.24,0-0.41-0.05-0.52-0.14c-0.1-0.09-0.15-0.19-0.14-0.32c0.01-0.12,0.1-0.23,0.27-0.33
		c0.17-0.1,0.46-0.15,0.89-0.15h0.12c0.01-0.08,0.07-0.18,0.17-0.3c0.1-0.12,0.23-0.21,0.39-0.28
		C-159.21,31.31-159.03,31.29-158.82,31.33z"/>
	<path class="st25" d="M-155.9,39.28c-0.25-0.12-0.45-0.29-0.62-0.5c-0.16-0.21-0.28-0.46-0.36-0.74c-0.15-0.55-0.15-1.16-0.02-1.84
		c0.07-0.32,0.17-0.65,0.31-0.97c0.14-0.33,0.31-0.64,0.52-0.93c0.12-0.18,0.28-0.36,0.47-0.54c0.2-0.18,0.42-0.34,0.66-0.47
		c0.24-0.13,0.48-0.21,0.72-0.24c0.24-0.03,0.45,0.02,0.64,0.15c0.19,0.13,0.34,0.37,0.44,0.72l0.02,0.02
		c0.29,0.19,0.51,0.4,0.68,0.63c0.17,0.23,0.29,0.47,0.36,0.73c0.13,0.49,0.11,0.99-0.04,1.48c-0.2,0.61-0.52,1.16-0.96,1.62
		c-0.43,0.44-0.84,0.75-1.23,0.9c-0.3,0.12-0.58,0.18-0.85,0.18C-155.42,39.45-155.66,39.39-155.9,39.28z M-155.38,37.06
		c-0.05,0.42-0.05,0.72,0,0.92c0.05,0.2,0.13,0.31,0.25,0.32s0.25-0.03,0.4-0.14c0.15-0.12,0.3-0.27,0.44-0.47
		c0.14-0.2,0.27-0.42,0.37-0.67c0.11-0.25,0.19-0.51,0.24-0.76s0.05-0.48,0-0.67c-0.06-0.19-0.16-0.35-0.3-0.47
		c-0.14-0.13-0.32-0.23-0.53-0.31c-0.04,0.06-0.09,0.11-0.13,0.17c-0.18,0.26-0.34,0.58-0.48,0.96
		C-155.24,36.31-155.33,36.69-155.38,37.06z"/>
	<path class="st25" d="M-151.54,33.62c0.06-0.26,0.17-0.46,0.34-0.58c0.17-0.13,0.36-0.18,0.57-0.18s0.38,0.08,0.52,0.21
		c0.14,0.14,0.2,0.34,0.19,0.61l-0.02,0.13c0.2-0.15,0.41-0.26,0.64-0.32c0.22-0.06,0.41-0.08,0.55-0.07
		c0.21,0.02,0.37,0.1,0.48,0.24c0.11,0.14,0.15,0.3,0.12,0.5c-0.03,0.19-0.14,0.38-0.33,0.57c-0.12,0.11-0.23,0.18-0.31,0.21
		c-0.08,0.03-0.15,0.03-0.21,0c-0.06-0.02-0.11-0.06-0.15-0.11c-0.09-0.12-0.17-0.17-0.25-0.17c-0.08,0-0.17,0.08-0.29,0.23
		c-0.08,0.13-0.15,0.28-0.19,0.46c-0.04,0.18-0.07,0.35-0.09,0.52c-0.02,0.17-0.02,0.31-0.02,0.43c0,0.51,0.03,1.03,0.07,1.56
		c0.02,0.35,0.04,0.63,0.04,0.84c0,0.27-0.05,0.46-0.15,0.59c-0.1,0.12-0.23,0.18-0.38,0.16c-0.15-0.02-0.3-0.1-0.45-0.25
		c-0.2-0.23-0.36-0.59-0.48-1.09c-0.12-0.5-0.2-1.04-0.24-1.63c-0.04-0.59-0.06-1.14-0.05-1.66
		C-151.61,34.29-151.59,33.9-151.54,33.62z"/>
	<path class="st25" d="M-145.22,39.44c-0.46,0-0.87-0.11-1.23-0.32c-0.36-0.21-0.66-0.49-0.9-0.84c-0.24-0.35-0.42-0.74-0.53-1.16
		c-0.12-0.42-0.16-0.85-0.13-1.28c0.03-0.43,0.13-0.83,0.31-1.2c0.18-0.37,0.45-0.68,0.79-0.92c0.35-0.25,0.79-0.39,1.32-0.44
		c0.26-0.02,0.51-0.02,0.75,0.02c0.24,0.04,0.47,0.11,0.67,0.21c0.36,0.18,0.59,0.42,0.71,0.7c0.11,0.28,0.14,0.58,0.07,0.9
		c-0.06,0.32-0.19,0.63-0.37,0.92c-0.18,0.29-0.4,0.54-0.65,0.74c-0.37,0.3-0.79,0.53-1.27,0.7c-0.09,0.03-0.18,0.06-0.27,0.08
		l0.03,0.04c0.09,0.25,0.21,0.45,0.35,0.6c0.15,0.15,0.3,0.22,0.46,0.23c0.16,0.01,0.31-0.07,0.44-0.23
		c0.14-0.16,0.23-0.41,0.3-0.76c0.01-0.06,0.02-0.11,0.03-0.15c0-0.06,0.02-0.12,0.03-0.18c0.02-0.05,0.06-0.11,0.13-0.18
		c0.15-0.15,0.29-0.19,0.42-0.14c0.13,0.06,0.23,0.18,0.31,0.37c0.07,0.19,0.11,0.42,0.1,0.67c-0.01,0.26-0.07,0.51-0.2,0.75
		c-0.12,0.24-0.32,0.44-0.59,0.61C-144.42,39.35-144.77,39.43-145.22,39.44z M-146.33,35.27c-0.06,0.16-0.09,0.34-0.1,0.53
		c-0.01,0.19,0.01,0.4,0.06,0.62c0.29-0.09,0.53-0.2,0.73-0.32c0.2-0.12,0.37-0.24,0.5-0.38c0.25-0.25,0.39-0.49,0.42-0.7
		c0.03-0.21-0.01-0.39-0.13-0.52c-0.11-0.13-0.27-0.2-0.46-0.21c-0.19-0.01-0.38,0.06-0.57,0.21
		C-146.05,34.66-146.21,34.92-146.33,35.27z"/>
	<path class="st8" d="M-165.69,36.79c-0.48-0.18-0.83-0.44-1.06-0.76c-0.24-0.35-0.36-0.74-0.33-1.16c0.03-0.38,0.14-0.76,0.35-1.13
		c0.18-0.33,0.43-0.63,0.73-0.92c0.3-0.29,0.64-0.53,1.03-0.72c0.29-0.14,0.6-0.26,0.91-0.36c0.53-0.17,1.02-0.25,1.48-0.24
		c0.58,0.02,1.01,0.17,1.29,0.46c0.28,0.28,0.38,0.65,0.29,1.1c-0.05,0.25-0.17,0.45-0.35,0.59c-0.18,0.14-0.37,0.22-0.57,0.23
		c-0.2,0.01-0.37-0.05-0.51-0.18c-0.14-0.13-0.2-0.35-0.18-0.65c0.01-0.19-0.05-0.31-0.18-0.35c-0.13-0.05-0.31-0.04-0.53,0.03
		c-0.22,0.07-0.45,0.18-0.7,0.34c-0.25,0.16-0.48,0.34-0.71,0.56c-0.22,0.22-0.4,0.44-0.54,0.69c-0.12,0.22-0.2,0.43-0.21,0.63
		c0,0.16,0.03,0.29,0.11,0.41c0.08,0.11,0.18,0.18,0.31,0.2c0.12,0.02,0.26,0.02,0.4-0.01c0.14-0.03,0.29-0.07,0.43-0.11
		c0.1-0.03,0.2-0.06,0.3-0.08c0.25-0.06,0.49-0.11,0.71-0.15c0.23-0.04,0.42-0.06,0.59-0.06c0.39,0,0.74,0.06,1.02,0.17
		c0.29,0.12,0.52,0.28,0.7,0.48c0.24,0.27,0.37,0.59,0.39,0.93c0.02,0.31-0.05,0.62-0.2,0.93c-0.11,0.23-0.27,0.45-0.47,0.66
		c-0.2,0.21-0.44,0.39-0.73,0.56c-0.28,0.15-0.63,0.28-1.05,0.4c-0.42,0.11-0.8,0.17-1.13,0.17c-0.35-0.01-0.67-0.07-0.96-0.19
		c-0.3-0.12-0.53-0.29-0.71-0.51s-0.27-0.48-0.27-0.79c0-0.19,0.05-0.37,0.17-0.52c0.11-0.16,0.26-0.27,0.45-0.34
		c0.19-0.07,0.4-0.07,0.64-0.01c0.16,0.05,0.29,0.12,0.38,0.23c0.09,0.1,0.11,0.21,0.07,0.32c-0.06,0.14-0.1,0.25-0.1,0.34
		c0,0.12,0.06,0.21,0.17,0.26c0.12,0.06,0.27,0.08,0.45,0.06c0.18-0.01,0.37-0.06,0.58-0.14c0.2-0.09,0.4-0.21,0.58-0.37
		c0.18-0.16,0.34-0.36,0.46-0.6c0.06-0.13,0.09-0.24,0.1-0.35c0.01-0.11-0.03-0.19-0.11-0.26c-0.08-0.07-0.22-0.1-0.41-0.1
		c-0.07,0-0.19,0.02-0.35,0.05c-0.16,0.03-0.34,0.07-0.52,0.12c-0.26,0.06-0.52,0.12-0.79,0.17c-0.27,0.05-0.52,0.08-0.76,0.09
		C-165.29,36.89-165.5,36.86-165.69,36.79z"/>
	<path class="st8" d="M-158.76,31.58c0.2,0.03,0.35,0.11,0.44,0.24c0.09,0.13,0.15,0.25,0.18,0.36h0.2c0.47,0,0.78,0.05,0.95,0.14
		c0.17,0.09,0.25,0.19,0.23,0.31c-0.01,0.12-0.08,0.22-0.21,0.31c-0.13,0.09-0.29,0.14-0.5,0.14c-0.11,0-0.21,0-0.28,0.01
		c-0.06,0-0.12,0-0.18,0h-0.27c-0.02,0.1-0.05,0.26-0.07,0.47c-0.03,0.22-0.05,0.47-0.06,0.77c-0.02,0.3-0.03,0.63-0.04,1
		c-0.01,0.37-0.01,0.74-0.01,1.1c0,0.37,0.02,0.7,0.05,1.01c0.03,0.3,0.08,0.54,0.15,0.71c0.07,0.17,0.16,0.25,0.28,0.23
		c0.2-0.04,0.34-0.05,0.43-0.01c0.09,0.04,0.15,0.1,0.17,0.18c0.02,0.08,0.02,0.17-0.01,0.26c-0.03,0.09-0.06,0.17-0.11,0.23
		c-0.21,0.23-0.44,0.36-0.68,0.39c-0.24,0.03-0.48-0.03-0.7-0.15c-0.23-0.13-0.41-0.31-0.56-0.54c-0.14-0.24-0.24-0.49-0.31-0.76
		c-0.06-0.27-0.11-0.51-0.14-0.72c0-0.02,0-0.04-0.01-0.07c-0.09-0.62-0.15-1.27-0.17-1.93c-0.02-0.66,0-1.39,0.08-2.17h-0.52
		c-0.23,0-0.4-0.05-0.5-0.14c-0.1-0.09-0.14-0.19-0.13-0.31c0.01-0.12,0.1-0.23,0.26-0.32c0.16-0.09,0.45-0.14,0.86-0.15h0.11
		c0.01-0.08,0.06-0.17,0.16-0.29c0.1-0.12,0.22-0.21,0.38-0.27C-159.14,31.56-158.96,31.55-158.76,31.58z"/>
	<path class="st8" d="M-155.92,39.29c-0.24-0.12-0.44-0.28-0.6-0.49s-0.28-0.45-0.35-0.72c-0.14-0.53-0.15-1.12-0.02-1.78
		c0.06-0.31,0.16-0.63,0.3-0.94c0.13-0.32,0.3-0.62,0.5-0.9c0.11-0.17,0.27-0.35,0.46-0.53s0.41-0.33,0.64-0.46
		c0.24-0.13,0.47-0.21,0.7-0.24c0.23-0.03,0.44,0.02,0.62,0.15c0.18,0.13,0.33,0.36,0.42,0.69l0.02,0.02
		c0.28,0.18,0.5,0.39,0.66,0.61c0.16,0.22,0.28,0.46,0.35,0.71c0.12,0.47,0.11,0.96-0.04,1.44c-0.19,0.6-0.5,1.12-0.93,1.57
		c-0.42,0.43-0.82,0.72-1.19,0.88c-0.29,0.12-0.56,0.17-0.82,0.17C-155.46,39.46-155.7,39.4-155.92,39.29z M-155.43,37.13
		c-0.05,0.4-0.05,0.7,0,0.89c0.05,0.19,0.13,0.3,0.24,0.31c0.11,0.02,0.24-0.03,0.39-0.14s0.29-0.27,0.43-0.46
		c0.14-0.19,0.26-0.41,0.36-0.65c0.11-0.25,0.19-0.49,0.24-0.74s0.05-0.46,0-0.65c-0.05-0.18-0.15-0.34-0.29-0.46
		c-0.14-0.12-0.31-0.22-0.52-0.3c-0.04,0.05-0.08,0.11-0.12,0.17c-0.18,0.26-0.33,0.57-0.46,0.93
		C-155.29,36.41-155.38,36.77-155.43,37.13z"/>
	<path class="st8" d="M-151.7,33.8c0.05-0.26,0.17-0.44,0.33-0.57c0.17-0.12,0.35-0.18,0.55-0.17c0.2,0,0.37,0.07,0.5,0.2
		c0.14,0.13,0.2,0.33,0.19,0.59l-0.02,0.13c0.2-0.15,0.4-0.25,0.62-0.31c0.22-0.06,0.39-0.08,0.54-0.06
		c0.21,0.02,0.36,0.1,0.47,0.23c0.11,0.13,0.14,0.29,0.12,0.48c-0.03,0.19-0.13,0.37-0.32,0.55c-0.12,0.11-0.22,0.17-0.3,0.2
		c-0.08,0.03-0.15,0.03-0.21,0s-0.1-0.06-0.14-0.1c-0.09-0.11-0.17-0.17-0.24-0.17c-0.08,0-0.17,0.07-0.28,0.22
		c-0.08,0.13-0.14,0.27-0.19,0.44c-0.04,0.17-0.07,0.34-0.09,0.5c-0.02,0.16-0.02,0.3-0.02,0.41c0,0.49,0.03,1,0.07,1.51
		c0.02,0.34,0.03,0.61,0.04,0.81c0,0.26-0.05,0.45-0.15,0.57c-0.1,0.12-0.22,0.17-0.36,0.16c-0.15-0.02-0.29-0.1-0.44-0.25
		c-0.2-0.22-0.35-0.57-0.46-1.05c-0.11-0.48-0.19-1.01-0.24-1.58c-0.04-0.57-0.06-1.11-0.05-1.61
		C-151.77,34.45-151.75,34.07-151.7,33.8z"/>
	<path class="st8" d="M-145.57,39.45c-0.45,0-0.85-0.11-1.19-0.31c-0.35-0.2-0.64-0.48-0.88-0.82c-0.24-0.34-0.41-0.72-0.52-1.13
		c-0.11-0.41-0.15-0.83-0.13-1.24c0.03-0.42,0.13-0.81,0.3-1.17c0.18-0.36,0.43-0.66,0.77-0.89c0.34-0.24,0.76-0.38,1.28-0.43
		c0.25-0.02,0.49-0.02,0.73,0.02c0.24,0.04,0.45,0.1,0.65,0.2c0.35,0.18,0.57,0.41,0.69,0.68c0.11,0.27,0.14,0.57,0.07,0.88
		c-0.06,0.31-0.18,0.61-0.36,0.89c-0.18,0.29-0.39,0.53-0.63,0.72c-0.36,0.29-0.77,0.52-1.24,0.68c-0.09,0.03-0.17,0.06-0.26,0.08
		l0.03,0.04c0.09,0.25,0.2,0.44,0.34,0.58c0.14,0.14,0.29,0.22,0.44,0.22c0.15,0.01,0.3-0.07,0.43-0.22
		c0.13-0.15,0.23-0.4,0.29-0.74c0.01-0.06,0.02-0.1,0.03-0.15c0-0.06,0.02-0.12,0.03-0.17c0.02-0.05,0.06-0.11,0.12-0.18
		c0.15-0.14,0.28-0.19,0.41-0.13c0.12,0.06,0.22,0.18,0.3,0.36c0.07,0.18,0.11,0.4,0.1,0.65c-0.01,0.25-0.07,0.49-0.19,0.73
		c-0.12,0.24-0.31,0.43-0.57,0.59C-144.79,39.35-145.14,39.44-145.57,39.45z M-146.65,35.4c-0.05,0.16-0.08,0.33-0.09,0.52
		c-0.01,0.19,0.01,0.39,0.06,0.6c0.28-0.09,0.51-0.19,0.71-0.31c0.2-0.11,0.36-0.24,0.49-0.37c0.24-0.25,0.38-0.47,0.41-0.68
		c0.03-0.21-0.01-0.38-0.12-0.5c-0.11-0.13-0.26-0.2-0.44-0.21c-0.18-0.01-0.37,0.06-0.55,0.21
		C-146.38,34.81-146.53,35.06-146.65,35.4z"/>
</g>
<path class="st19" d="M-349.08,177c0,37.81-0.04,75.61,0.08,113.42c0.01,2.98-0.6,3.58-3.58,3.58c-74.61-0.1-149.23-0.1-223.84,0
	c-2.98,0-3.58-0.6-3.58-3.58c0.1-75.95,0.1-151.89,0-227.84c0-2.98,0.6-3.58,3.58-3.58c74.61,0.1,149.23,0.1,223.84,0
	c2.98,0,3.59,0.6,3.58,3.58C-349.13,100.72-349.08,138.86-349.08,177z M-485.45,217.01c-6.16-3.28-12.16-6.65-18.7-9.03
	c-12.7-4.62-25.87-4.08-39.02-4c-6.04,0.04-6.64,0.63-6.66,6.56c-0.04,10.65-0.1,21.31,0.04,31.96c0.05,3.52-0.47,6.17-3.8,8.39
	c-4.29,2.86-5.47,7.84-3.69,12.44c1.78,4.57,5.13,7.32,10.18,7.51c3.16,0.12,6.32,0.06,9.49,0.06c51.44,0,102.88,0,154.32-0.02
	c6.75,0,10.85-2.57,12.61-7.69c1.75-5.08,0.32-9.3-5.09-13.32c-2.09-1.55-2.44-3.29-2.43-5.54c0.03-11.49-0.09-22.97,0.05-34.46
	c0.05-4.29-1.66-6.09-5.92-5.93c-4.32,0.16-8.66,0.1-12.98,0.01c-15.58-0.32-29.99,3.48-43.05,12.1c-0.75,0.49-1.44,1.5-3.02,0.63
	c1.86-2.83,4.48-4.81,6.85-7.02c1.72-1.6,3.98-3.33,1.93-5.83c-2.34-2.86-4.46-0.55-6.34,1.03c-8.24,6.93-14.91,15.16-20.29,24.48
	c-3,5.21-3.02,5.16-6.23-0.19c-16.27-27.11-40.08-42.46-71.59-45.69c-2.64-0.27-5.32-0.27-7.97-0.14c-1.66,0.08-2.77,1.21-2.82,2.95
	c-0.06,1.74,0.98,2.82,2.62,3.16c1.13,0.24,2.31,0.24,3.47,0.27c18.09,0.5,34.14,6.73,48.52,17.48
	C-491.33,209.91-487.82,212.86-485.45,217.01z M-482.48,127.6c0.13,4.9,4.64,8.23,7.66,5.68c7.45-6.27,13.75-6.78,21.38-0.12
	c3.49,3.05,9.35-1.49,7.47-5.86c-3.79-8.84-2.4-14.95,6.41-19.31c2.09-1.04,2.14-3.64,1.52-5.86c-0.65-2.34-2.44-4.06-4.71-3.7
	c-9.33,1.45-14.65-2.1-16.19-11.57c-0.39-2.42-2.52-3.79-5.25-3.72c-2.49,0.06-4.46,1.36-4.87,3.57
	c-1.67,9.15-6.49,13.41-16.08,11.7c-2.26-0.4-4.08,1.22-4.87,3.52c-0.84,2.45-0.36,4.65,1.65,6.31c2.05,1.69,4.16,3.34,6.39,4.77
	c2.53,1.61,3.11,3.54,2.06,6.33C-481.01,122.27-481.79,125.34-482.48,127.6z M-529.1,167.15c2.4-0.06,2.96-1.76,3.25-3.68
	c1.35-9.03,6.4-14.34,15.58-15.48c2.03-0.25,3.62-1.11,3.54-3.38c-0.07-2.25-1.72-3.06-3.72-3.24c-9.19-0.81-13.9-6.21-15.35-14.96
	c-0.35-2.09-0.86-4.14-3.51-3.96c-2.22,0.15-2.9,1.99-3.16,3.9c-1.23,8.89-6.1,14.09-15.18,15.04c-2.01,0.21-3.71,1.01-3.81,3.19
	c-0.1,2.23,1.55,3.13,3.56,3.39c9.13,1.19,14.33,6.28,15.46,15.48C-532.2,165.44-531.39,166.99-529.1,167.15z M-398.96,167.14
	c2.42,0.01,3.07-1.82,3.35-3.93c1.19-8.95,6.34-13.94,15.21-15.18c1.98-0.28,3.69-0.92,3.77-3.19c0.08-2.28-1.61-3.21-3.56-3.4
	c-9.33-0.94-14.23-6.25-15.48-15.34c-0.26-1.93-1.08-3.64-3.37-3.63c-2.36,0.01-2.91,1.85-3.2,3.74
	c-1.4,8.99-6.25,14.41-15.64,15.23c-2.01,0.18-3.53,1.2-3.45,3.48c0.08,2.03,1.51,2.81,3.33,3.03c9.41,1.12,14.53,6.52,15.82,15.79
	C-401.94,165.51-401.28,166.97-398.96,167.14z M-485.23,167.52c0-4.66,0.02-9.32-0.01-13.98c-0.01-2.01-0.69-3.8-2.95-3.94
	c-2.55-0.15-3.45,1.66-3.46,3.91c-0.03,9.32-0.03,18.64-0.01,27.96c0,2.18,0.66,4.21,3.2,4.22c2.53,0.01,3.22-1.99,3.23-4.19
	C-485.21,176.84-485.23,172.18-485.23,167.52z M-436.41,167.76c0-4.82,0.04-9.65-0.02-14.47c-0.03-2.03-0.9-3.73-3.17-3.7
	c-2.22,0.02-3.17,1.63-3.18,3.71c-0.03,9.48-0.04,18.96-0.01,28.45c0.01,1.97,0.64,3.81,2.92,3.95c2.62,0.16,3.4-1.79,3.44-3.95
	C-436.33,177.08-436.4,172.42-436.41,167.76z M-460.93,193.57c0-5.14,0.01-10.28-0.01-15.42c-0.01-2.17-0.47-4.1-3.2-4.06
	c-2.43,0.04-2.95,1.81-2.95,3.79c-0.03,10.45-0.02,20.9-0.02,31.35c0,2.2,0.63,4.2,3.21,4.11c2.59-0.08,2.98-2.2,2.98-4.34
	C-460.92,203.85-460.92,198.71-460.93,193.57z M-385.27,183.18c-7.14,0.39-13.85,1.35-20.42,3.17c-2.35,0.65-5.42,1.2-4.42,4.68
	c0.9,3.13,3.66,2.18,5.87,1.61c6.76-1.74,13.59-2.92,20.59-2.94c2.43-0.01,5.1-0.19,5.13-3.3c0.04-3.22-2.72-3.21-5.1-3.22
	C-384.28,183.18-384.94,183.18-385.27,183.18z M-461.1,157.02c-0.24-1.72-1.27-2.92-3.28-2.7c-1.74,0.19-2.59,1.43-2.55,3.14
	c0.05,2.07,1.32,3.04,3.27,2.86C-461.94,160.16-461.05,159.01-461.1,157.02z M-422.77,193.65c-1.87,0.25-3.01,1.27-2.89,3.22
	c0.1,1.67,1.13,2.73,2.82,2.79c1.94,0.07,3.14-1.13,3.21-2.94C-419.57,194.82-420.87,193.83-422.77,193.65z"/>
<path d="M-485.45,217.01c-2.36-4.15-5.88-7.1-9.52-9.82c-14.38-10.74-30.43-16.97-48.52-17.48c-1.16-0.03-2.34-0.03-3.47-0.27
	c-1.63-0.34-2.67-1.43-2.62-3.16c0.06-1.74,1.17-2.87,2.82-2.95c2.65-0.13,5.33-0.13,7.97,0.14c31.51,3.23,55.32,18.58,71.59,45.69
	c3.21,5.34,3.22,5.4,6.23,0.19c5.37-9.32,12.04-17.56,20.29-24.48c1.88-1.58,4-3.89,6.34-1.03c2.05,2.5-0.21,4.23-1.93,5.83
	c-2.37,2.21-4.99,4.19-6.85,7.02c1.58,0.87,2.27-0.14,3.02-0.63c13.07-8.62,27.47-12.42,43.05-12.1c4.33,0.09,8.66,0.15,12.98-0.01
	c4.26-0.16,5.98,1.64,5.92,5.93c-0.15,11.48-0.02,22.97-0.05,34.46c-0.01,2.25,0.34,3.99,2.43,5.54c5.41,4.02,6.84,8.24,5.09,13.32
	c-1.76,5.12-5.86,7.69-12.61,7.69c-51.44,0.02-102.88,0.02-154.32,0.02c-3.16,0-6.33,0.06-9.49-0.06
	c-5.06-0.19-8.41-2.94-10.18-7.51c-1.79-4.6-0.6-9.58,3.69-12.44c3.33-2.22,3.84-4.87,3.8-8.39c-0.14-10.65-0.07-21.31-0.04-31.96
	c0.02-5.92,0.62-6.52,6.66-6.56c13.14-0.08,26.31-0.62,39.02,4C-497.62,210.36-491.61,213.73-485.45,217.01z M-446.66,247.1
	c2.11,1.58,3.99,1.03,5.73,1.04c15.3,0.05,30.61,0.12,45.91-0.01c11.56-0.1,10,1.97,10.32-10.34c0.1-3.83-1.03-5.49-5.08-5.23
	c-4.31,0.27-8.65,0.09-12.97-0.04c-1.86-0.05-3.2-1.1-3.24-3.1c-0.04-2,1.21-3.07,3.11-3.19c2.32-0.14,4.65-0.07,6.98-0.13
	c12.62-0.33,11.05,2.62,11.13-12.09c0.01-2.63-1.19-3.49-3.65-3.44c-4.32,0.09-8.65-0.08-12.97,0.06
	c-22.97,0.73-40.69,10.91-53.46,29.88c-0.82,1.22-2.19,2.44-1.24,4.67c1.61-1.15,2.95-2.07,4.25-3.04
	c8.23-6.15,17.33-10.5,27.25-13.12c2.15-0.57,4.58-0.94,5.36,1.9c0.79,2.86-1.54,3.69-3.64,4.4c-2.83,0.96-5.77,1.63-8.52,2.77
	C-436.8,240.37-442.19,242.75-446.66,247.1z M-471.2,245.63c-0.39-1.82-0.4-2.35-0.62-2.77c-0.64-1.16-1.3-2.32-2.06-3.41
	c-14.26-20.29-33.89-29.57-58.57-28.91c-11.8,0.31-11.72,0.03-10.84,11.8c0.21,2.83,1.4,3.79,4.02,3.76
	c4.16-0.05,8.32-0.01,12.48,0.03c2.24,0.02,4.64,0.15,4.72,3.14c0.08,2.98-2.21,3.31-4.52,3.34c-2.16,0.02-4.33-0.03-6.49,0.01
	c-11.46,0.21-9.93-1.82-10.23,10.49c-0.1,3.97,1.27,5.15,5.17,5.11c17.64-0.17,35.28-0.06,52.91-0.11c1.2,0,2.72,0.58,3.56-1.14
	c-0.82-1.52-2.35-2.25-3.72-3.14c-6.2-4.03-12.98-6.69-20.08-8.65c-2.23-0.61-4.25-1.78-3.3-4.56c0.85-2.51,3.05-2.2,5.05-1.66
	c8.07,2.2,15.78,5.25,22.75,9.96C-478,240.94-475.05,242.99-471.2,245.63z M-464.03,254.63c-26.29,0-52.57-0.01-78.86,0.01
	c-3.7,0-8.17-0.29-8.31,4.8c-0.15,5.19,4.28,5,8.02,5.03c0.17,0,0.33,0,0.5,0c52.4,0,104.81,0.01,157.21-0.01
	c3.82,0,8.66,0.48,8.55-5c-0.11-5.4-4.97-4.82-8.76-4.82C-411.79,254.62-437.91,254.63-464.03,254.63z"/>
<path d="M-482.48,127.6c0.69-2.26,1.46-5.33,2.57-8.27c1.05-2.79,0.47-4.72-2.06-6.33c-2.24-1.43-4.34-3.08-6.39-4.77
	c-2.01-1.66-2.5-3.86-1.65-6.31c0.79-2.3,2.62-3.93,4.87-3.52c9.59,1.71,14.41-2.55,16.08-11.7c0.4-2.2,2.37-3.5,4.87-3.57
	c2.72-0.07,4.85,1.31,5.25,3.72c1.54,9.47,6.87,13.02,16.19,11.57c2.27-0.35,4.06,1.36,4.71,3.7c0.62,2.22,0.57,4.82-1.52,5.86
	c-8.81,4.37-10.19,10.47-6.41,19.31c1.87,4.38-3.98,8.91-7.47,5.86c-7.63-6.66-13.93-6.15-21.38,0.12
	C-477.84,135.82-482.35,132.5-482.48,127.6z M-479.81,104.99c0.54,2.45,2.17,3.25,3.49,4.03c4.15,2.45,5.32,5.65,3.23,10.04
	c-0.42,0.89-0.68,1.89-0.84,2.86c-0.1,0.6-0.1,1.46,0.25,1.84c0.71,0.76,1.65,0.22,2.17-0.34c5.48-5.94,10.65-4.25,15.79,0.48
	c0.26,0.24,0.9,0.08,1.66,0.12c0.43-3.82-2.78-7.05-1.74-10.67c1.08-3.75,6.13-4.24,7.83-8.9c-8.25,1.78-13.61-0.54-14.84-8.96
	c-0.09-0.63-0.67-1.31-1.42-1.05c-1.29,0.43-1.5,1.81-1.68,2.84c-1.04,6.1-4.59,8.43-10.59,7.47
	C-477.43,104.6-478.44,104.88-479.81,104.99z"/>
<path d="M-529.11,167.15c-2.28-0.16-3.09-1.71-3.33-3.68c-1.12-9.2-6.32-14.29-15.46-15.48c-2.01-0.26-3.67-1.16-3.56-3.39
	c0.1-2.19,1.8-2.98,3.81-3.19c9.08-0.95,13.94-6.16,15.18-15.04c0.27-1.91,0.95-3.75,3.16-3.9c2.65-0.18,3.16,1.87,3.51,3.96
	c1.44,8.74,6.16,14.14,15.35,14.96c2.01,0.18,3.65,0.99,3.72,3.24c0.07,2.27-1.51,3.13-3.54,3.38c-9.18,1.14-14.23,6.45-15.58,15.48
	C-526.14,165.39-526.7,167.09-529.11,167.15z M-529.56,150.97c1.32,0.07,6.88-4.99,6.58-5.93c-0.95-2.93-3.48-4.62-5.8-6.34
	c-0.77-0.56-6.87,5.09-6.45,6.07C-534.04,147.55-531.52,149.21-529.56,150.97z"/>
<path d="M-398.96,167.14c-2.31-0.17-2.97-1.64-3.22-3.4c-1.29-9.26-6.41-14.67-15.82-15.79c-1.82-0.22-3.26-1-3.33-3.03
	c-0.09-2.28,1.44-3.31,3.45-3.48c9.39-0.82,14.24-6.24,15.64-15.23c0.3-1.9,0.84-3.73,3.2-3.74c2.29-0.01,3.11,1.7,3.37,3.63
	c1.24,9.09,6.15,14.4,15.48,15.34c1.95,0.2,3.64,1.13,3.56,3.4c-0.08,2.26-1.79,2.91-3.77,3.19c-8.87,1.23-14.01,6.23-15.21,15.18
	C-395.89,165.33-396.54,167.15-398.96,167.14z M-398.73,138.33c-2.76,1.61-5.79,3.76-6.16,6.19c-0.42,2.8,3.27,4.53,5.51,6.36
	c0.76,0.62,6.95-4.88,6.56-5.98C-393.85,142.03-396.61,140.58-398.73,138.33z"/>
<path d="M-485.23,167.52c0,4.66,0.02,9.32,0,13.98c-0.01,2.2-0.7,4.2-3.23,4.19c-2.54-0.01-3.2-2.03-3.2-4.22
	c-0.02-9.32-0.02-18.64,0.01-27.96c0.01-2.25,0.91-4.07,3.46-3.91c2.26,0.14,2.94,1.93,2.95,3.94
	C-485.21,158.2-485.23,162.86-485.23,167.52z"/>
<path d="M-436.4,167.76c0,4.66,0.07,9.32-0.02,13.97c-0.04,2.16-0.82,4.12-3.44,3.95c-2.29-0.14-2.92-1.98-2.92-3.95
	c-0.03-9.48-0.02-18.96,0.01-28.45c0.01-2.08,0.96-3.69,3.18-3.71c2.27-0.02,3.15,1.67,3.17,3.7
	C-436.36,158.11-436.41,162.94-436.4,167.76z"/>
<path d="M-460.93,193.57c0.01,5.14,0.01,10.28,0.01,15.42c0,2.14-0.39,4.25-2.98,4.34c-2.57,0.08-3.2-1.91-3.21-4.11
	c0-10.45-0.01-20.9,0.02-31.35c0.01-1.97,0.52-3.75,2.95-3.79c2.73-0.04,3.19,1.89,3.2,4.06
	C-460.92,183.28-460.93,188.43-460.93,193.57z"/>
<path d="M-385.27,183.18c0.32,0,0.99,0,1.65,0c2.39,0.02,5.14,0,5.1,3.22c-0.03,3.1-2.7,3.29-5.13,3.3c-7,0.02-13.83,1.2-20.59,2.94
	c-2.21,0.57-4.97,1.52-5.87-1.61c-1-3.47,2.07-4.03,4.42-4.68C-399.12,184.54-392.41,183.57-385.27,183.18z"/>
<path d="M-461.1,157.02c0.05,1.99-0.85,3.13-2.57,3.3c-1.95,0.19-3.22-0.79-3.27-2.86c-0.04-1.71,0.81-2.96,2.55-3.14
	C-462.36,154.11-461.34,155.3-461.1,157.02z"/>
<path d="M-422.77,193.65c1.9,0.18,3.2,1.18,3.13,3.07c-0.07,1.81-1.26,3.02-3.21,2.94c-1.69-0.06-2.72-1.13-2.82-2.79
	C-425.77,194.91-424.64,193.89-422.77,193.65z"/>
<path class="st19" d="M-446.66,247.1c4.47-4.35,9.86-6.73,15.27-8.98c2.75-1.14,5.69-1.81,8.52-2.77c2.09-0.71,4.42-1.55,3.64-4.4
	c-0.78-2.85-3.21-2.47-5.36-1.9c-9.92,2.62-19.02,6.96-27.25,13.12c-1.3,0.97-2.64,1.89-4.25,3.04c-0.96-2.23,0.42-3.45,1.24-4.67
	c12.77-18.97,30.5-29.15,53.46-29.88c4.32-0.14,8.65,0.03,12.97-0.06c2.46-0.05,3.66,0.81,3.65,3.44
	c-0.08,14.7,1.49,11.76-11.13,12.09c-2.33,0.06-4.66-0.01-6.98,0.13c-1.9,0.11-3.15,1.19-3.11,3.19c0.04,2,1.38,3.04,3.24,3.1
	c4.32,0.13,8.66,0.31,12.97,0.04c4.05-0.26,5.18,1.4,5.08,5.23c-0.31,12.3,1.24,10.24-10.32,10.34c-15.3,0.13-30.61,0.06-45.91,0.01
	C-442.67,248.14-444.55,248.68-446.66,247.1z"/>
<path class="st19" d="M-471.2,245.63c-3.85-2.64-6.8-4.69-9.77-6.7c-6.98-4.7-14.68-7.75-22.75-9.96c-2-0.55-4.21-0.85-5.05,1.66
	c-0.94,2.79,1.08,3.95,3.3,4.56c7.1,1.96,13.88,4.62,20.08,8.65c1.37,0.89,2.9,1.62,3.72,3.14c-0.84,1.72-2.36,1.14-3.56,1.14
	c-17.64,0.04-35.28-0.07-52.91,0.11c-3.9,0.04-5.27-1.15-5.17-5.11c0.3-12.31-1.22-10.28,10.23-10.49c2.16-0.04,4.33,0.01,6.49-0.01
	c2.3-0.03,4.6-0.36,4.52-3.34c-0.08-2.99-2.48-3.12-4.72-3.14c-4.16-0.04-8.32-0.08-12.48-0.03c-2.61,0.03-3.81-0.93-4.02-3.76
	c-0.87-11.77-0.95-11.49,10.84-11.8c24.68-0.66,44.31,8.62,58.57,28.91c0.76,1.08,1.43,2.24,2.06,3.41
	C-471.6,243.27-471.6,243.81-471.2,245.63z"/>
<path class="st19" d="M-464.03,254.63c26.12,0,52.24-0.01,78.36,0.02c3.79,0,8.65-0.58,8.76,4.82c0.11,5.48-4.73,5-8.55,5
	c-52.4,0.02-104.81,0.01-157.21,0.01c-0.17,0-0.33,0-0.5,0c-3.74-0.03-8.17,0.16-8.02-5.03c0.14-5.09,4.61-4.8,8.31-4.8
	C-516.6,254.62-490.32,254.63-464.03,254.63z"/>
<path class="st19" d="M-479.81,104.99c1.37-0.12,2.38-0.4,3.32-0.25c6,0.96,9.54-1.36,10.59-7.47c0.18-1.03,0.39-2.41,1.68-2.84
	c0.75-0.25,1.33,0.42,1.42,1.05c1.23,8.42,6.59,10.74,14.84,8.96c-1.7,4.66-6.74,5.15-7.83,8.9c-1.04,3.62,2.17,6.85,1.74,10.67
	c-0.76-0.04-1.4,0.13-1.66-0.12c-5.14-4.74-10.31-6.43-15.79-0.48c-0.52,0.56-1.46,1.11-2.17,0.34c-0.35-0.38-0.35-1.24-0.25-1.84
	c0.16-0.98,0.41-1.97,0.84-2.86c2.09-4.39,0.92-7.59-3.23-10.04C-477.65,108.24-479.28,107.45-479.81,104.99z"/>
<path class="st19" d="M-529.56,150.97c-1.96-1.77-4.48-3.42-5.67-6.2c-0.42-0.98,5.68-6.63,6.45-6.07c2.33,1.72,4.85,3.41,5.8,6.34
	C-522.68,145.98-528.24,151.04-529.56,150.97z"/>
<path class="st19" d="M-398.73,138.33c2.12,2.24,4.87,3.7,5.91,6.58c0.39,1.1-5.8,6.59-6.56,5.98c-2.24-1.83-5.93-3.57-5.51-6.36
	C-404.52,142.1-401.49,139.95-398.73,138.33z"/>
</svg>
